<svg width="1em" height="1em" viewBox="0 0 16 16" class="bi bi-arrow-right" fill="currentColor" xmlns="http://www.w3.org/2000/svg">
    <path fill-rule="evenodd" d="M1.06087594,7.69175909 C1.06087594,7.20311787 1.45699791,6.8069959 1.94563913,6.8069959 L12.6735452,6.8069959 L9.62659989,3.76182008 C9.28064194,3.41586209 9.28064195,2.8549534 9.62659992,2.50899543 C9.9725579,2.16303745 10.5334666,2.16303744 10.8794246,2.5089954 L15.4357759,7.06534675 C15.6021852,7.23133587 15.6957084,7.45671775 15.6957084,7.69175909 C15.6957084,7.92680044 15.6021852,8.15218232 15.4357759,8.31817144 L10.8794246,12.8745228 C10.5334666,13.2204808 9.97255789,13.2204807 9.62659992,12.8745228 C9.28064195,12.5285648 9.28064193,11.9676561 9.62659989,11.6216981 L12.6735452,8.57652229 L1.94563913,8.57652229 C1.45699791,8.57652229 1.06087594,8.18040031 1.06087594,7.69175909 Z"></path>
</svg>