<svg width="1.5em" height="1em" viewBox="0 0 24 16" class="bi bi-arrow-right-long" fill="currentColor" xmlns="http://www.w3.org/2000/svg">
    <path fill-rule="evenodd" d="M1,8.18200872 C1,7.86795852 1.25458799,7.61337053 1.56863818,7.61337053 L21.4634741,7.61337053 L19.5051993,5.65623302 C19.2828518,5.43388548 19.2828518,5.0733889 19.5051993,4.85104137 C19.7275468,4.62869384 20.0880434,4.62869383 20.3103909,4.85104135 L23.2387625,7.77941288 C23.3457139,7.88609425 23.4058213,8.03094741 23.4058213,8.18200872 C23.4058213,8.33307002 23.3457139,8.47792318 23.2387625,8.58460455 L20.3103909,11.5129761 C20.0880434,11.7353236 19.7275468,11.7353236 19.5051993,11.5129761 C19.2828518,11.2906285 19.2828518,10.930132 19.5051993,10.7077844 L21.4634741,8.7506469 L1.56863818,8.7506469 C1.25458799,8.7506469 1,8.49605891 1,8.18200872 Z"></path>
</svg>