<?xml version="1.0" standalone="no"?>
<!DOCTYPE svg PUBLIC "-//W3C//DTD SVG 1.1//EN" "http://www.w3.org/Graphics/SVG/1.1/DTD/svg11.dtd" >
<svg xmlns="http://www.w3.org/2000/svg">
<metadata>Generated by IcoMoon</metadata>
<defs>
<font id="icomoon" horiz-adv-x="1024">
<font-face units-per-em="1024" ascent="960" descent="-64" />
<missing-glyph horiz-adv-x="1024" />
<glyph unicode="&#x20;" horiz-adv-x="512" d="" />
<glyph unicode="&#xe900;" glyph-name="cursor" d="M892 124l-56.5-57-261.5 261.5-122.5-257-327.5 764 763.5-327-256.5-123.5zM455.5 265.5l76.5 161 162 77.5-418 179.5z" />
<glyph unicode="&#xe901;" glyph-name="crosshair" d="M770 706c71-71 110-165.5 110-266s-39-195-110-266-165.5-110-266-110-195 39-266 110-110 165.5-110 266 39 195 110 266 165.5 110 266 110 195-39 266-110zM713.5 230.5c46 46.5 75 106 83.5 169.5h-125v80h125c-8.5 64-37.5 123-83.5 169.5-46.5 46-105.5 75-169.5 83.5v-125h-80v125c-64-8.5-123-37.5-169.5-83.5-46-46.5-75-105.5-83.5-169.5h125v-80h-125c8.5-64 37.5-123 83.5-169.5 46.5-46 105.5-75 169.5-83.5v125h80v-125c64 8.5 123 37.5 169.5 83.5zM504 496c31 0 56-25 56-56s-25-56-56-56-56 25-56 56 25 56 56 56z" />
<glyph unicode="&#xe902;" glyph-name="search" d="M908.5 108l-56.5-56.5-210.5 210.5c-57-44.5-127-69-201-69-87 0-169 34-231 95.5-61.5 61.5-95.5 143.5-95.5 231s34 169.5 95.5 231c62 61.5 144 95.5 231 95.5 87.5 0 169.5-34 231-95.5 62-61.5 96-143.5 96-231 0-74-25-144-69.5-201zM265.5 345c47-47 109-72.5 175-72.5s128 25.5 175 72.5c46.5 46.5 72 108.5 72 174.5s-25.5 128-72 175c-47 46.5-109 72-175 72s-128-25.5-174.5-72c-47-47-72.5-109-72.5-175s25.5-128 72-174.5z" />
<glyph unicode="&#xe903;" glyph-name="zoomin" d="M908.5 108l-56.5-56.5-210.5 210.5c-57-44.5-127-69-201-69-87 0-169 33.5-231 95.5-61.5 61.5-95.5 143.5-95.5 231s34 169.5 95.5 231c62 61.5 144 95.5 231 95.5 87.5 0 169.5-34 231-95.5 62-61.5 96-143.5 96-231 0-74-25-144-69.5-201zM265.5 345c47-47 109-72.5 175-72.5s128 25.5 175 72.5c46.5 46.5 72 108.5 72 174.5s-25.5 128-72 175c-47 46.5-109 72-175 72s-128-25.5-175-72c-46.5-47-72-109-72-175s25.5-128 72-174.5zM480 672v-112h112v-80h-112v-112h-80v112h-112v80h112v112h80z" />
<glyph unicode="&#xe904;" glyph-name="zoomout" d="M909.5 107l-56.5-56.5-211 211c-57.5-44.5-127.5-69.5-201.5-69.5-87.5 0-170 34-232 96-61.5 62-96 144-96 231.5s34.5 170 96 232c62 62 144.5 96 232 96s169.5-34 231.5-96 96-144.5 96-232c0-74-24.5-144-69.5-201.5zM265 344.5c47-47 109-72.5 175.5-72.5 66 0 128.5 25.5 175 72.5 47 47 72.5 109 72.5 175 0 66.5-25.5 128.5-72.5 175.5-46.5 47-109 72.5-175 72.5-66.5 0-128.5-25.5-175.5-72.5-46.5-47-72.5-109-72.5-175.5 0-66 26-128 72.5-175zM288 480v80h304v-80h-304z" />
<glyph unicode="&#xe905;" glyph-name="view" d="M512 784c240.5 0 448-225.5 448-336s-207.5-336-448-336-448 225.5-448 336 207.5 336 448 336zM512 192c207 0 368 204 368 256s-161 256-368 256-368-204-368-256 161-256 368-256zM612 498l71.5 36c13-26 20.5-55 20.5-86 0-106-86-192-192-192s-192 86-192 192 86 192 192 192v-80c-61.5 0-112-50.5-112-112s50.5-112 112-112 112 50.5 112 112c0 18-4.5 35-12 50z" />
<glyph unicode="&#xe906;" glyph-name="attach" d="M375.5 0c-55.5 0-108 22.5-149 63.5-91.5 91-85 225 16 325.5v0s124 124 193.5 193c29.5 29.5 68 44.5 108 43 36.5-2 71.5-17.5 98.5-44.5 27-26.5 43-61.5 44.5-98 1.5-40-13.5-78-43.5-107.5l-182.5-182-57 57 182.5 181.5c14 14 20.5 30 20 47-1 16.5-8.5 33-21 45.5s-29 20-45.5 20.5c-17 1-33.5-6-47-19.5-69.5-69-193.5-193-193.5-193-69.5-69-76-152.5-16-211.5 27-27.5 60-41 95.5-40 39.5 1 79.5 21 115.5 57l276 274.5c46 46.5 72 99.5 74 153.5 2 54.5-20.5 107-65 151.5-45.5 45-97.5 68.5-150.5 66.5-53.5-1.5-107.5-28-155.5-75.5l-264.5-264-57 57 264.5 263.5c62.5 62.5 135.5 97 210 99.5 76 2.5 148.5-29 210-90 61-61 92-134 88.5-211.5-3-75-36.5-146.5-98-207l-275.5-274.5c-51-51.5-110-79-170-81h-6z" />
<glyph unicode="&#xe907;" glyph-name="link" d="M454.5 208c24.5 24.5 31 60 20 91l59.5 59c16.5-26 25.5-56.5 25.5-88.5 0-44.5-17.5-86.5-48.5-118l-55.5-55c-31.5-31-73-48.5-118-48.5-44.5 0-86.5 17.5-118.5 49l-74 74c-65.5 65-65.5 171 0 236l55 55c31.5 31 73.5 48.5 118 48.5 32.5 0 63-9 89.5-26l-59-59c-10 3.5-20 5.5-30.5 5.5-23.5 0-45.5-9-62-25.5l-55-55c-34-34-34-89.5 0-123.5l74.5-74c16.5-16.5 38.5-25.5 62-25.5s45.5 9 62 25.5zM863 741c65.5-65 65.5-171 0-236l-54.5-54.5c-31.5-31.5-73.5-49-118-49-32 0-62.5 9-88.5 25.5l59 59c9.5-3 19-5 29.5-5 23.5 0 45 9 61.5 25.5l55 55c34 34 34 89.5 0 123.5l-74 74c-16.5 16.5-38.5 25.5-62 25.5s-45.5-9-61.5-25.5l-55-55c-16.5-16-25.5-38-25.5-61.5 0-10.5 2-20.5 5.5-30l-59-59c-17 26-26 57-26 89 0 44.5 17.5 86.5 48.5 118l55 55c31.5 31 73.5 48.5 118 48.5s86.5-17.5 118-48.5zM391.5 287l277 277-56.5 56.5-277-277z" />
<glyph unicode="&#xe908;" glyph-name="unlink" d="M454 207.5c24.5 24.5 31.5 60 20.5 90.5l58.5 59.5c16.5-26.5 25.5-57 25.5-88.5 0-44.5-17-86.5-48.5-117.5l-54.5-55c-31-31.5-73-48.5-117-48.5-44.5 0-86 17-117.5 48.5l-73.5 74c-64.5 65-64.5 170.5 0 235.5l54.5 54.5c31 31.5 73 48.5 117 48.5 32 0 62.5-9 89-25.5l-59-59c-9.5 3.5-19.5 5.5-30 5.5-23 0-45-9-61-25.5l-54.5-54.5c-34-34-34-89.5 0-123.5l73.5-74c16.5-16.5 38-25.5 61.5-25.5 23 0 45 9 61.5 25.5zM863 741c64.5-65.5 64.5-171 0-236l-55-55c-31-31.5-72.5-48.5-117-48.5-32 0-62 9-88.5 25.5l59.5 59c9-3 19-5 29-5 23 0 45 9 61.5 25.5l54.5 54.5c34 34 34 89.5 0 123.5l-74 74.5c-16.5 16.5-38 25.5-61.5 25.5s-45-9-61.5-25.5l-54.5-55c-16.5-16.5-25.5-38.5-25.5-61.5 0-11 2-21 5.5-30.5l-59-59c-16.5 26.5-25.5 57-25.5 89.5 0 44.5 17 86.5 48.5 117.5l54.5 55c31.5 31.5 73 48.5 117.5 48.5s86-17 117.5-48.5zM397 618.5l-56.5-57-148 148 56.5 56.5zM611 292l57 57 147.5-148-56.5-56.5z" />
<glyph unicode="&#xe909;" glyph-name="move" d="M776.5 240l-56.5 56.5 103.5 103.5h-263.5v-263.5l103.5 103.5 56.5-56.5-199.5-199.5-200 200 56.5 56.5 103-103v262.5h-263.5l103.5-103.5-56.5-56.5-199.5 199.5 200 200 56.5-56.5-103-103h262.5v262.5l-103-103-56.5 56.5 200 200 199.5-199.5-56.5-56.5-103.5 103.5v-263.5h262.5l-103 103 56.5 56.5 200-200z" />
<glyph unicode="&#xe90a;" glyph-name="write" d="M929.5 736.5c19.5-20 30-46 30-74 0-27.5-10.5-53.5-30-73.5l-96.5-96-260 260.5 96 96c19.5 19.5 46 30.5 73.5 30.5 28 0 54-11 73.5-30.5zM873 646c4.5 4 6.5 10.5 6.5 16.5 0 6.5-2 12.5-6.5 17l-113.5 113.5c-4.5 4.5-10.5 7-17 7s-12.5-2.5-17-7l-39.5-39.5 147-147.5zM425.5 198.5l306 306 56.5-56.5-319.5-319.5-392.5-132 132.5 392 319 319.5 56.5-56.5-306-306-55.5-165 38-37.5zM338.5 258.5c-8 7.5-12 18-12 28 0 10.5 4 20.5 12 28.5l291 291 56.5-56.5-291-291c-8-8-18-12-28.5-12-10 0-20.5 4-28 12z" />
<glyph unicode="&#xe90b;" glyph-name="writingdisabled" d="M929.5 589l-96.5-96-260 260.5 96 96c19.5 19.5 46 30.5 73.5 30.5 28 0 54-11 73.5-30.5l113.5-113c19.5-20 30-46 30-74 0-27.5-10.5-53.5-30-73.5zM725.5 793l-39.5-39.5 147-147.5 40 40c4.5 4 6.5 10.5 6.5 16.5 0 6.5-2 12.5-6.5 17l-113.5 113.5c-4.5 4.5-10.5 7-17 7s-12.5-2.5-17-7zM425.5 198.5l118.5 118.5 56.5-56.5-132-132-392.5-132 132.5 392 132 132.5 56.5-57-119-118.5-55.5-165 38-37.5zM338.5 258.5c-8 7.5-12 18-12 28 0 10.5 4 20.5 12 28.5l104 104 56.5-56.5-104-104c-8-8-18-12-28.5-12-10 0-20.5 4-28 12zM705 365l309-308.5-57-56.5-880 880 56.5 56.5 311.5-311 82.5 82.5 56.5-56.5-82.5-83 45.5-45 82.5 82.5 56.5-56.5-82.5-82.5 45-45.5 83 83 56.5-56.5z" />
<glyph unicode="&#xe90c;" glyph-name="erase" d="M872 288c84 0 152-68 152-152s-68-152-152-152-152 68-152 152 68 152 152 152zM872 64c39.5 0 72 32.5 72 72s-32.5 72-72 72-72-32.5-72-72 32.5-72 72-72zM536 80c40 0 72-32.5 72-72s-32-72-72-72-72 32.5-72 72 32 72 72 72zM46.5 307l96 96 260.5-260.5-96.5-96c-19.5-19.5-45.5-30.5-73.5-30.5-27.5 0-54 11-73.5 30.5l-113 113c-19.5 20-30.5 46-30.5 74 0 27.5 11 53.5 30.5 73.5zM250 103l39.5 39.5-147 147.5-39.5-40c-4.5-4-7-10.5-7-16.5 0-6.5 2.5-12.5 7-17l113-113.5c4.5-4.5 10.5-7 17-7s12.5 2.5 17 7zM899.5 899.5l-132-392-319.5-319.5-56.5 56.5 306 306 55.5 165-38 37.5-164.5-55-306-306.5-56.5 56.5 319 319.5zM649 609.5c0-10.5-4-20.5-11.5-28.5l-291.5-291-56.5 56.5 291.5 291c7.5 8 18 12 28 12 10.5 0 20.5-4 28.5-12 7.5-7.5 11.5-18 11.5-28z" />
<glyph unicode="&#xe90d;" glyph-name="compose" d="M961.5 859.5c40.5-40.5 40.5-106 0-146.5l-129.5-129.5v-535.5h-704v832h532.5l-10-9.5-65-70.5h-377.5v-672h544v375.5l-149-149-267-82.5 83 267 358.5 358.5c19.5 20 45.5 30.5 73 30.5s53.5-10.5 73-30.5zM561 424.5l243.5 243.5-72 72-243.5-243.5-24.5-78.5 18-17.5zM905.5 769.5c9 9 9 24.5 0 33.5l-38 38.5c-9 9-25 9-34 0l-44.5-45 72-72z" />
<glyph unicode="&#xe90e;" glyph-name="lock" d="M472 320c40 0 72-32.5 72-72 0-25-12.5-47-32-60v-60h-80v60c-19.5 13-32 35-32 60 0 39.5 32 72 72 72zM736 479.5c53.5-4 96-49 96-103.5v-288c0-57.5-46.5-104-104-104h-512c-57.5 0-104 46.5-104 104v288c0 54.5 42.5 99.5 96 103.5v72.5c0 145.5 118.5 264 264 264s264-118.5 264-264v-72.5zM752 88v288c0 13-11 24-24 24h-376v80h304v72c0 101.5-82.5 184-184 184s-184-82.5-184-184v-152h-72c-13 0-24-11-24-24v-288c0-13 11-24 24-24h512c13 0 24 11 24 24z" />
<glyph unicode="&#xe90f;" glyph-name="unlock" d="M512 128h-80v60c-19.5 13-32 35-32 60 0 39.5 32 72 72 72s72-32.5 72-72c0-25-12.5-47-32-60v-60zM728 480c57.5 0 104-46.5 104-104v-288c0-57.5-46.5-104-104-104h-512c-57.5 0-104 46.5-104 104v288c0 53 40 97 91.5 103l-11.5 30.5c-50 137 21 288.5 158 338.5 66 24 137.5 21 201.5-9s112.5-83 136.5-149l17-46.5-75-27.5-17 46.5c-16.5 46-50.5 83-95.5 104-44.5 21-94.5 23-140.5 6-46-16.5-82.5-50.5-103.5-95s-23-94.5-6.5-140.5l50-137h-101c-13 0-24-11-24-24v-288c0-13 11-24 24-24h512c13 0 24 11 24 24v288c0 13-11 24-24 24h-342.5l-29.5 80h372z" />
<glyph unicode="&#xe910;" glyph-name="key" d="M232 544c40 0 72-32 72-72s-32-72-72-72-72 32-72 72 32 72 72 72zM1006.5 579c28-53.5 22-123-15.5-177-38-54.5-65-86.5-66-88l-27.5-33-74.5 72-72.5-68.5-69 66-56.5-62.5h-97.5c-54.5-68-138-112-231.5-112-163 0-296 132.5-296 296 0 163 133 296 296 296 93.5 0 177-44 231.5-112h345.5c59.5 0 108-28 133.5-77zM925.5 448c20.5 29.5 24.5 66.5 10 94-11.5 22-33 34-62.5 34h-388c-36.5 66.5-107.5 112-189 112-119 0-216-97-216-216s97-216 216-216c81.5 0 152.5 45.5 189 112h104.5l87.5 97.5 74-70.5 72.5 68.5 66.5-64.5c10 13 22 29.5 35.5 49z" />
<glyph unicode="&#xe911;" glyph-name="backspace" d="M325.5 784h682.5v-688h-682l-302.5 339.5zM928 176v528h-565.5l-233-268 232.5-260h566zM495 270.5l-56.5 56.5 113.5 113-113.5 113 56.5 56.5 113.5-113 113 113 56.5-56.5-113-113 113-113-56.5-56.5-113 113z" />
<glyph unicode="&#xe912;" glyph-name="ban" d="M520 816c207.5 0 376-168.5 376-376s-168.5-376-376-376c-100.5 0-195 39-266 110s-110 165.5-110 266c0 207.5 168.5 376 376 376zM224 440c0-65.5 21.5-127.5 60.5-179l414.5 414.5c-51.5 39-113.5 60.5-179 60.5-163.5 0-296-132.5-296-296zM520 144c163 0 296 133 296 296 0 65.5-21.5 127.5-60.5 179l-414.5-414.5c51.5-39 113.5-60.5 179-60.5z" />
<glyph unicode="&#xe913;" glyph-name="smoking" d="M720 96v240h80v-240h-80zM864 336h80v-240h-80v240zM0 96v240h656v-80h-576v-80h576v-80h-656zM892.5 400h-86.5c17.5 38 44.5 116 9 141-31.5 22.5-132.5 28.5-222 33.5-178.5 10.5-362.5 21.5-407 138-45 118 72.5 203 140.5 231.5l31-74c-1.5-0.5-125.5-54-97-129 26-68 206-78.5 337-86.5 114.5-7 213.5-12.5 264-48 66.5-47 56.5-136.5 31-206.5z" />
<glyph unicode="&#xe914;" glyph-name="nosmoking" d="M720 96v240h80v-240h-80zM864 336h80v-240h-80v240zM553.5 577c-165 10.5-326.5 28-367.5 135.5-45 118 72 203 140 231.5l31-74c-1.5-0.5-125-54-96.5-129 26-68 206-78.5 337-86.5 3 0 6-0.5 9-0.5zM892.5 400h-86.5c17.5 38 44.5 116 9 141-17.5 12.5-56 19.5-102.5 25l-159.5-230h103v-80h-159l-55.5-80h214.5v-80h-270l-104.5-151-66 46 597.5 859.5 65.5-45.5-115-165.5c40.5-6.5 74.5-16.5 97.5-33 67-47 57-136.5 31.5-206.5zM274.5 176l-55.5-80h-219v240h386l-56-80h-250v-80h194.5z" />
<glyph unicode="&#xe915;" glyph-name="trash" d="M720 160v480h80v-560h-608v560h80v-480h448zM368 640h80v-400h-80v400zM544 640h80v-400h-80v400zM684 784h164v-80h-704v80h164l48.5 144h279zM392.5 784h207l-21.5 64h-164z" />
<glyph unicode="&#xe916;" glyph-name="target" d="M504 512c39.5 0 72-32.5 72-72s-32.5-72-72-72-72 32.5-72 72 32.5 72 72 72zM878 480h114v-80h-114c-18.5-175.5-158.5-315.5-334-334v-114h-80v114c-175.5 18.5-315.5 158.5-334 334h-114v80h114c18.5 175.5 158.5 315.5 334 334v114h80v-114c175.5-18.5 315.5-158.5 334-334zM504 144c163.5 0 296 132.5 296 296s-132.5 296-296 296-296-132.5-296-296 132.5-296 296-296z" />
<glyph unicode="&#xe917;" glyph-name="tag" d="M960 903l34-461-477-477-488.5 488.5 476.5 476.5zM517 78.5l394.5 394-26 355-349 20.5-395-394.5zM529.5 628l56.5-56.5-208-208-56.5 56.5zM429 313l207.5 207.5 57-56.5-208-207.5zM677 715c28 28 74 28 102 0s28-74 0-102-74-28-102 0-28 74 0 102z" />
<glyph unicode="&#xe918;" glyph-name="bookmark" d="M946 576l-184-416h-138v-193l-176 112-176-112v193h-68c-93 0-140 60.5-140 181.5 0 36 3.5 75.5 17 107.5 71 169 127 276.5 182.5 359.5 46 68.5 85 103.5 172 103.5h503.5l-227.5-464h-507.5c-24 0-60 0-60-105.5 0-102.5 34.5-102.5 60-102.5h68v112h80v-239l96 61 96-61v239h80v-112h85.5l149 336h87.5zM330 765c-39-58.5-83-141-127.5-237h459l149 304h-375c-53 0-69-13-105.5-67z" />
<glyph unicode="&#xe919;" glyph-name="flag" d="M876 686l52 15v-581.5l-29.5-8c-3.5-1-85.5-25-199.5-11-89 11-145.5 50-195.5 81.5-34.5 22-67.5 42.5-108 53.5-35.5 9.5-84.5 11.5-139.5 5.5v80.5c51 4.5 109.5 5 160-9 52.5-14 92-39 130-63 47-29.5 92-61 163-69.5 60-7.5 107-2.5 139 2v417.5c-32-5-88-8.5-148.5-1-89 11-146 45.5-196 76.5-34.5 21-67 41-108 52-67 18-157.5 5-203.5-3.5v-739.5h-80v802.5l30 7.5c6.5 2 159.5 41 274 10 52-14 91-37.5 129-61 47-29 91.5-56.5 163.5-65 97.5-12 167 8 167.5 8z" />
<glyph unicode="&#xe91a;" glyph-name="like" d="M871.5 390.5c-4-7-7.5-14-8.5-18-2.5-9-1.5-16.5-0.5-27.5 1.5-18 3.5-43-7-79-9-31-26-50-40.5-66.5-7-7.5-13.5-15-19-23.5-3.5-5-5.5-11-8.5-19-9.5-25.5-22-60-78-86.5-43.5-20.5-98-22.5-116-22.5h-5c-73.5 0-145 20-211.5 58.5-39 23-146.5 22.5-217.5 22h-15.5v79h15c89.5 1 200.5 2.5 258.5-31.5 54-31.5 112-47.5 172-47.5 15.5-0.5 58 1.5 85.5 14.5 26.5 12.5 30 22 37.5 41.5 3.5 10.5 8.5 23.5 17 36.5 9 13 18 23 26 32 12.5 14.5 22 22.5 26 35.5 6.5 21.5 5 34 4 49-1.5 15-3 32 2.5 54 3.5 14 7 26 13.5 37.5 8 15 14.5 27.5 14.5 45 0 13.5 0 39-52 39h-88c-71.5 0-125 42-130 102-4 48 13 85 28.5 115 9.5 17 18 33.5 17.5 44.5-0.5 10-5 16.5-13 21-12 6.5-27 6-40.5-2-11-6.5-55.5-52-110-120l-5-6c-71-88.5-144.5-180-279.5-188.5v80c97 9 153 78.5 217.5 158.5l4.5 6.5c22.5 27.5 98 119.5 133.5 139.5 38 21 81.5 22 118 2 32.5-17.5 52-49 54-86 2-33.5-13-62-26.5-87-13-25-21-46-19-70.5 1.5-21.5 28-31 50-31h88c81.5 0 132-43.5 132-117 0-38-14-64-24.5-83.5z" />
<glyph unicode="&#xe91b;" glyph-name="dislike" d="M871.5 505.5c10.5-19.5 24.5-45.5 24.5-83.5 0-73.5-50.5-117-132-117h-88c-22 0-48.5-9.5-50-31-2-24.5 6-45.5 19-70.5 13.5-25 28.5-53.5 26.5-87-2-37-22-68.5-54-86-36.5-20-80-19-118 2-35.5 20-111 112-133.5 139.5l-4.5 6.5c-64.5 80-120.5 149.5-217.5 158.5v80c135-8.5 208.5-100 279.5-188.5l5-6c54.5-68 99-113.5 110-120 13.5-8 28.5-8.5 40.5-2 8 4.5 12.5 11 13 21 0.5 11-8.5 27.5-17.5 44.5-15.5 30-32.5 67-28.5 115 5 60 58.5 102 130 102h88c52 0 52 25.5 52 39 0 17.5-6.5 30-14.5 45-6.5 11.5-10 23.5-13.5 37.5-5.5 22-4 39-2.5 54 1 15 2.5 27.5-4 49-4 13-13.5 21-26 35.5-8 9-17 19-26 32-8.5 13-13.5 26-17 36.5-7.5 19.5-11 29-37.5 41.5-27.5 13-70 15-85.5 14.5-60 0-118-16-172-47.5-58-34-169-32.5-258.5-31.5h-15v79h15.5c71-0.5 178.5-1 217.5 22 66.5 38.5 138 58.5 211.5 58.5v0h5c18 0 72.5-2 116-22.5 56-26.5 68.5-61 78-86.5 3-8 5-14 8.5-19 5.5-8.5 12-16 19-23.5 14.5-16.5 31.5-35.5 40.5-66.5 10.5-36 8.5-61 7-79-1-11-2-18.5 0.5-27.5 1-4 4.5-11 8.5-18z" />
<glyph unicode="&#xe91c;" glyph-name="heart" d="M911.5 574.5c3.5-59-11-148-99.5-240-150.5-155.5-270-281-271-282l-29-30.5-29 30.5c-1 1-120.5 126.5-271 282-88.5 92-103 181-99.5 240 4 69 35 133.5 83 172.5 41.5 33.5 96 53 150.5 53 82.5 0 135-35.5 166-78.5 31 43 83.5 78.5 166 78.5 54.5 0 109-19.5 150.5-53 48-39 79-103.5 83-172.5zM754.5 390c68.5 71 80 137 77 180-3 55-29.5 95.5-53.5 114.5-27 22.5-64.5 35.5-100 35.5-114.5 0-124-101-126-112.5-2.5-13-11.5-31.5-38.5-31.5-28 0-39.5 17-41.5 32-1.5 10.5-11.5 112-126 112-35.5 0-73-13-100-35.5-24-19-50.5-59.5-53.5-114.5-3-43 8.5-109 77-180 106.5-110.5 198-205.5 242.5-252 44.5 46.5 136 141.5 242.5 252z" />
<glyph unicode="&#xe91d;" glyph-name="star" d="M831.5-37.5l-319.5 196.5-319.5-196.5 90 362-288 241 376 27 141.5 344.5 141.5-344.5 376-27-288-241zM512 253l194.5-119.5-54.5 220.5 174.5 145.5-228 16.5-86.5 210.5-86.5-210.5-228-16.5 174.5-145.5-54.5-220.5z" />
<glyph unicode="&#xe91e;" glyph-name="sample" d="M383.5 224.5l137 137 56.5-57-145.5-145.5c-6-6-13.5-10-21.5-11l-28-5.5c-5-26-17.5-50.5-36.5-70-26-25.5-60-39.5-96.5-39.5-36 0-70.5 14-96 39.5-26 26-40 60-40 96.5 0 36 14 70.5 40 96 19 19.5 43.5 32 70 37l5 28c1.5 8 5 15.5 11 21l146 146 56.5-56.5-137-137-8.5-46.5c-3.5-20-22-34.5-42.5-32.5h-5c-15 0-28.5-5.5-39-16s-16.5-24.5-16.5-39.5 6-29 16.5-39.5c21-21.5 58-21.5 79 0 11.5 11.5 17.5 27 16 44-1.5 20.5 12.5 39 33 42.5zM927 646.5c-0.5-54.5-26.5-109-76-158.5-35.5-35.5-96.5-77.5-151.5-102l76.5-76.5-56.5-56.5-386.5 386 56.5 57 76.5-76.5c24.5 54.5 66.5 115.5 102.5 151.5 49 49 103.5 75 158 75.5h1.5c50 0 97.5-21 137.5-61 40.5-40.5 62-88.5 61.5-139zM794.5 544.5c34.5 34.5 52 69 52.5 102.5 0 36-20.5 64.5-38 82-17 17-45.5 37.5-81 37.5h-1c-33 0-67.5-17.5-102-52-39-39-85-115-97-157l109.5-109.5c42 11.5 118 58 157 96.5z" />
<glyph unicode="&#xe91f;" glyph-name="crop" d="M944 224v-80h-144v-144h-80v144h-528v528h-144v80h144v144h80v-672h672zM720 288v384h-384v80h464v-464h-80z" />
<glyph unicode="&#xe920;" glyph-name="layers" d="M781 365.5l75.5 48.5 158.5-92-500.5-319.5-500.5 319.5 158 92 76-48.5-80.5-46.5 347-221.5 346.5 221.5zM514.5 271.5l-500.5 319.5 500.5 290 500.5-290zM167.5 587.5l347-221.5 346.5 221.5-346.5 201z" />
<glyph unicode="&#xe921;" glyph-name="layergroup" d="M519.5 53l422.5 270 78-45.5-500.5-319.5-500.5 319.5 78.5 45.5zM519.5 224l422.5 270 78-45.5-500.5-319.5-500.5 319.5 78.5 45.5zM519.5 300.5l-500.5 319.5 500.5 290 500.5-290zM173 616.5l346.5-221 346.5 221-346.5 201.5z" />
<glyph unicode="&#xe922;" glyph-name="pen" d="M720 649l96-230.5-225-450.5h-142l-225 450.5 96 230.5v135h80v-151l-88-211.5 168-336v260c-28.5 14.5-48 44.5-48 78.5 0 48.5 39.5 88 88 88s88-39.5 88-88c0-34-19.5-64-48-78.5v-260.5l168 336.5-88 211.5v151h80v-135zM784 928v-80h-528v80h528z" />
<glyph unicode="&#xe923;" glyph-name="bezier" d="M904 560c-25 0-47 12.5-60 32h-98.5c64-55 100-137.5 102-240h96.5v-272h-272v272h95.5c-2 103.5-47 176.5-127.5 213v-69h-272v69c-80.5-36.5-125.5-109.5-128-213h96v-272h-272v272h96.5c2 102.5 38.5 185 102.5 240h-99c-13-19-35-32-60-32-40 0-72 32.5-72 72s32 72 72 72c25 0 47-12.5 60-32h204v96h272v-96h204c13 19.5 35 32 60 32 40 0 72-32.5 72-72s-32-72-72-72zM256 272h-112v-112h112v112zM560 576v112h-112v-112h112zM864 272h-112v-112h112v112z" />
<glyph unicode="&#xe924;" glyph-name="pixels" d="M656 384h240v-320h-800v800h320v-240h240v-240zM336 144v160h-160v-160h160zM336 384v160h-160v-160h160zM336 624v160h-160v-160h160zM576 144v160h-160v-160h160zM576 384v160h-160v-160h160zM816 144v160h-160v-160h160z" />
<glyph unicode="&#xe925;" glyph-name="phone" d="M248.5 0c-103.5 0-182 106.5-211 206-14 48.5-2 75.5 44 95.5 32.5 14.5 76 34.5 114 52 27 12 52.5 23.5 70 31.5 12.5 5.5 25.5 11 40.5 11 27 0 45-18 53.5-26.5l44.5-44.5c26 15.5 69.5 44.5 112 87s71.5 85.5 87 111.5l-44.5 45c-33.5 33-31 59.5-16 93.5 8 18 19.5 43 32 70 17.5 38 37.5 81.5 52 114 7 16.5 21.5 50 62.5 50 11 0 22.5-3 33-6 100-29 207-108 206-212.5-1-104-82.5-289.5-235.5-442.5-152.5-152.5-338-234-442.5-235h-1.5zM114 229v-1c21.5-73 77.5-148 134.5-148h0.5c74 0.5 242.5 67 387.5 211.5 144.5 144.5 211 313.5 212 387 0.5 57-75.5 113.5-149 135h-0.5c-14.5-33-34.5-76.5-52-115-12.5-26.5-23.5-51-31.5-69-0.5-1.5-1-2.5-1.5-3.5 0-0.5 0.5-1 1-1.5l85.5-85.5-12-25.5c-1.5-3-39.5-81-116-158-77-77-155-114.5-158-116l-25.5-12.5-86 86c-0.5 0.5-0.5 1-1 1-1-0.5-2.5-1-4-1.5-17.5-8-42-19.5-69-31.5-38.5-18-82-37.5-115-52z" />
<glyph unicode="&#xe926;" glyph-name="phonedisabled" d="M661 465.5l-102.5 103c-33.5 33-31 59.5-16 93.5 8 18 19.5 43 32 70 17.5 38 37.5 81.5 52 114 7 16.5 21.5 50 62.5 50 11 0 22.5-3 33-6 100-29 207-108 206-212.5-1-80.5-50-210-143.5-335.5l-57 57c82 113.5 120 224 121 279.5 0.5 57-75.5 113.5-149 135h-0.5c-14.5-33-34.5-76.5-52-115-12.5-26.5-23.5-51-31.5-69-0.5-1.5-1-2.5-1.5-3.5 0-0.5 0.5-1 1-1.5l85.5-85.5-12-25.5c-1-1.5-10-20.5-27.5-48zM987 30l-56.5-56.5-250 250c-150.5-145-329-222.5-430.5-223.5h-1.5c-103.5 0-182 106.5-211 206-14 48.5-2 75.5 44 95.5 32.5 14.5 76 34.5 114 52 27 12 52.5 23.5 70 31.5 12.5 5.5 25.5 11 40.5 11 27 0 45-18 53.5-26.5l44.5-44.5c23.5 14 61.5 39 99.5 75l-445.5 446 56.5 56.5zM249 80c71.5 0.5 233 63.5 375 200l-64 64c-72.5-69-142.5-103-145.5-104.5l-25.5-12.5-86 86c-0.5 0.5-0.5 1-1 1-1-0.5-2.5-1-4-1.5-17.5-8-42-19.5-69-31.5-38.5-18-82-37.5-115-52v-1c21.5-73 77.5-148 134.5-148h0.5z" />
<glyph unicode="&#xe927;" glyph-name="touchtonephone" d="M560 608v80h256v-80h-256zM592 480c-17.5 0-32 14.5-32 32s14.5 32 32 32 32-14.5 32-32-14.5-32-32-32zM688 544c17.5 0 32-14.5 32-32s-14.5-32-32-32-32 14.5-32 32 14.5 32 32 32zM784 480c-17.5 0-32 14.5-32 32s14.5 32 32 32 32-14.5 32-32-14.5-32-32-32zM592 384c-17.5 0-32 14.5-32 32s14.5 32 32 32 32-14.5 32-32-14.5-32-32-32zM688 448c17.5 0 32-14.5 32-32s-14.5-32-32-32-32 14.5-32 32 14.5 32 32 32zM784 384c-17.5 0-32 14.5-32 32s14.5 32 32 32 32-14.5 32-32-14.5-32-32-32zM592 352c17.5 0 32-14.5 32-32s-14.5-32-32-32-32 14.5-32 32 14.5 32 32 32zM688 352c17.5 0 32-14.5 32-32s-14.5-32-32-32-32 14.5-32 32 14.5 32 32 32zM784 288c-17.5 0-32 14.5-32 32s14.5 32 32 32 32-14.5 32-32-14.5-32-32-32zM962.5 819c60.5-216.5 60.5-445.5 0-661.5-4.5-17.5-20.5-29.5-38.5-29.5h-444v-32c0-62-50-112-112-112-51 0-94 32.5-107.5 80h107.5c17.5 0 32 14.5 32 32v112h496.5c46 176 46 384 0 560h-416.5v-496h-80v536c0 22 17.5 40 39.5 40h484.5c18 0 34-12 38.5-29zM335.5 168c0-22-18-40-40-40h-160c-17.5 0-33 11.5-38.5 28.5-65.5 217-65.5 446 0 663 5.5 17 21 28.5 38.5 28.5h160c22 0 40-18 40-40 0-92 0.5-197 0.5-197.5 0-17-11-33-28-38l-36-11.5v-146l36-11.5c17-5.5 28-21 28-38 0-0.5-0.5-104-0.5-197.5zM220 348c-16.5 5-28 20.5-28 38v200.5c0 21.5 11.5 36.5 28 41.5l36.5 11.5c-0.5 30-0.5 80.5-0.5 128.5h-93.5c-50-176-50-384 0-560h93.5c0 48 0 98.5 0.5 128z" />
<glyph unicode="&#xe928;" glyph-name="mail" d="M864 217v285l80 67.5v-473.5h-816v489l80-68v-300.5l152.5 192 64.5-47.5-147-185h516.5l-139.5 175 64.5 47.5zM128 736h816v-83l-322-245.5c-21-15.5-48-23-75.5-23-27 0-54 7.5-75 23l-343.5 261v67.5zM574.5 470.5l250.5 185.5h-556.5l250.5-185.5c14.5-10.5 41-10.5 55.5 0z" />
<glyph unicode="&#xe929;" glyph-name="inbox" d="M859 656l101-295v-329h-880v329l101 295h84.5l-98.5-288h272.5l4.5-35c1.5-9.5 12.5-61 76-61 67 0 75.5 59 76 61l4.5 35h272.5l-98.5 288h84.5zM160 112h720v176h-214c-18-44.5-61-96-146-96s-128 51.5-146 96h-214v-176zM721.5 653l-201.5-202-201.5 202 56.5 56.5 105-105v259.5h80v-259.5l105 105z" />
<glyph unicode="&#xe92a;" glyph-name="outbox" d="M843 656l101-295v-329h-880v329l101 295h84.5l-98.5-288h272.5l4.5-35c1.5-9.5 12.5-61 76-61 67 0 75.5 59 76 61l4.5 35h272.5l-98.5 288h84.5zM144 112h720v176h-214c-18-44.5-61-96-146-96s-128 51.5-146 96h-214v-176zM464 707.5l-105-105-56.5 56.5 201.5 202 201.5-202-56.5-56.5-105 105v-259.5h-80v259.5z" />
<glyph unicode="&#xe92b;" glyph-name="chat" d="M744 816c101.5 0 184-82.5 184-184v-208c0-101.5-82.5-184-184-184h-163.5l-192.5-181c-8-7-18-11-28-11-5.5 0-10.5 1-15.5 3-15 6.5-24.5 21-24.5 37v152h-40c-101.5 0-184 82.5-184 184v208c0 101.5 82.5 184 184 184h464zM848 424v208c0 57.5-46.5 104-104 104h-464c-57.5 0-104-46.5-104-104v-208c0-57.5 46.5-104 104-104h120v-143l148.5 143h195.5c57.5 0 104 46.5 104 104z" />
<glyph unicode="&#xe92c;" glyph-name="user" d="M512 400c-127.5 0-224 116-224 269.5 0 122.5 102.5 226.5 224 226.5s224-104 224-226.5c0-153.5-96.5-269.5-224-269.5zM512 818.5c-77.5 0-146-70-146-149 0-109.5 62.5-192 146-192s146 82.5 146 192c0 79-68.5 149-146 149zM176.5 0h-80l7 82c17.5 164 161.5 254 408.5 254s391-90 408.5-253.5l7-82.5h-80l-7 75c-15.5 149.5-186.5 182.5-328.5 182.5s-313-33-328.5-183z" />
<glyph unicode="&#xe92d;" glyph-name="users" d="M972.5 168.5l3.5-40.5h-77l-3 35c-7 73-72.5 110.5-191 110.5-14 0-27.5-0.5-39.5-1.5-7.5 27-19 52-34.5 74.5 23 3.5 47.5 5.5 74 5.5 159.5 0 256-67 267.5-183.5zM328.5 416c235 0 285.5-121.5 292.5-194l3-94h-77.5l-2 88.5c-8 80-85 121-216 121-131.5 0-208.5-41-216.5-122l-2.5-87.5h-76l2 93.5c7 73 57.5 194.5 293 194.5zM704 400c-91 0-160 78-160 181 0 91.5 66 155 160 155s160-63.5 160-155c0-103-69-181-160-181zM704 659.5c-19.5 0-83.5-5.5-83.5-78 0-61 35.5-105 83.5-105s83.5 44 83.5 105c0 72.5-64 78-83.5 78zM328 464c-96 0-168 81.5-168 190 0 97 67.5 162 168 162s168-65 168-162c0-108.5-72.5-190-168-190zM328 740c-34 0-91.5-11-91.5-85.5 0-66.5 38.5-114.5 91.5-114.5s91.5 48 91.5 114.5c0 74.5-57.5 85.5-91.5 85.5z" />
<glyph unicode="&#xe92e;" glyph-name="usergroup" d="M96.5 195l-5-67h-74l5 73.5c8.5 95.5 81.5 150 200.5 150 13 0 25-0.5 37-2-15.5-22.5-26-48-32-77-1.5 0-3 0.5-5 0.5-115 0-125-59-126.5-78zM1001.5 202l5.5-74h-74.5l-5 67.5c-1.5 18.5-11.5 77.5-126.5 77.5-1.5 0-3-0.5-5-0.5-5.5 29-16.5 54.5-31.5 77 11.5 1.5 24 2 36.5 2 119 0 192-54.5 200.5-149.5zM356.5 236l-9-108h-74.5l9 113.5c10 100.5 93.5 158 230 158s220-57.5 230-157.5l9-114h-74.5l-9 108.5c-5.5 56-61 84.5-155.5 84.5s-150-28.5-155.5-85zM208 384c-73 0-128 62.5-128 146 0 73 54 126 128 126s128-53 128-126c0-83.5-55-146-128-146zM208 579c-24.5 0-50.5-13-50.5-48.5 0-40 21.5-69.5 50.5-69.5 29.5 0 50.5 29.5 50.5 69.5 0 35.5-26 48.5-50.5 48.5zM800 384c-73 0-128 62.5-128 146 0 73 54 126 128 126 73 0 128-54.5 128-126 0-83.5-55-146-128-146zM799.5 579c-24.5 0-50.5-13-50.5-48.5 0-40 21.5-69.5 50.5-69.5s50.5 29.5 50.5 69.5c0 37.5-26 48.5-50.5 48.5zM504 432c-77.5 0-136 66.5-136 154.5 0 75 59.5 133.5 136 133.5s136-58.5 136-133.5c0-88-58.5-154.5-136-154.5zM504 643c-33.5 0-59-24-59-56 0-45 25-78 59-78s59 33 59 78c0 32-25.5 56-59 56z" />
<glyph unicode="&#xe92f;" glyph-name="businessuser" d="M512 368c-127.5 0-224 115.5-224 269 0 123 102.5 227 224 227s224-104 224-227c0-153.5-96.5-269-224-269zM512 785.5c-77.5 0-145.5-69-145.5-148 0-109 62.5-191 145.5-191s145.5 82 145.5 191c0 79-68 148-145.5 148zM585 171l-40.5-37.5 42.5-165.5h-150l42.5 165.5-40.5 37.5 73 115.5zM305.5 275.5l32.5 93.5c21-18 44-32.5 69-43.5l-41.5-119.5-22-4.5c-38-7.5-114.5-23-133.5-27.5-15-4-34.5-13-39-49-3-24.5-7.5-97.5-11.5-157h-79.5c3.5 61.5 9 139 12 166.5 7 60.5 43 103.5 99 117 18.5 4.5 80.5 17.5 114.5 24zM932 134.5c3-27.5 8-105 12-166.5h-80c-3.5 59.5-8 132.5-11 157-4.5 36-24 45-39 49-19 4.5-95.5 20-133.5 27.5l-22 4.5-42 119.5c25.5 11 48.5 25.5 69.5 43.5l32.5-93.5c34-6.5 96-19.5 114.5-24 56-13.5 92-56.5 99-117z" />
<glyph unicode="&#xe930;" glyph-name="man" d="M368 376c0 31 25 56 56 56s56-25 56-56-25-56-56-56-56 25-56 56zM576 376c0 31 25 56 56 56s56-25 56-56-25-56-56-56-56 25-56 56zM895 509c21.5-27 34-62.5 33-101-1.5-44-20-86-51.5-115-10-9-20.5-17-32.5-23-48-165-177.5-286-316-286s-268 121-316 286c-11.5 6-22.5 14-32.5 23-31.5 29-50 71-51.5 115-1 39.5 12 75.5 34.5 103-56 23-93 51-96 53l48.5 64c1-1 120.5-90 244.5-63 130 29 235 134 236 135l27.5 27.5 141.5-132c-2-20.5-6.5-50.5-16-84.5-0.5-2.5-1.5-5-2-8l-123 114.5c-44.5-38-136-105.5-247-130.5-22.5-5-45-7-66.5-7-8 0-16 0.5-24 1-7 0.5-14.5 2-22 1.5-33.5-4-57.5-35-56.5-72 0.5-22.5 10-44 25.5-59 8.5-7.5 25.5-17 44.5-17h3.5c27.5-150 136-269.5 247-269.5 111.5 0 219.5 119.5 247 269.5h4c18.5 0 35.5 9.5 44 17 15.5 15 25 36.5 25.5 59 1 31.5-16.5 58.5-42.5 68 11.5 37 19 75 23.5 113.5 6.5 55 5 125.5-42.5 171-62 58.5-143.5 30.5-146.5 29l-18-7-17 9.5c-1.5 0.5-128 78.5-238 41-115.5-39.5-154-168.5-159-187.5-27.5 12.5-52.5 28-71 41.5 18.5 54 72.5 176.5 204 221.5 119.5 41 243.5-17.5 287.5-39 38 10.5 135.5 22.5 213-51.5 107-101 62-279.5 53-311.5z" />
<glyph unicode="&#xe931;" glyph-name="male" d="M609-64h-195.5l-5 34c-0.5 2.5-40.5 270.5-40.5 574h79.5c0-235 24.5-447.5 35-528h58c10.5 80.5 36 293 36 528h79.5c0-303.5-41-571.5-41.5-574zM784 304h-80v280c0 22-18 40-40 40h-304c-22 0-40-18-40-40v-280h-80v280c0 66 54 120 120 120h304c66 0 120-54 120-120v-280zM512 736c-61.5 0-112 50-112 112 0 61.5 50.5 112 112 112s112-50.5 112-112c0-62-50.5-112-112-112zM512 897.5c-27.5 0-49.5-22-49.5-49.5s22-49.5 49.5-49.5 49.5 22 49.5 49.5-22 49.5-49.5 49.5z" />
<glyph unicode="&#xe932;" glyph-name="woman" d="M496 376c0-31-25-56-56-56s-56 25-56 56 25 56 56 56 56-25 56-56zM704 376c0-31-25-56-56-56s-56 25-56 56 25 56 56 56 56-25 56-56zM930.5 816.5c150-170.5 129.5-474.5 27.5-736.5h-83.5c129.5 301 102.5 564.5-2.5 683.5-78.5 89.5-177 38.5-181 36.5l-19.5-10.5-19 11c-1 0.5-128.5 71-274 41-93.5-19-170.5-76.5-219.5-162.5-76-133-84.5-327-24.5-519h154c-18 31.5-33 66-43.5 103.5 20 29 41.5 56 61.5 79 23.5-156 129-281.5 237.5-281.5 109.5 0 216.5 129 238.5 287.5 3 22.5 4 44.5 3.5 66.5-82.5 74.5-140.5 165.5-166.5 211-154-41-275-130-408.5-299l-59 54.5c113.5 143.5 252 279.5 479.5 329.5l30.5 6.5 13.5-27.5c1-1.5 72.5-143 186-234 1-10.5 1.5-21 2-31 0-7.5 0.5-15 0.5-22.5-0.5-21.5-1.5-43-4.5-64-27-199-165.5-354.5-315.5-354.5-72 0-141.5 36.5-197.5 96h-268l-9 27c-77 225-69 453 21.5 611.5 61 106.5 155 176 271.5 200 141 29 264.5-18 310-39 61.5 24 172 34.5 258-63z" />
<glyph unicode="&#xe933;" glyph-name="female" d="M618 553l128.5-377h-109l-25.5-240h-200l-25.5 240h-109l128 377.5 54-90-70.5-207.5h69.5l25.5-240h56l25.5 240h69.5l-71 207.5zM261.5 331l-75.5 26.5 90.5 259c17 49 71 87.5 123 87.5h225c52 0 106-38.5 123-87l90-257.5-75.5-26.5-90 257.5c-6 17-29 33.5-47.5 33.5h-225c-18.5 0-41.5-16.5-47.5-33.5zM512 736c-61.5 0-112 50-112 112 0 61.5 50.5 112 112 112s112-50.5 112-112c0-62-50.5-112-112-112zM512 897.5c-27.5 0-49.5-22-49.5-49.5s22-49.5 49.5-49.5 49.5 22 49.5 49.5-22 49.5-49.5 49.5z" />
<glyph unicode="&#xe934;" glyph-name="raisedhand" d="M864 816h80v-440c0-122-53-232.5-145.5-302.5-64-48.5-141-73.5-223-73.5-38.5 0-78.5 5.5-118.5 16.5-186.5 51.5-321 230.5-344.5 272.5-21.5 38-22 84-2 120.5 17.5 32.5 49 52 86 54.5 33.5 1.5 62-13.5 87.5-26.5 24.5-13 46-24.5 70.5-22.5 21.5 2 29.5 28 29.5 50v447h80v-447c0-71-42.5-124.5-102.5-129.5-48-4-85.5 15.5-115 31.5-17.5 9-34 17.5-45 17-9.5-0.5-16.5-4.5-21-12.5-6.5-12.5-6-30 2-43.5 16.5-30 135-190 295.5-234.5 101.5-28 198.5-12.5 272 43.5 72.5 55 114 142 114 239v440zM624 912v-447h-80v447h80zM784 896v-432h-80v432h80z" />
<glyph unicode="&#xe935;" glyph-name="hand" d="M529.5 608h446.5v-80h-446.5c-71.5 0-124.5 42-129.5 102.5-4 48 15.5 85 31 114.5 9.5 17.5 18 34 17.5 45-0.5 9.5-5 16.5-13 21-12 6.5-29.5 6-43.5-2-29.5-16.5-190-135-234-296-28-101.5-13-198 43-271.5 55-72 142-113.5 239.5-113.5h439.5v-80h-439.5c-122.5 0-232.5 52.5-303 145-71 94-91.5 215.5-56.5 341.5 51 186.5 230.5 321 272 344.5 38 21.5 84.5 22 121 2 32-17.5 52-49 54-86.5 2-33.5-13-61.5-26.5-87-13-24.5-24-46-22-70.5 1.5-21.5 28-29 50-29zM528 368v80h448v-80h-448zM528 208v80h432v-80h-432z" />
<glyph unicode="&#xe936;" glyph-name="pointup" d="M912 380.5l-0.5-6c0-121.5-52.5-230.5-145-300.5-94-72-215-92-341-57.5-186 51.5-320.5 230-344 271.5-11 19.5-16.5 41.5-16.5 63.5 0 61.5 42 108.5 100.5 112 33.5 1.5 62-13.5 87-26.5 24.5-13 46-24.5 70.5-22.5 21.5 2 29 28 29 50v359.5c0 66 54 120 120 120s120-54 120-120v-158.5c0 0.5 6 0.5 10 1 17 2.5 40 5 71.5-4 31.5-9.5 54-27.5 73.5-43.5 8-6.5 15.5-12.5 23.5-18 4.5-3 13-5.5 22-8.5 28.5-8.5 71-22 97.5-78 19.5-42.5 22-108 22-134zM145 351.5c0-8.5 2-17 6-24.5 17-29.5 135.5-189 296-233 101.5-28 197.5-12.5 271.5 43.5 72 55 113.5 140.5 113.5 238v5c0 32-4 77-14.5 100-11.5 24-25.5 28.5-48.5 35.5-13.5 4.5-29 9-43.5 19-10.5 7-20 14.5-29 22-16.5 13.5-29.5 24-45.5 28.5s-25.5 3.5-39 2c-19.5-2.5-45.5-6-79 12.5l-21 11.5v212.5c0 22-18 40-40 40s-40-18-40-40v-359.5c0-71.5-42-124.5-102.5-129.5-48-4-85 15.5-114.5 31-17.5 9.5-33.5 18-45 17.5-24-1.5-25-27-25-32z" />
<glyph unicode="&#xe937;" glyph-name="pointupright" d="M488.5-16c-134.5 0-254 74.5-327 204.5-94.5 168.5-63 391-50 437 15 53 62.5 92 113 92 25.5 0 49.5-9.5 69.5-27.5 24.5-22 34-53 42-80.5 8.5-26.5 15.5-50 34-66 13.5-11.5 35.5-4.5 55 15 35.5 36 234.5 237 234.5 237l17 17c22.5 23 52.5 35.5 84.5 35.5s62-12.5 84.5-35.5c46-46.5 46-122.5 0-169l-111-112.5c2-2 5-4 8-6.5 13.5-10.5 31.5-25 47-54 16-28.5 19-57 21.5-82.5 1-10 2-20 4-29.5 1-5.5 5-13 9.5-21.5 13.5-26 34-65.5 13-124-18.5-51.5-76-108-82.5-114.5-73-73.5-167.5-114.5-266.5-114.5zM224.5 637.5c-13 0-30.5-12.5-36-33.5-9.5-33-39-231 42.5-376.5 58.5-104 152.5-164 257.5-164 77.5 0 152 33 210.5 92 20.5 19.5 54.5 58.5 63.5 84.5 9.5 25.5 2.5 38.5-8.5 60-7 12.5-14 27-17.5 44-2.5 12.5-3.5 24.5-4.5 36-2.5 21-4 38-12.5 53-7.5 14.5-15.5 20.5-26 28.5-15 12-36 28.5-46.5 65l-7 23 149 150c15.5 15.5 15.5 41.5 0 57-15 15-41 15-56 0l-16.5-17s-199.5-201.5-235-237c-28-28.5-62.5-44.5-96-44.5-25 0-48 8.5-67 25-36.5 31-49 71.5-58.5 103.5-5.5 19-11 37-19.5 44.5-5 4.5-10 6.5-16 6.5z" />
<glyph unicode="&#xe938;" glyph-name="pointright" d="M444.5 48l-6 0.5c-121.5 0-230.5 52.5-300.5 145-72 94-92 215-57.5 341 51.5 186 230 320.5 271.5 344 19.5 11 41.5 16.5 63.5 16.5 61.5 0 108.5-42 112-100.5 1.5-33.5-13.5-62-26.5-87-13-24.5-24.5-46-22.5-70.5 2-21.5 28-29 50-29h359.5c66 0 120-54 120-120s-54-120-120-120h-158.5c0.5 0 0.5-6 1-10 2.5-17 5-40-4-71.5-9.5-31.5-27.5-54-43.5-73.5-6.5-8-12.5-15.5-18-23.5-3-4.5-5.5-13-8.5-22-8.5-28.5-22-71-78-97.5-42.5-19.5-108-22-134-22zM415.5 815c-8.5 0-17-2-24.5-6-29.5-17-189-135.5-233-296-28-101.5-12.5-197.5 43.5-271.5 55-72 140.5-113.5 238-113.5h5c32 0 77 4 100 14.5 24 11.5 28.5 25.5 35.5 48.5 4.5 13.5 9 29 19 43.5 7 10.5 14.5 20 22 29 13.5 16.5 24 29.5 28.5 45.5s3.5 25.5 2 39c-2.5 19.5-6 45.5 12.5 79l11.5 21h212.5c22 0 40 18 40 40s-18 40-40 40h-359.5c-71.5 0-124.5 42-129.5 102.5-4 48 15.5 85 31 114.5 9.5 17.5 18 33.5 17.5 45-1.5 24-27 25-32 25z" />
<glyph unicode="&#xe939;" glyph-name="pointdownright" d="M48 471.5c0 134.5 74.5 254 204.5 327 168.5 94.5 391 63 437 50 53-15 92-62.5 92-113 0-25.5-9.5-49.5-27.5-69.5-22-24.5-53-34-80.5-42-26.5-8.5-50-15.5-66-34-11.5-13.5-4.5-35.5 15-55 36-35.5 237-234.5 237-234.5l17-17c23-22.5 35.5-52.5 35.5-84.5s-12.5-62-35.5-84.5c-46.5-46-122.5-46-169 0l-112.5 111c-2-2-4-5-6.5-8-10.5-13.5-25-31.5-54-47-28.5-16-57-19-82.5-21.5-10-1-20-2-29.5-4-5.5-1-13-5-21.5-9.5-26-13.5-65.5-34-124-13-51.5 18.5-108 76-114.5 82.5-73.5 73-114.5 167.5-114.5 266.5zM701.5 735.5c0 13-12.5 30.5-33.5 36-33 9.5-231 39-376.5-42.5-104-58.5-164-152.5-164-257.5 0-77.5 33-152 92-210.5 19.5-20.5 58.5-54.5 84.5-63.5 25.5-9.5 38.5-2.5 60 8.5 12.5 7 27 14 44 17.5 12.5 2.5 24.5 3.5 36 4.5 21 2.5 38 4 53 12.5 14.5 7.5 20.5 15.5 28.5 26 12 15 28.5 36 65 46.5l23 7 150-149c15.5-15.5 41.5-15.5 57 0 15 15 15 41 0 56l-17 16.5s-201.5 199.5-237 235c-28.5 28-44.5 62.5-44.5 96 0 25 8.5 48 25 67 31 36.5 71.5 49 103.5 58.5 19 5.5 37 11 44.5 19.5 4.5 5 6.5 10 6.5 16z" />
<glyph unicode="&#xe93a;" glyph-name="pointdown" d="M112 515.5l0.5 6c0 121.5 52.5 230.5 145 300.5 94 72 215 92 341 57.5 186-51.5 320.5-230 344-271.5 11-19.5 16.5-41.5 16.5-63.5 0-61.5-42-108.5-100.5-112-33.5-1.5-62 13.5-87 26.5-24.5 13-46 24.5-70.5 22.5-21.5-2-29-28-29-50v-359.5c0-66-54-120-120-120s-120 54-120 120v158.5c0-0.5-6-0.5-10-1-17-2.5-40-5-71.5 4-31.5 9.5-54 27.5-73.5 43.5-8 6.5-15.5 12.5-23.5 18-4.5 3-13 5.5-22 8.5-28.5 8.5-71 22-97.5 78-19.5 42.5-22 108-22 134zM879 544.5c0 8.5-2 17-6 24.5-17 29.5-135.5 189-296 233-101.5 28-197.5 12.5-271.5-43.5-72-55-113.5-140.5-113.5-238v-5c0-32 4-77 14.5-100 11.5-24 25.5-28.5 48.5-35.5 13.5-4.5 29-9 43.5-19 10.5-7 20-14.5 29-22 16.5-13.5 29.5-24 45.5-28.5s25.5-3.5 39-2c19.5 2.5 45.5 6 79-12.5l21-11.5v-212.5c0-22 18-40 40-40s40 18 40 40v359.5c0 71.5 42 124.5 102.5 129.5 48 4 85-15.5 114.5-31 17.5-9.5 33.5-18 45-17.5 24 1.5 25 27 25 32z" />
<glyph unicode="&#xe93b;" glyph-name="pointdownleft" d="M861.5 205c-6.5-6.5-63-64-114.5-82.5-58.5-21-98-0.5-124 13-8.5 4.5-16 8.5-21.5 9.5-9.5 2-19.5 3-29.5 4-25.5 2.5-54 5.5-82.5 21.5-29 15.5-43.5 33.5-54 47-2.5 3-4.5 6-6.5 8l-112.5-111c-46.5-46-122.5-46-169 0-23 22.5-35.5 52.5-35.5 84.5s12.5 62 35.5 84.5l17 17s201 199 237 234.5c19.5 19.5 26.5 41.5 15 55-16 18.5-39.5 25.5-66 34-27.5 8-58.5 17.5-80.5 42-18 20-27.5 44-27.5 69.5 0 50.5 39 98 92 113 46 13 268.5 44.5 437-50 130-73 204.5-192.5 204.5-327v0c0-99-41-193.5-114.5-266.5zM329 719.5c7.5-8.5 25.5-14 44.5-19.5 32-9.5 72.5-22 103.5-58.5 16.5-19 25-42 25-67 0-33.5-16-68-44.5-96-35.5-35.5-237-235-237-235l-17-16.5c-15-15-15-41 0-56 15.5-15.5 41.5-15.5 57 0l150 149 23-7c36.5-10.5 53-31.5 65-46.5 8-10.5 14-18.5 28.5-26 15-8.5 32-10 53-12.5 11.5-1 23.5-2 36-4.5 17-3.5 31.5-10.5 44-17.5 21.5-11 34.5-18 60-8.5 26 9 65 43 84.5 63.5 59 58.5 92 133 92 210.5 0 105-60 199-164 257.5-145.5 81.5-343.5 52-376.5 42.5-21-5.5-33.5-23-33.5-36 0-6 2-11 6.5-16z" />
<glyph unicode="&#xe93c;" glyph-name="pointleft" d="M445.5 70c-56 26.5-69.5 69-78 97.5-3 9-5.5 17.5-8.5 22-5.5 8-11.5 15.5-18 23.5-16 19.5-34 42-43.5 73.5-9 31.5-6.5 54.5-4 71.5 0.5 4 0.5 10 1 10h-158.5c-66 0-120 54-120 120s54 120 120 120h359.5c22 0 48 7.5 50 29 2 24.5-9.5 46-22.5 70.5-13 25-28 53.5-26.5 87 3.5 58.5 50.5 100.5 112 100.5 22 0 44-5.5 63.5-16.5 41.5-23.5 220-158 271.5-344 34.5-126 14.5-247-57.5-341-70-92.5-179-145-300.5-145v0l-6-0.5c-26 0-91.5 2.5-134 22zM576.5 790c-0.5-11.5 8-27.5 17.5-45 15.5-29.5 35-66.5 31-114.5-5-60.5-58-102.5-129.5-102.5h-359.5c-22 0-40-18-40-40s18-40 40-40h212.5l11.5-21c18.5-33.5 15-59.5 12.5-79-1.5-13.5-2.5-23 2-39s15-29 28.5-45.5c7.5-9 15-18.5 22-29 10-14.5 14.5-30 19-43.5 7-23 11.5-37 35.5-48.5 23-10.5 68-14.5 100-14.5h5c97.5 0 183 41.5 238 113.5 56 74 71.5 170 43.5 271.5-44 160.5-203.5 279-233 296-7.5 4-16 6-24.5 6-5 0-30.5-1-32-25z" />
<glyph unicode="&#xe93d;" glyph-name="pointupleft" d="M269 98.5c-6.5 6.5-64 63-82.5 114.5-21 58.5-0.5 98 13 124 4.5 8.5 8.5 16 9.5 21.5 2 9.5 3 19.5 4 29.5 2.5 25.5 5.5 54 21.5 82.5 15.5 29 33.5 43.5 47 54 3 2.5 6 4.5 8 6.5l-111 112.5c-46 46.5-46 122.5 0 169 22.5 23 52.5 35.5 84.5 35.5s62-12.5 84.5-35.5l17-17s199-201 234.5-237c19.5-19.5 41.5-26.5 55-15 18.5 16 25.5 39.5 34 66 8 27.5 17.5 58.5 42 80.5 20 18 44 27.5 69.5 27.5 50.5 0 98-39 113-92 13-46 44.5-268.5-50-437-73-130-192.5-204.5-327-204.5v0c-99 0-193.5 41-266.5 114.5zM783.5 631c-8.5-7.5-14-25.5-19.5-44.5-9.5-32-22-72.5-58.5-103.5-19-16.5-42-25-67-25-33.5 0-68 16-96 44.5-35.5 35.5-235 237-235 237l-16.5 17c-15 15-41 15-56 0-15.5-15.5-15.5-41.5 0-57l149-150-7-23c-10.5-36.5-31.5-53-46.5-65-10.5-8-18.5-14-26-28.5-8.5-15-10-32-12.5-53-1-11.5-2-23.5-4.5-36-3.5-17-10.5-31.5-17.5-44-11-21.5-18-34.5-8.5-60 9-26 43-65 63.5-84.5 58.5-59 133-92 210.5-92 105 0 199 60 257.5 164 81.5 145.5 52 343.5 42.5 376.5-5.5 21-23 33.5-36 33.5-6 0-11-2-16-6.5z" />
<glyph unicode="&#xe93e;" glyph-name="cart" d="M288 112c44 0 80-36 80-80s-36-80-80-80-80 36-80 80 36 80 80 80zM800 112c44 0 80-36 80-80s-36-80-80-80-80 36-80 80 36 80 80 80zM281.5 784h662.5l-3.5-43c-0.5-9-16.5-222-23.5-267-9.5-64.5-64.5-112.5-139.5-123-47-6.5-293-35-393.5-47v80.5c105.5 13 338 39.5 383 46 39.5 5 66.5 26.5 71 55.5 4.5 28 13.5 138.5 19.5 218h-569.5v-415.5c0-29.5 20.5-48.5 53-48.5h539v-80h-539c-76 0-133 55-133 128.5v456.5c0 29-27.5 55-59 55h-149v80h149c61.5 0 115-41 132.5-96z" />
<glyph unicode="&#xe93f;" glyph-name="creditcard" d="M824 768c75 0 136-61 136-136v-352c0-75-61-136-136-136h-624c-75 0-136 61-136 136v352c0 75 61 136 136 136h624zM200 688c-31 0-56-25-56-56v-56h736v56c0 31-25 56-56 56h-624zM824 224c31 0 56 25 56 56v216h-736v-216c0-31 25-56 56-56h624zM240 320v80h144v-80h-144z" />
<glyph unicode="&#xe940;" glyph-name="calculator" d="M776 912c57.5 0 104-46.5 104-104v-688c0-57.5-46.5-104-104-104h-528c-57.5 0-104 46.5-104 104v688c0 57.5 46.5 104 104 104h528zM800 120v688c0 13-11 24-24 24h-528c-13 0-24-11-24-24v-688c0-13 11-24 24-24h528c13 0 24 11 24 24zM320 656v80h384v-80h-384zM368 288c26.5 0 48-21.5 48-48s-21.5-48-48-48-48 21.5-48 48 21.5 48 48 48zM512 288c26.5 0 48-21.5 48-48s-21.5-48-48-48-48 21.5-48 48 21.5 48 48 48zM656 288c26.5 0 48-21.5 48-48s-21.5-48-48-48-48 21.5-48 48 21.5 48 48 48zM368 432c26.5 0 48-21.5 48-48s-21.5-48-48-48-48 21.5-48 48 21.5 48 48 48zM512 432c26.5 0 48-21.5 48-48s-21.5-48-48-48-48 21.5-48 48 21.5 48 48 48zM656 432c26.5 0 48-21.5 48-48s-21.5-48-48-48-48 21.5-48 48 21.5 48 48 48zM368 576c26.5 0 48-21.5 48-48s-21.5-48-48-48-48 21.5-48 48 21.5 48 48 48zM512 576c26.5 0 48-21.5 48-48s-21.5-48-48-48-48 21.5-48 48 21.5 48 48 48zM656 576c26.5 0 48-21.5 48-48s-21.5-48-48-48-48 21.5-48 48 21.5 48 48 48z" />
<glyph unicode="&#xe941;" glyph-name="barchart" d="M32-16v624h256v-624h-256zM112 528v-464h96v464h-96zM736 496h256v-512h-256v512zM912 64v352h-96v-352h96zM384-16v848h256v-848h-256zM464 752v-688h96v688h-96z" />
<glyph unicode="&#xe942;" glyph-name="piechart" d="M568 768c207.5 0 376-168.5 376-376s-168.5-376-376-376-376 168.5-376 376v8h80v-8c0-163.5 132.5-296 296-296s296 132.5 296 296-132.5 296-296 296h-8v80h8zM456 880c13.5 0 27-1 40-2v-414h-414c-1 13-2 26.5-2 40s1 27 2 40c19 175.5 158.5 315 334 334 13 1 26.5 2 40 2zM163 544h253v253c-131.5-18-235-121.5-253-253z" />
<glyph unicode="&#xe943;" glyph-name="box" d="M793.5 896l166.5-227v-589h-880v589l166.5 227h547zM880 160v432h-256v80h234.5l-105.5 144h-193v-224h-80v224h-193l-105.5-144h234.5v-80h-256v-432h720z" />
<glyph unicode="&#xe944;" glyph-name="home" d="M512 896l457.5-454-56-57-401.5 398-401.5-398-56 57zM768 192v247l80-79.5v-247.5h-272v256h-128v-256h-272v247.5l80 79.5v-247h112v256h288v-256h112z" />
<glyph unicode="&#xe945;" glyph-name="globe" d="M797 717c74-74 115-172.5 115-277s-41-203-115-277-172.5-115-277-115-203 41-277 115-115 172.5-115 277 41 203 115 277 172 115 277 115c104.5 0 203-41 277-115zM520 755h-1c-15.5-1-40.5-22-64-79-21-53-34.5-121.5-38-196h206c-3.5 74.5-16.5 143-38 196-1 2.5-2.5 5-3.5 7 37-9 71-26.5 100.5-51 11.5-46.5 18.5-98 21-152h129.5c-9 69-39.5 133-89.5 183-59.5 59.5-139 92-223 92zM520 125c15 0 41 20.5 65 79 21.5 53 34.5 121.5 38 196h-206c3.5-74.5 17-143 38-196 24-58.5 50-79 65-79v0zM297 663c-50-50-80.5-114-89.5-183h129.5c3.5 84 19 162.5 44 224 3.5 8.5 7 16.5 11 24-35-16-67-37.5-95-65zM207.5 400c9-69 39.5-133 89.5-183 28-27.5 60-49.5 95-64.5-4 7-7.5 15-11 23.5-25 61.5-40.5 140-44 224h-129.5zM743 217c50 50 80.5 114 89.5 183h-129.5c-3.5-84-19-162.5-44-224-3.5-8.5-7-16.5-11-23.5 35 15 67 37 95 64.5z" />
<glyph unicode="&#xe946;" glyph-name="navigate" d="M443.5 25l-327.5 764 764-327.5-295.5-141.5zM268.5 636.5l179-417.5 77 161 162 77.5z" />
<glyph unicode="&#xe947;" glyph-name="compass" d="M513 832c211.5 0 384-172 384-384 0-102.5-40-199-112.5-271.5s-169-112.5-271.5-112.5c-211.5 0-384 172-384 384s172 384 384 384zM730 231c58 58 90 135 90 217 0 169.5-138 307-307 307-169.5 0-307-137.5-307-307s137.5-307 307-307c82 0 159 32 217 90zM456 504.5l189 104.5 28.5-28-105-189.5-189-104.5-28.5 28zM513 411c20.5 0 37 16.5 37 37s-16.5 37-37 37-37-16.5-37-37 16.5-37 37-37z" />
<glyph unicode="&#xe948;" glyph-name="signpost" d="M871 560l168.5-178.5-168.5-173.5h-375v-176h-80v176h-112v352h567zM837 288l91.5 94.5-92 97.5h-452.5v-192h453zM111.5 654.5l91.5-94.5h37v-80h-71l-168.5 173.5 168.5 178.5h247v96h80v-96h240v-208h-80v128h-452.5z" />
<glyph unicode="&#xe949;" glyph-name="location" d="M504 704c57.5 0 104-46.5 104-104s-46.5-104-104-104-104 46.5-104 104 46.5 104 104 104zM504 896c181 0 328-147.5 328-329 0-145-75-255-151.5-355.5-41-53.5-145-187-145-187l-31.5-40.5-31.5 40.5s-104 133.5-145 187c-76.5 100.5-151.5 210.5-151.5 355.5 0 181.5 147 329 328 329zM618 258.5c86.5 113 136.5 199.5 136.5 309.5 0 138.5-112.5 251.5-250.5 251.5s-250.5-113-250.5-251.5c0-110 50-196.5 136.5-309.5 26.5-35 79.5-103.5 114-148 34.5 44.5 87.5 113 114 148z" />
<glyph unicode="&#xe94a;" glyph-name="floppydisk" d="M797 832l131-130.5v-685.5h-832v816h80v-736h672v572l-80 79.5v-315.5h-512v400h541zM688 512v240h-352v-240h208v176h80v-176h64z" />
<glyph unicode="&#xe94b;" glyph-name="database" d="M776 896c57.5 0 104-46.5 104-104v-640c0-57.5-46.5-104-104-104h-560c-57.5 0-104 46.5-104 104v640c0 57.5 46.5 104 104 104h560zM776 128c13 0 24 11 24 24v152h-544v80h544v176h-544v80h544v152c0 13-11 24-24 24h-560c-13 0-24-11-24-24v-640c0-13 11-24 24-24h560zM688 768v-80h-80v80h80zM688 512v-80h-80v80h80zM608 176v80h80v-80h-80z" />
<glyph unicode="&#xe94c;" glyph-name="hdd" d="M656 192v80h80v-80h-80zM919 338.5c6-15.5 9-26 9-42.5v-128c0-57.5-46.5-104-104-104h-640c-57.5 0-104 46.5-104 104v128s3 27 8.5 41.5c24.5 68.5 98 269 118 304 31 53 73 78.5 129.5 78.5h336c55.5 0 96.5-24.5 129-77.5 18-30 109.5-280 118-304zM848 168v128c0 3-0.5 6-2 9v0.5c-3.5 8.5-12.5 14.5-22 14.5h-590c8 20.5 19.5 51 30.5 80h547c-37 99.5-70.5 187-79 200.5-20 33-37.5 39.5-60.5 39.5h-336c-23.5 0-41.5-6.5-60-38.5-7-11.5-83.5-208.5-110-282-5.5-14.5-6-25.5-6-39v-112.5c0-13 11-24 24-24h640c13 0 24 11 24 24z" />
<glyph unicode="&#xe94d;" glyph-name="microchip" d="M80 728c0 57.5 46.5 104 104 104h24v-80h-24c-13 0-24-11-24-24v-560c0-13 11-24 24-24h24v-80h-24c-57.5 0-104 46.5-104 104v560zM432 752h-160v160h80v-80h80v-80zM656 752h-160v160h80v-80h80v-80zM272 144h160v-80h-80v-80h-80v160zM824 832c57.5 0 104-46.5 104-104v-560c0-57.5-46.5-104-104-104h-24v-80h-80v160h104c13 0 24 11 24 24v560c0 13-11 24-24 24h-104v160h80v-80h24zM496 144h160v-80h-80v-80h-80v160zM736 640v-384h-464v384h464zM656 336v224h-304v-224h304z" />
<glyph unicode="&#xe94e;" glyph-name="music" d="M288 740.5l528 77.5v-552c0-111.5-64.5-186.5-159.5-186.5-94 0-144.5 71.5-144.5 139.5 0 76.5 52 136.5 136 156l24 5v-81.5l-7.5-1.5c-26-6-72.5-25-72.5-78 0-22 14-59.5 64.5-59.5 49.5 0 79.5 39.5 79.5 106.5v244l-368-54v-269.5c0-111-65-186-160-186-94 0-144 71.5-144 139.5 0 76.5 52 136.5 135.5 156l24.5 5v-81.5l-7.5-1.5c-26.5-6.5-73.5-25-73.5-78 0-22 14.5-59.5 65-59.5 49.5 0 80 39.5 80 106v554zM736 590.5v135l-368-54v-134.5z" />
<glyph unicode="&#xe94f;" glyph-name="headphones" d="M288 296c0-66 54-120 120-120h472v-80h-472c-110.5 0-200 90-200 200v156.5c-82.5 18.5-144 92-144 179.5 0 101.5 82.5 184 184 184 49 0 95.5-19 130-54 35-34.5 54-81 54-130s-19-95.5-54-130c-25-25-56-42-90-49.5v-156.5zM141 632c0-59 48-107 107-107 28.5 0 55.5 11 76 31 20 20.5 31 47.5 31 76s-11 55.5-31 76c-20.5 20-47.5 31-76 31-59 0-107-48-107-107zM656 452.5c-82.5 18.5-144 92-144 179.5 0 101.5 82.5 184 184 184 49 0 95.5-19 130-54 35-34.5 54-81 54-130s-19-95.5-54-130c-25-25-56-42-90-49.5v-212.5h-80v212.5zM696 739c-59 0-107-48-107-107s48-107 107-107c28.5 0 55.5 11 76 31 20 20.5 31 47.5 31 76s-11 55.5-31 76c-20.5 20-47.5 31-76 31z" />
<glyph unicode="&#xe950;" glyph-name="discdrive" d="M931.5 569.5c8-15 12.5-31.5 12.5-49.5v-176c0-49-34-90.5-80-101v277c0 13.5-10.5 24-24 24h-672c-13.5 0-24-10.5-24-24v-277c-46 10.5-80 52-80 101v176c0 18 4.5 35.5 13 50.5v0c4 8.5 101 209 125.5 249.5 31 50.5 74 76 130.5 76h342.5c56 0 97.5-24.5 130.5-75.5 20.5-31.5 115.5-228.5 126-251h-0.5zM192 624h624.5c-34 69-68.5 139-78 153-20.5 32-38.5 39-63 39h-342.5c-28.5 0-45.5-11-62.5-38-12-19.5-47-91-78.5-154zM560 281c1-22-24-41-56-41s-57 19-56 41 26 39 56 39 55-17 56-39zM208 400v80h592v-80h-67.5c33-29 56-64 64-104 26-127-103-248-292.5-248s-318.5 121-292.5 248c2.5 14 7.5 27 13.5 40h83.5c-11-15-18.5-31-21.5-48.5-13.5-84.5 83-161 217-161s230.5 76.5 217 161c-8 49.5-53.5 90.5-115 112.5h-398z" />
<glyph unicode="&#xe951;" glyph-name="volume" d="M704 81.5l-211 177.5-157 24v342l158 15.5 210 176v-735zM416 351.5l111.5-17 96.5-81.5v392l-97.5-82-110.5-10.5v-201z" />
<glyph unicode="&#xe952;" glyph-name="lowvolume" d="M224 625l158 15.5 210 176v-735l-211 177.5-157 24v342zM512 645l-97.5-82-110.5-10.5v-201l111.5-17 96.5-81.5v392zM729.5 695.5c44-73 69-158.5 69-250 0-89-24-173-66-245l-65.5 47c32.5 58.5 51.5 126 51.5 198 0 74-20 143.5-54.5 203.5z" />
<glyph unicode="&#xe953;" glyph-name="mediumvolume" d="M144 625l158 15.5 210 176v-735l-211 177.5-157 24v342zM432 645l-97.5-82-110.5-10.5v-201l111.5-17 96.5-81.5v392zM649.5 695.5c44-73 69-158.5 69-250 0-89-24-173-66.5-245l-65 47c32.5 58.5 51.5 126 51.5 198 0 74-20 143.5-54.5 203.5zM767.5 779.5c60.5-97 95.5-211.5 95.5-334 0-120.5-34-233-92.5-329l-65.5 46.5c49.5 83 78 179.5 78 282.5 0 105.5-29.5 204-81 287.5z" />
<glyph unicode="&#xe954;" glyph-name="highvolume" d="M96 625l158 15.5 210 176v-735l-211 177.5-157 24v342zM384 645l-97.5-82-110.5-10.5v-201l111.5-17 96.5-81.5v392zM601.5 695.5c44-73 69-158.5 69-250 0-89-24-173-66-245l-65.5 47c32.5 58.5 51.5 126 51.5 198 0 74-20 143.5-54.5 203.5zM719.5 779.5c60.5-97 95.5-211.5 95.5-334 0-120.5-34-233-92.5-329l-65.5 46.5c49.5 83 78 179.5 78 282.5 0 105.5-29.5 204-81 287.5zM837 864.5c77.5-121 123-264.5 123-419 0-152-44-294-120-414l-65 46.5c66.5 106.5 105 233 105 367.5 0 137-40 265-108 372.5z" />
<glyph unicode="&#xe955;" glyph-name="airplay" d="M112 784h784v-576h-174l-56 80h150v416h-624v-416h150l-56.5-80h-173.5v576zM251 48l253 359 252.5-359h-505.5zM405.5 128h197l-98.5 140z" />
<glyph unicode="&#xe956;" glyph-name="camera" d="M822.5 688c67 0 121.5-54.5 121.5-122.5v-329c0-68-54.5-124.5-121.5-124.5h-124.5c28.5 16 53 48 72 80h52.5c23 0 41.5 20.5 41.5 44.5v329c0 24-18.5 42.5-41.5 42.5h-119l-55.5 96h-269l-56.5-96h-121c-23 0-41.5-18.5-41.5-42.5v-329c0-24 18.5-44.5 41.5-44.5h52.5c19-32 43.5-64 72-80h-124.5c-67 0-121.5 56.5-121.5 124.5v329c0 68 54.5 122.5 121.5 122.5h75.5l56.5 96h360l56-96h73zM512 112c132.5 0 240 107.5 240 240s-107.5 240-240 240-240-107.5-240-240 107.5-240 240-240zM512 515c90 0 163-73 163-163s-73-163-163-163-163 73-163 163 73 163 163 163z" />
<glyph unicode="&#xe957;" glyph-name="picture" d="M944 48h-832v640h832v-640zM192 128h672v480h-672v-480zM381.5 192h-97.5l143.5 192 65-42 107.5 164.5 176-314.5h-89.5l-91.5 164-79.5-122-69 45zM400 472c0-40-32-72-72-72-39.5 0-72 32-72 72s32.5 72 72 72c40 0 72-32 72-72z" />
<glyph unicode="&#xe958;" glyph-name="video" d="M942.5 560c27.5 0 49.5-22 49.5-50.5v-283c0-28.5-22-50.5-49.5-50.5-7 0-14 1.5-20.5 4l-106 43.5v-23.5c0-66.5-53.5-120-120-120h-512c-66 0-120 53.5-120 120v320c0 66 54 120 120 120h301.5l27-80h-328.5c-22 0-40-18-40-40v-320c0-22 18-40 40-40h512c22 0 40 18 40 40v320c0 22-18 40-40 40h-99l-54 160h-367v80h395.5c17 0 32.5-11 38-27l45-133h41.5c66.5 0 120-54 120-120v-7.5l106 43.5c6.5 2.5 13.5 4 20.5 4zM912 270v196l-96-39.5v-117zM624 256h-368v80h368v-80z" />
<glyph unicode="&#xe959;" glyph-name="webcam" d="M696 190l67.5-110h84.5v-80h-640v80h81l64 105c-114.5 60.5-193 180.5-193 319 0 198.5 161.5 360 360 360s360-161.5 360-360c0-134.5-74.5-252-184-314zM237 504c0-156 127-283 283-283s283 127 283 283-127 283-283 283-283-127-283-283zM429 155.5l-46-75.5h286.5l-48 78.5c-32-9.5-66.5-14.5-101.5-14.5-31.5 0-62 4-91 11.5zM672 504c0-84-68-152-152-152s-152 68-152 152 68 152 152 152 152-68 152-152zM444.5 504c0-41.5 34-75.5 75.5-75.5s75.5 34 75.5 75.5-34 75.5-75.5 75.5-75.5-34-75.5-75.5z" />
<glyph unicode="&#xe95a;" glyph-name="film" d="M608 240v80h64v-80h-64zM736 240v80h64v-80h-64zM672 672v-80h-64v80h64zM800 672v-80h-64v80h64zM864 240v432h80v-432h-80zM538.5 816h405.5v-80h-480v44.5c0 19.5-16 35.5-35.5 35.5h-249c-19.5 0-35.5-16-35.5-35.5v-649c0-19.5 16-35.5 35.5-35.5h249c19.5 0 35.5 16 35.5 35.5v540.5h80v-496h400v-80h-405.5c-15-46.5-58.5-80-110-80h-249c-64 0-115.5 51.5-115.5 115.5v649c0 64 51.5 115.5 115.5 115.5h249c51.5 0 95-33.5 110-80z" />
<glyph unicode="&#xe95b;" glyph-name="playvideo" d="M208 896c101 0 184-78.5 191.5-178 0.5-4 0.5-8 0.5-11.5v-426.5c0-57.5-46.5-104-104-104h-176c-57.5 0-104 46.5-104 104v426.5c0 1 0.5 2 0.5 3 2.5 103 87.5 186.5 191.5 186.5zM320 280v268.5c-31.5-23-70-36.5-112-36.5s-80.5 13.5-112 36.5v-268.5c0-13 11-24 24-24h176c13 0 24 11 24 24zM208 589.5c63 0 114.5 51.5 114.5 114.5s-51.5 114.5-114.5 114.5-114-51.5-114-114.5 51-114.5 114-114.5zM888 736c57.5 0 104-46.5 104-104v-352c0-57.5-46.5-104-104-104h-336c-57.5 0-104 46.5-104 104v72h80v-72c0-13 11-24 24-24h336c13 0 24 11 24 24v352c0 13-11 24-24 24h-336c-13 0-24-11-24-24v-72h-80v72c0 57.5 46.5 104 104 104h336zM656 352v208l144-104z" />
<glyph unicode="&#xe95c;" glyph-name="videogame" d="M928 400h-736v-344c0-13.5 11-24 24-24h608c13 0 24 10.5 24 24v280h80v-280c0-57.5-46.5-104-104-104h-608c-57.5 0-104 46.5-104 104v424h736v344c0 13-11 24-24 24h-608c-13 0-24-11-24-24v-280h-80v280c0 57.5 46.5 104 104 104h608c57.5 0 104-46.5 104-104v-424zM384 128h-64v64h-64v64h64v64h64v-64h64v-64h-64v-64zM584 272c22 0 40-18 40-40s-18-40-40-40-40 18-40 40 18 40 40 40zM744 192c-22 0-40 18-40 40s18 40 40 40 40-18 40-40-18-40-40-40zM664 112c-22 0-40 18-40 40s18 40 40 40 40-18 40-40-18-40-40-40zM664 352c22 0 40-18 40-40s-18-40-40-40-40 18-40 40 18 40 40 40zM256 784h528v-240h-528v240zM704 624v80h-368v-80h368z" />
<glyph unicode="&#xe95d;" glyph-name="play" d="M176 87v722l721.5-361zM256 679.5v-463l462.5 231.5z" />
<glyph unicode="&#xe95e;" glyph-name="pause" d="M448 128h-240v640h240v-640zM288 208h80v480h-80v-480zM816 128h-240v640h240v-640zM656 208h80v480h-80v-480z" />
<glyph unicode="&#xe95f;" glyph-name="stop" d="M864 96h-704v704h704v-704zM240 176h544v544h-544v-544z" />
<glyph unicode="&#xe960;" glyph-name="record" d="M512 64c-102.5 0-199 40-271.5 112.5s-112.5 169-112.5 271.5 40 199 112.5 271.5 169 112.5 271.5 112.5 199-40 271.5-112.5 112.5-169 112.5-271.5-40-199-112.5-271.5-169-112.5-271.5-112.5v0zM512 755c-82 0-159-32-217-90s-90-135-90-217 32-159 90-217 135-90 217-90v0c82 0 159 32 217 90s90 135 90 217-32 159-90 217-135 90-217 90z" />
<glyph unicode="&#xe961;" glyph-name="rewind" d="M779.5 131.5l-316 316.5 316 316.5 57-57-260-259.5 260-259.5zM476 131.5l-316.5 316.5 316.5 316.5 56.5-57-260-259.5 260-259.5z" />
<glyph unicode="&#xe962;" glyph-name="fastforward" d="M244.5 131.5l-57 57 260 259.5-260 259.5 57 57 316-316.5zM548 131.5l-56.5 57 260 259.5-260 259.5 56.5 57 316.5-316.5z" />
<glyph unicode="&#xe963;" glyph-name="skipback" d="M448 128h-240v640h240v-640zM288 208h80v480h-80v-480zM796 131.5l-316.5 316.5 316.5 316.5 56.5-57-260-259.5 260-259.5z" />
<glyph unicode="&#xe964;" glyph-name="skipforward" d="M816 128h-240v640h240v-640zM656 208h80v480h-80v-480zM228 131.5l-56.5 57 260 259.5-260 259.5 56.5 57 316.5-316.5z" />
<glyph unicode="&#xe965;" glyph-name="eject" d="M832 144h-640v240h640v-240zM272 224h480v80h-480v-80zM771.5 459.5l-259.5 260-259.5-260-57 57 316.5 316 316.5-316z" />
<glyph unicode="&#xe966;" glyph-name="repeat" d="M176 456c0-33.5 10-65 27-91.5l-57-57c-31.5 41.5-50 93-50 148.5 0 137 111.5 248 248 248h354l-107.5 107 57 56.5 203.5-203.5-203.5-203.5-57 56.5 107.5 107h-354c-92.5 0-168-75.5-168-168zM894 604.5c31.5-41.5 50-93 50-148.5 0-136.5-111.5-248-248-248h-354l107.5-107-56.5-57-204 204 204 203.5 56.5-56.5-107-107h353.5c92.5 0 168 75.5 168 168 0 33.5-10 65-27 91z" />
<glyph unicode="&#xe967;" glyph-name="replay" d="M552 832c216 0 392-176 392-392s-176-392-392-392c-202.5 0-369.5 154.5-390 352h81c20-153 150.5-272 309-272 172 0 312 140 312 312s-140 312-312 312c-89 0-160.5-32-232.5-103.5-25-25.5-66.5-67.5-103.5-104.5h152v-80h-288v288h80v-151c36.5 37 78 78.5 103 104 87 86.5 178.5 127 289 127z" />
<glyph unicode="&#xe968;" glyph-name="shuffle" d="M757 314.5l57 56.5 202.5-203.5-202.5-203.5-57 56.5 107.5 107.5h-154.5c-75.5 0-135 37-175.5 110-14.5 26-48.5 82-74.5 125-26.5-43-60-99-75-125-40.5-73-99.5-110-175.5-110h-177.5v80h177.5c46.5 0 79 21 106 69 25.5 46.5 107 178 110.5 183.5v0c1.5 2.5 83.5 136 108.5 181 40.5 73 100 110.5 175.5 110.5h153l-106 106.5 57 56.5 202.5-203.5-202.5-203.5-57 56 107.5 108h-154.5c-46.5 0-79-21.5-105.5-69.5-20-36-73-123-97.5-163 24.5-40 77.5-126.5 97.5-162.5 26.5-48 59-69 105.5-69h153zM315.5 602.5c-27 48-59.5 69.5-106 69.5h-177.5v80h177.5c76 0 135-37.5 175.5-110.5 7.5-13 19.5-33 33-55.5-14.5-24.5-32-53-47-77.5-21.5 36-44 73.5-55.5 94z" />
<glyph unicode="&#xe969;" glyph-name="index" d="M821 720l123-359v-329h-880v329l123 359h84.5l-120.5-352h272.5l4.5-35c1.5-9.5 12.5-61 76-61 67 0 75.5 59 76 61l4.5 35h272.5l-120.5 352h84.5zM144 112h720v176h-214c-18-44.5-61-96-146-96s-128 51.5-146 96h-214v-176zM256 432v80h496v-80h-496zM704 656v-80h-400v80h400zM656 800v-80h-304v80h304z" />
<glyph unicode="&#xe96a;" glyph-name="storagebox" d="M864 128v240h80v-320h-832v320h80v-240h672zM793.5 896l166.5-227v-237h-240v-40c0-57.5-46.5-104-104-104h-176c-57.5 0-104 46.5-104 104v40h-256v237l166.5 227h547zM287 816l-105.5-144h677l-105.5 144h-466zM640 392v40h-224v-40c0-13 11-24 24-24h176c13 0 24 11 24 24zM880 512v80h-720v-80h720z" />
<glyph unicode="&#xe96b;" glyph-name="book" d="M688-23.5c0 0-432 150.5-456 161.5-33.5 15-72 40-72 100.5v527.5c0 8.5 0.5 16.5 2 24.5 10.5 54.5 57 89.5 119 89.5h583v-736h-80v656h-503c-14.5 0-33-3.5-39-18.5-7-17 2.5-36 19-42.5 57-22.5 398-151.5 401.5-153l25.5-9.5v-600zM240 661.5v-423c0-11.5 0-16.5 24.5-28 16-6.5 199.5-72 343.5-121.5v432c-80 29.5-303.5 115-368 140.5z" />
<glyph unicode="&#xe96c;" glyph-name="notebook" d="M416 672h336v-288h-336v288zM672 464v128h-176v-128h176zM192 320v64h-96v80h240v-80h-64v-64h-80zM192 528v64h-96v80h240v-80h-64v-64h-80zM192 880h768v-848h-768v144h-96v80h240v-80h-64v-64h608v688h-608v-64h-80v144z" />
<glyph unicode="&#xe96d;" glyph-name="newspaper" d="M336 832h640v-584c0-101.5-82.5-184-184-184h-560c-101.5 0-184 82.5-184 184v472c0 61.5 50 112 112 112s112-50.5 112-112v-400h-80v400c0 17.5-14.5 32-32 32s-32-14.5-32-32v-472c0-57.5 46.5-104 104-104s104 46.5 104 104v584zM896 248v504h-480v-504c0-38.5-12-74.5-32.5-104h408.5c57.5 0 104 46.5 104 104zM832 320v-80h-352v80h352zM832 688v-304h-352v304h352zM560 608v-144h192v144h-192z" />
<glyph unicode="&#xe96e;" glyph-name="gridlines" d="M896 576h-176v-256h176v-80h-176v-176h-80v176h-256v-176h-80v176h-176v80h176v256h-176v80h176v176h80v-176h256v176h80v-176h176v-80zM640 320v256h-256v-256h256z" />
<glyph unicode="&#xe96f;" glyph-name="rows" d="M80 832h848v-752h-848v752zM848 752h-688v-144h688v144zM848 528h-688v-144h688v144zM160 160h688v144h-688v-144z" />
<glyph unicode="&#xe970;" glyph-name="columns" d="M80 832h848v-752h-848v752zM592 752h-176v-592h176v592zM160 752v-592h176v592h-176zM848 160v592h-176v-592h176z" />
<glyph unicode="&#xe971;" glyph-name="thumbnails" d="M128 832h752v-752h-752v752zM800 496v256h-256v-256h256zM464 752h-256v-256h256v256zM208 416v-256h256v256h-256zM544 160h256v256h-256v-256z" />
<glyph unicode="&#xe972;" glyph-name="mouse" d="M816 944h80v-76c0-64-54-116-120-116h-208.5c-21.5 0-39.5-17.5-39.5-39.5v-56.5c211.5-7.5 239.5-92.5 239.5-167 0-65.5 0.5-157.5 0.5-157.5v-104c0-81.5-23-151.5-66.5-202.5-49-58.5-123-89-213.5-89s-164.5 31-214 89c-43 51-66 121.5-66 203v104.5c0 0.5 0.5 91 0.5 156.5 0 136.5 122.5 163.5 239.5 167v56.5c0 66 53.5 119.5 119.5 119.5h208.5c21.5 0 40 16.5 40 36v76zM688 489c0 33-0.5 83-160 88.5v-241.5h-80v241.5c-159.5-5.5-160-55.5-160-88.5v-264c0-62.5 16.5-115 47.5-151.5 34-40.5 85.5-60.5 152.5-60.5 67.5 0 118.5 20 152.5 60.5 31 36 47.5 88.5 47.5 151v264.5z" />
<glyph unicode="&#xe973;" glyph-name="usb" d="M432 640v80h80v-80h-80zM672 720v-80h-80v80h80zM816 512h80v-424c0-57.5-46.5-104-104-104h-480c-57.5 0-104 46.5-104 104v424h80v416h528v-416zM816 88v344h-224v80h144v336h-368v-336h144v-80h-224v-344c0-13 11-24 24-24h480c13 0 24 11 24 24z" />
<glyph unicode="&#xe974;" glyph-name="desktop" d="M450 469.5l-47-89.5-115 308 308-115-89.5-47 104.5-104.5-56.5-56.5zM944 832v-640h-292.5l27-80h105.5v-80h-544v80h105.5l27 80h-292.5v640h864zM444.5 112h135l-27.5 80h-80zM864 272v480h-704v-480h704z" />
<glyph unicode="&#xe975;" glyph-name="laptop" d="M208 768v-400h-80v480h768v-480h-80v400h-608zM304 704l279.5-104-77.5-41.5 94-94-57-56.5-94 94-40.5-77.5zM896.5 304l127.5-144v-80h-1024v80l127.5 144h769zM107 160h810l-56.5 64h-697z" />
<glyph unicode="&#xe976;" glyph-name="tablet" d="M904 832c57.5 0 104-46.5 104-104v-544c0-57.5-46.5-104-104-104h-784c-57.5 0-104 46.5-104 104v544c0 57.5 46.5 104 104 104h784zM96 184c0-13 11-24 24-24h584v592h-584c-13 0-24-11-24-24v-544zM928 184v544c0 13-11 24-24 24h-120v-592h120c13 0 24 11 24 24zM856 496c22 0 40-18 40-40s-18-40-40-40-40 18-40 40 18 40 40 40z" />
<glyph unicode="&#xe977;" glyph-name="smartphone" d="M712 896c57.5 0 104-46.5 104-104v-688c0-57.5-46.5-104-104-104h-384c-57.5 0-104 46.5-104 104v688c0 57.5 46.5 104 104 104h384zM328 816c-13 0-24-11-24-24v-88h432v88c0 13-11 24-24 24h-384zM736 624h-432v-320h432v320zM712 80c13 0 24 11 24 24v120h-432v-120c0-13 11-24 24-24h384zM520 192c22 0 40-18 40-40s-18-40-40-40-40 18-40 40 18 40 40 40z" />
<glyph unicode="&#xe978;" glyph-name="cell" d="M712 800c57.5 0 104-46.5 104-104v-592c0-57.5-46.5-104-104-104h-384c-57.5 0-104 46.5-104 104v720c0 57.5 46.5 104 104 104h64c57.5 0 104-46.5 104-104v-24h216zM736 104v592c0 13-11 24-24 24h-296v104c0 13-11 24-24 24h-64c-13 0-24-11-24-24v-720c0-13 11-24 24-24h384c13 0 24 11 24 24zM368 400v240h304v-240h-304zM448 560v-80h144v80h-144z" />
<glyph unicode="&#xe979;" glyph-name="battery" d="M889.5 608c57.5 0 102.5-46.5 102.5-104v-114c0-57.5-45-102-102.5-102h-41.5v-8c0-57.5-46.5-104-104-104h-592c-57.5 0-104 46.5-104 104v336c0 57.5 46.5 104 104 104h592c57.5 0 104-46.5 104-104v-8h41.5zM768 280v336c0 13-11 24-24 24h-592c-13 0-24-11-24-24v-336c0-13 11-24 24-24h592c13 0 24 11 24 24zM912 390v114c0 13-9.5 24-22.5 24h-41.5v-160h41.5c13 0 22.5 9 22.5 22zM192 320v256h80v-256h-80zM336 320v256h80v-256h-80zM480 320v256h80v-256h-80zM624 320v256h80v-256h-80z" />
<glyph unicode="&#xe97a;" glyph-name="highbattery" d="M889.5 608c57.5 0 102.5-46.5 102.5-104v-114c0-57.5-45-102-102.5-102h-41.5v-8c0-57.5-46.5-104-104-104h-592c-57.5 0-104 46.5-104 104v336c0 57.5 46.5 104 104 104h592c57.5 0 104-46.5 104-104v-8h41.5zM768 280v336c0 13-11 24-24 24h-592c-13 0-24-11-24-24v-336c0-13 11-24 24-24h592c13 0 24 11 24 24zM912 390v114c0 13-9.5 24-22.5 24h-41.5v-160h41.5c13 0 22.5 9 22.5 22zM192 320v256h80v-256h-80zM336 320v256h80v-256h-80zM480 320v256h80v-256h-80z" />
<glyph unicode="&#xe97b;" glyph-name="mediumbattery" d="M889.5 608c57.5 0 102.5-46.5 102.5-104v-114c0-57.5-45-102-102.5-102h-41.5v-8c0-57.5-46.5-104-104-104h-592c-57.5 0-104 46.5-104 104v336c0 57.5 46.5 104 104 104h592c57.5 0 104-46.5 104-104v-8h41.5zM768 280v336c0 13-11 24-24 24h-592c-13 0-24-11-24-24v-336c0-13 11-24 24-24h592c13 0 24 11 24 24zM912 390v114c0 13-9.5 24-22.5 24h-41.5v-160h41.5c13 0 22.5 9 22.5 22zM192 320v256h80v-256h-80zM336 320v256h80v-256h-80z" />
<glyph unicode="&#xe97c;" glyph-name="lowbattery" d="M889.5 608c57.5 0 102.5-46.5 102.5-104v-114c0-57.5-45-102-102.5-102h-41.5v-8c0-57.5-46.5-104-104-104h-592c-57.5 0-104 46.5-104 104v336c0 57.5 46.5 104 104 104h592c57.5 0 104-46.5 104-104v-8h41.5zM768 280v336c0 13-11 24-24 24h-592c-13 0-24-11-24-24v-336c0-13 11-24 24-24h592c13 0 24 11 24 24zM912 390v114c0 13-9.5 24-22.5 24h-41.5v-160h41.5c13 0 22.5 9 22.5 22zM192 320v256h80v-256h-80z" />
<glyph unicode="&#xe97d;" glyph-name="chargingbattery" d="M889.5 608c57.5 0 102.5-46.5 102.5-104v-114c0-57.5-45-102-102.5-102h-41.5v-8c0-57.5-46.5-104-104-104h-592c-57.5 0-104 46.5-104 104v336c0 57.5 46.5 104 104 104h592c57.5 0 104-46.5 104-104v-8h41.5zM768 280v336c0 13-11 24-24 24h-592c-13 0-24-11-24-24v-336c0-13 11-24 24-24h592c13 0 24 11 24 24zM912 390v114c0 13-9.5 24-22.5 24h-41.5v-160h41.5c13 0 22.5 9 22.5 22zM496 576v-128h208l-304-128v128h-208z" />
<glyph unicode="&#xe97e;" glyph-name="lightbulb" d="M560 240h-80v239.5l-90 90 56.5 56.5 73.5-73.5 73.5 73.5 56.5-56.5-90-90v-239.5zM750 792.5c47.5-52.5 72-128 65-202.5-8.5-90-39-135.5-75-181.5l-5-6.5c-17.5-22-31-39-31-76v-86h-80v86c0 65 28 100 48.5 126l4.5 5.5c30 38.5 52 71 58 140 2 20 4.5 88-44 141-37.5 41-94.5 61.5-171 61.5-76 0-133.5-20.5-170.5-61.5-48.5-53.5-46.5-121-44.5-141 6.5-69 28-101.5 58-140l5-7c20.5-25.5 48-60.5 48-124.5v-86h-80v86c0 36-13 53-30 74.5l-6 8c-36 46-66.5 91.5-75 181.5-7 74.5 17.5 150 65 202.5 36.5 40 106 87.5 230 87.5s193.5-47.5 230-87.5zM336 96v80h368v-80h-368zM416-48v80h208v-80h-208z" />
<glyph unicode="&#xe97f;" glyph-name="washer" d="M552 784c22 0 40-18 40-40s-18-40-40-40-40 18-40 40 18 40 40 40zM712 784c22 0 40-18 40-40s-18-40-40-40-40 18-40 40 18 40 40 40zM896 592h-704v-488c0-22 18-40 40-40h544c22 0 40 18 40 40v424h80v-424c0-66.5-54-120-120-120h-544c-66.5 0-120 53.5-120 120v672c0 66 53.5 120 120 120h544c66 0 120-54 120-120v-184zM192 776v-104h624v104c0 22-18 40-40 40h-544c-22 0-40-18-40-40zM304 328c0 110.5 89.5 200 200 200s200-89.5 200-200-89.5-200-200-200-200 89.5-200 200zM625 328c0 67-54 121-121 121s-121-54-121-121 54-121 121-121 121 54 121 121z" />
<glyph unicode="&#xe980;" glyph-name="downloadcloud" d="M769.5 591c132.5-22 222.5-119.5 222.5-245.5 0-137.5-111.5-249.5-248-249.5h-88v80h88c92.5 0 168 76 168 169.5 0 91.5-73.5 161.5-178 169.5l-31.5 2.5-5 30.5c-19 109-111.5 188-220.5 188-67.5 0-127.5-24-168-68-42-45.5-61-107.5-55.5-180.5l2.5-33.5-32.5-8c-70-18-111.5-69-111.5-136.5 0-73.5 59.5-133.5 132.5-133.5h107.5v-80h-107.5c-117 0-212.5 96-212.5 213.5 0 94.5 53 170 140.5 204 0.5 81.5 27.5 154.5 78 209 56 60 136.5 93.5 226.5 93.5 138 0 256.5-93 292.5-225zM648.5 366.5l58-55-202.5-212.5-202.5 212.5 58 55 104.5-109.5v255h80v-255z" />
<glyph unicode="&#xe981;" glyph-name="download" d="M816 352h80v-240h-784v240h80v-160h624v160zM738.5 493.5l-234.5-234.5-234.5 234.5 56.5 56.5 138-138v324h80v-324l138 138z" />
<glyph unicode="&#xe982;" glyph-name="downloadbox" d="M560 512v-147.5l75.5 75.5 57-56.5-172.5-172-172 172 56.5 56.5 75.5-75.5v147.5h80zM793.5 896l166.5-227v-589h-880v589l166.5 227h547zM880 160v432h-256v80h234.5l-105.5 144h-193v-224h-80v224h-193l-105.5-144h234.5v-80h-256v-432h720z" />
<glyph unicode="&#xe983;" glyph-name="uploadcloud" d="M769.5 591c132.5-22 222.5-119.5 222.5-245.5 0-137.5-111.5-249.5-248-249.5h-88v80h88c92.5 0 168 76 168 169.5 0 91.5-73.5 161.5-178 169.5l-31.5 2.5-5 30.5c-19 109-111.5 188-220.5 188-67.5 0-127.5-24-168-68-42-45.5-61-107.5-55.5-180.5l2.5-33.5-32.5-8c-70-18-111.5-69-111.5-136.5 0-73.5 59.5-133.5 132.5-133.5h107.5v-80h-107.5c-117 0-212.5 96-212.5 213.5 0 94.5 53 170 140.5 204 0.5 81.5 27.5 154.5 78 209 56 60 136.5 93.5 226.5 93.5 138 0 256.5-93 292.5-225zM706.5 296.5l-58-55-104.5 109.5v-255h-80v255l-104.5-109.5-58 55 202.5 212.5z" />
<glyph unicode="&#xe984;" glyph-name="upload" d="M816 352h80v-240h-784v240h80v-160h624v160zM464 613.5l-138-138-56.5 57 234.5 234.5 234.5-234.5-56.5-56.5-138 138v-324.5h-80v324z" />
<glyph unicode="&#xe985;" glyph-name="uploadbox" d="M348 368.5l172 172.5 172.5-172.5-57-56.5-75.5 75.5v-147.5h-80v147.5l-75.5-75.5zM793.5 896l166.5-227v-589h-880v589l166.5 227h547zM880 160v432h-256v80h234.5l-105.5 144h-193v-224h-80v224h-193l-105.5-144h234.5v-80h-256v-432h720z" />
<glyph unicode="&#xe986;" glyph-name="fork" d="M714.5 331l56.5 56.5 203.5-203.5-203.5-204-56.5 57 107 107h-195.5c-76.5 0-135.5 37-176.5 110-19.5 35-74 130-98 162h-287.5v80h287.5c24 32 78.5 127 98 162 41 73 100 110 176.5 110h195.5l-107 107 56.5 56.5 203.5-203.5-203.5-203.5-56.5 56.5 107 107h-195.5c-47 0-80-21.5-107-69-20-36-73-123-98-163 25-40.5 78-127 98-163 27-48 60-69 107-69h195.5z" />
<glyph unicode="&#xe987;" glyph-name="merge" d="M771 659l203.5-203.5-203.5-203.5-56.5 56.5 107.5 107.5h-270.5c-24-48-78.5-142-99-178-40.5-73-100-110-176-110h-212.5v80h212.5c46.5 0 79.5 21.5 106.5 69 20 36.5 76 136.5 99.5 179-23.5 42.5-79.5 142.5-99.5 179-27 47.5-60 69-106.5 69h-212.5v80h212.5c76 0 135.5-37 176-110 20.5-36 75-130 99-178h269.5l-106.5 106.5z" />
<glyph unicode="&#xe988;" glyph-name="refresh" d="M656 464v80h152c-36.5 37-78.5 79-103.5 104.5-72 71.5-143.5 103.5-232.5 103.5-172 0-312-140-312-312s140-312 312-312c158.5 0 289.5 119 309 272h80.5c-20-197.5-187-352-389.5-352-216 0-392 176-392 392s176 392 392 392c110.5 0 202-40.5 289-127 25-25.5 66.5-67 103-104v151h80v-288h-288z" />
<glyph unicode="&#xe989;" glyph-name="sync" d="M864 752h80v-288h-288v80h152c-36.5 37-78.5 79-103.5 104.5-72 71.5-143.5 103.5-232.5 103.5-164 0-298.5-127-311-288h-80c12.5 205 183 368 391 368 110.5 0 202-40.5 289-127 25-25.5 66.5-67 103-104v151zM552 112c164 0 298.5 127 311 288h80c-12.5-205-183-368-391-368-110.5 0-202 40.5-289 127-25 25-66.5 67-103 104v-151h-80v288h288v-80h-152c36.5-37 78.5-79 103.5-104.5 72-71.5 143.5-103.5 232.5-103.5z" />
<glyph unicode="&#xe98a;" glyph-name="loading" d="M560 672h-80v208h80v-208zM560 0h-80v208h80v-208zM560 672h-80v208h80v-208zM560 0h-80v208h80v-208zM327.5 576l-147 147 56.5 56.5 147-147zM803 100.5l-147 147 56.5 56.5 147-147zM327.5 576l-147 147 56.5 56.5 147-147zM803 100.5l-147 147 56.5 56.5 147-147zM288 400h-208v80h208v-80zM960 400h-208v80h208v-80zM288 400h-208v80h208v-80zM960 400h-208v80h208v-80zM237 100.5l-56.5 56.5 147 147 56.5-56.5zM712.5 576l-56.5 56.5 147 147 56.5-56.5zM237 100.5l-56.5 56.5 147 147 56.5-56.5zM712.5 576l-56.5 56.5 147 147 56.5-56.5zM480 672v208h80v-208h-80zM480 0v208h80v-208h-80zM288 480v-80h-208v80h208zM752 480h208v-80h-208v80zM180.5 723l56.5 56.5 147-147-56.5-56.5zM656 247.5l56.5 56.5 147-147-56.5-56.5zM180.5 157l147 147 56.5-56.5-147-147zM859.5 723l-147-147-56.5 56.5 147 147z" />
<glyph unicode="&#xe98b;" glyph-name="file" d="M144 880h720v-600.5l-262-263.5h-458v864zM784 312.5v487.5h-560v-704h344.5zM480 160v240h240v-80h-160v-160h-80zM672 704v-80h-336v80h336zM672 560v-80h-336v80h336z" />
<glyph unicode="&#xe98c;" glyph-name="files" d="M224 816h656v-536.5l-262-263.5h-394v800zM800 312.5v423.5h-496v-640h280.5zM576 320v-160h-80v240h240v-80h-160zM736 960v-80h-576v-720h-80v800h656z" />
<glyph unicode="&#xe98d;" glyph-name="addfile" d="M160 880h720v-600.5l-262-263.5h-458v864zM800 312.5v487.5h-560v-704h344.5zM496 160v240h240v-80h-160v-160h-80zM480 464v96h-96v80h96v96h80v-96h96v-80h-96v-96h-80z" />
<glyph unicode="&#xe98e;" glyph-name="removefile" d="M160 880h720v-600.5l-262-263.5h-458v864zM800 312.5v487.5h-560v-704h344.5zM496 160v240h240v-80h-160v-160h-80zM656 640v-80h-272v80h272z" />
<glyph unicode="&#xe98f;" glyph-name="checkfile" d="M160 880h720v-600.5l-262-263.5h-458v864zM800 312.5v487.5h-560v-704h344.5zM496 160v240h240v-80h-160v-160h-80zM687.5 679l-181.5-225.5-144 158.5 59 54 81.5-89.5 123 152.5z" />
<glyph unicode="&#xe990;" glyph-name="deletefile" d="M160 880h720v-600.5l-262-263.5h-458v864zM800 312.5v487.5h-560v-704h344.5zM496 160v240h240v-80h-160v-160h-80zM452 475.5l-56.5 56.5 68 68-68 68 56.5 56.5 68-68 68 68 56.5-56.5-68-68 68-68-56.5-56.5-68 68z" />
<glyph unicode="&#xe991;" glyph-name="exe" d="M304 560v-48h-144v208h144v-48h-96v-32h80v-48h-80v-32h96zM390.5 512h-64l65.5 111-59.5 97h65.5l27.5-58.5 27 58.5h62.5l-58.5-97.5 65-110.5h-67.5l-31 64zM704 672h-96v-32h80v-48h-80v-32h96v-48h-160v208h160v-48zM496 160v240h240v-80h-160v-160h-80zM160 880h720v-600.5l-262-263.5h-458v416h80v-336h344.5l215.5 216.5v487.5h-640v80z" />
<glyph unicode="&#xe992;" glyph-name="zip" d="M496 160v240h240v-80h-160v-160h-80zM160 880h720v-600.5l-262-263.5h-458v416h80v-336h344.5l215.5 216.5v487.5h-640v80zM320 560v-48h-160v50.5l85 109.5h-85v48h160v-45.5l-86.5-114.5h86.5zM572.5 720c49.5 0 67-52 67-80 0-48-30-80-71.5-80h-40v-48h-48v208h92.5zM556.5 608c14.5 0 29.5 12 29.5 32 0 18-12.5 32-26.5 32h-31.5v-64h28.5zM368 720h64v-208h-64v208z" />
<glyph unicode="&#xe993;" glyph-name="doc" d="M496 160v240h240v-80h-160v-160h-80zM160 880h720v-600.5l-262-263.5h-458v416h80v-336h344.5l215.5 216.5v487.5h-640v80zM333.5 616.5c0-66.5-29.5-104.5-93.5-104.5h-80v208h91c61 0 82.5-49 82.5-103.5zM208 560h29c35 0 40 37 40 57.5 0 13.5-3.5 54.5-44 54.5h-25v-112zM445 720c55.5 0 93-43.5 93-104s-37.5-104-93-104-92.5 43.5-92.5 104 37 104 92.5 104zM445 561.5c14.5 0 36.5 10.5 36.5 54.5s-22 54.5-36.5 54.5c-14 0-36-10.5-36-54.5s22-54.5 36-54.5zM651 672c-26.5 0-35-27-35-53.5s8.5-58 35-58c19 0 26.5 12 30 29h55c0-34-30-77.5-83.5-77.5-59 0-92.5 47-92.5 105.5 0 62 36.5 102.5 92.5 102.5 50.5-0.5 78-27 82.5-78.5h-54.5c-1 17-6 30.5-29.5 30.5z" />
<glyph unicode="&#xe994;" glyph-name="pdf" d="M480 160v240h240v-80h-160v-160h-80zM144 880h720v-600.5l-262-263.5h-458v416h80v-336h344.5l215.5 216.5v487.5h-640v80zM192 560v-48h-48v208h92.5c49.5 0 67-52 67-80 0-48-30-80-71.5-80h-40zM192 672v-64h28.5c14.5 0 29.5 12 29.5 32 0 18-12.5 32-26.5 32h-31.5zM427.5 720c60.5 0 82-55 82-105 0-60.5-29.5-103-93-103h-80.5v208h91.5zM415 560c35 0 40 37 40 55 0 12.5-3.5 57-44 57h-27v-112h31zM688 672h-96v-32h80v-48h-80v-80h-48v208h144v-48z" />
<glyph unicode="&#xe995;" glyph-name="jpg" d="M496 160v240h240v-80h-160v-160h-80zM160 880h720v-600.5l-262-263.5h-458v416h80v-336h344.5l215.5 216.5v487.5h-640v80zM231 512c-52 0-71 28-71 71.5v8.5h48v-3c0-15.5 8-29.5 25-29.5 16 0 23 19 23 28v132.5h48v-131.5c0-55-21.5-76.5-73-76.5zM601 670c-38.5 0-38-42-38-56 0-18.5 7.5-56 42-56 13 0 31 2 34 18h-31v32h80v-96h-35l-1.5 24.5c-12.5-17.5-32-23.5-52-23.5-54 0-87.5 47-87.5 104 0 76.5 49 102.5 90 102.5 47 0 76-31.5 84.5-79.5h-52c-2.5 16-10.5 30-33.5 30zM424 560h-40v-48h-48v208h92.5c49.5 0 67-52 67-80 0-48-30-80-71.5-80zM384 672v-64h28.5c14.5 0 29.5 12 29.5 32 0 18-12.5 32-26.5 32h-31.5z" />
<glyph unicode="&#xe996;" glyph-name="png" d="M496 160v240h240v-80h-160v-160h-80zM160 880h720v-600.5l-262-263.5h-458v416h80v-336h344.5l215.5 216.5v487.5h-640v80zM633 670c-38.5 0-37.5-42-37.5-56 0-18.5 7-56 41.5-56 13 0 31 2 33.5 18h-30.5v32h80v-96h-35l-1.5 24.5c-13-17.5-32-23.5-52-23.5-54 0-87.5 47-87.5 104 0 76.5 49 102.5 90 102.5 47 0 76-31.5 84.5-79.5h-52c-2 16-10.5 30-33.5 30zM464 608v112h48v-208h-51.5l-60.5 112v-112h-48v208h56.5zM208 560v-48h-48v208h92.5c49.5 0 67-52 67-80 0-48-30-80-71.5-80h-40zM208 672v-64h28.5c14.5 0 29.5 12 29.5 32 0 18-12.5 32-26.5 32h-31.5z" />
<glyph unicode="&#xe997;" glyph-name="mpthree" d="M496 160v240h240v-80h-160v-160h-80zM160 880h720v-600.5l-262-263.5h-458v416h80v-336h344.5l215.5 216.5v487.5h-640v80zM208 640v-128h-48v208h78.5l26-112h0.5l26 112h77v-208h-48v128h-2.5l-31.5-128h-42l-32 128h-4zM492.5 720c49.5 0 67-52 67-80 0-48-30-80-71.5-80h-40v-48h-48v208h92.5zM476.5 608c14.5 0 29.5 12 29.5 32 0 18-12.5 32-26.5 32h-31.5v-64h28.5zM656 558c15 0 25 6.5 25 23 0 17.5-12.5 21-25 21-7.5 0-11.5-1-15.5-1.5v39.5c4 0 8.5-1 15.5-1 11 0 25.5 2.5 25.5 18.5 0 13-13.5 18-24.5 18-12.5 0-23-6.5-25-19.5h-50c2 21 10 36.5 22.5 47 14.5 11.5 33.5 17 54 17 54 0 71.5-35 71.5-52 0-43-24.5-43-24.5-44v-0.5c0-2 30.5-2 30.5-47.5 0-25-17-64-77.5-64-83.5 0-82.5 64-82.5 79.5h51c-0.5-11 2-19 7-24.5 5-6.5 12.5-9 22-9z" />
<glyph unicode="&#xe998;" glyph-name="rar" d="M496 160v240h240v-80h-160v-160h-80zM160 880h720v-600.5l-262-263.5h-458v416h80v-336h344.5l215.5 216.5v487.5h-640v80zM208 576v-64h-48v208h116.5c29.5 0 54.5-26.5 54.5-63 0-20-8-49-25-56 14-6.5 22.5-24 24.5-48 0.5-9.5 1-25 5.5-41h-51c-2.5 16-3.5 18-4.5 28-1 18.5-2.5 36-23 36h-49.5zM208 672v-48h49c10 0 23 7 23 24 0 12-6 24-25.5 24h-46.5zM731 657c0-20-8-49-25-56 14-6.5 22.5-24 24.5-48 0.5-9.5 1-25 5.5-41h-51c-2.5 16-3.5 18-4.5 28-1 18.5-2.5 36-23 36h-49.5v-64h-48v208h117c28.5 0 54-26.5 54-63zM657 624c9.5 0 22.5 7 22.5 24 0 12-5.5 24-25 24h-46.5v-48h49zM420.5 720h56l67.5-208h-59.5l-7.5 32h-59l-8.5-32h-57.5zM424 576h47.5l-22.5 80h-0.5z" />
<glyph unicode="&#xe999;" glyph-name="gif" d="M496 160v240h240v-80h-160v-160h-80zM160 880h720v-600.5l-262-263.5h-458v416h80v-336h344.5l215.5 216.5v487.5h-640v80zM249 670.5c-38.5 0-37.5-42.5-37.5-56 0-19 7-56 41.5-56 13 0 31 1.5 33.5 17.5h-30.5v32h80v-96h-35l-1.5 24.5c-13-17.5-32-23.5-52-23.5-54 0-87.5 47.5-87.5 104.5 0 76.5 49 102.5 90 102.5 47 0 76-31.5 84.5-79.5h-52c-2 16-10.5 30-33.5 30zM384 720h64v-208h-64v208zM640 672h-96v-32h80v-48h-80v-80h-48v208h144v-48z" />
<glyph unicode="&#xe99a;" glyph-name="folder" d="M959.5 80.5h-863v735h354.5l36.5-80h472v-655zM176 160.5h703.5v495.5h-443.5l-36.5 79.5h-223.5v-575z" />
<glyph unicode="&#xe99b;" glyph-name="openfolder" d="M188 64c-7 0-14.5 0.5-21.5 2-42 9-86.5 48.5-86.5 133.5v552.5h321l32-80h383v-80h-437l-32.5 80h-186.5v-472.5c0-29 3.5-48 19.5-54 12-4.5 29-1 37.5 18.5 25 56.5 161 364 161 364h602s-154-369-165-393c-14.5-33-39.5-71-100.5-71h-526.5zM295.5 144h419c12 0 17 0 27.5 23.5 7 15.5 71 168.5 118 280.5h-430c-28.5-64.5-106.5-241.5-134.5-304z" />
<glyph unicode="&#xe99c;" glyph-name="downloadfolder" d="M394 480h598l-23-55.5c-5.5-12.5-131.5-313.5-142-337.5-15-33-39.5-71-100.5-71h-518.5c-16.5 0-35 2-52 12-32.5 17.5-60 56.5-60 123v553h321l32-80h148l80-80h-282l-32.5 80h-186.5v-496c0-16 7-27 20-30 12.5-3 30.5 3.5 37 18 5 11.5 161 364 161 364zM754 119.5c7 15.5 118 280.5 118 280.5h-426l-134.5-304h415c12 0 17 0 27.5 23.5zM977.5 737l-201.5-201.5-201.5 201.5 56.5 56.5 105-105v255.5h80v-255.5l105 105z" />
<glyph unicode="&#xe99d;" glyph-name="uploadfolder" d="M394 480h598l-23-55.5c-5.5-12.5-131.5-313.5-142-337.5-15-33-39.5-71-100.5-71h-518.5c-16.5 0-35 2-52 12-32.5 17.5-60 56.5-60 123v553h321l32-80h223v-80h-277l-32.5 80h-186.5v-496c0-16 7-27 20-30 12.5-3 30.5 3.5 37 18 5 11.5 161 364 161 364zM754 119.5c7 15.5 118 280.5 118 280.5h-426l-134.5-304h415c12 0 17 0 27.5 23.5zM736 803l-105-105-56.5 56.5 201.5 201.5 201.5-201.5-56.5-56.5-105 105v-259h-80v259z" />
<glyph unicode="&#xe99e;" glyph-name="quote" d="M704 528h272v-400h-416v384c0 165 96 256 256 256v-80c-128 0-176-54-176-176v-304h256v240h-192v80zM192 448v80h272v-400h-416v384c0 165 96 256 256 256v-80c-128 0-176-54-176-176v-304h256v240h-192z" />
<glyph unicode="&#xe99f;" glyph-name="unquote" d="M48 368v400h416v-384c0-165-96-256-256-256v80c128 0 176 54 176 176v304h-256v-240h192v-80h-272zM560 768h416v-384c0-165-96-256-256-256v80c128 0 176 54 176 176v304h-256v-240h192v-80h-272v400z" />
<glyph unicode="&#xe9a0;" glyph-name="print" d="M904 656c57.5 0 104-46.5 104-104v-320c0-57.5-46.5-104-104-104h-40v80h40c13 0 24 11 24 24v320c0 13-11 24-24 24h-784c-13 0-24-11-24-24v-320c0-13 11-24 24-24h40v-80h-40c-57.5 0-104 46.5-104 104v320c0 57.5 46.5 104 104 104h104v240h576v-240h104zM304 816v-160h416v160h-416zM224 16v352h576v-352h-576zM304 288v-192h416v192h-416zM864 512v-80h-80v80h80z" />
<glyph unicode="&#xe9a1;" glyph-name="copier" d="M304 240v80h448v-80h-448zM752 496v-80h-448v80h448zM512 608v74l318 158.5 36-71.5-162.5-81h104.5c57.5 0 104-46.5 104-104v-59.5l206 103.5 36-72-322-160v188c0 13.5-11 24-24 24h-296zM832 324.5l286 143 36-71.5-242-120.5v-139.5c0-57.5-46.5-104-104-104h-560c-57.5 0-104 46.5-104 104v656c0 57.5 46.5 104 104 104h240c57 0 103-45.5 104-102.5l-80-40v38.5c0 13.5-11 24-24 24h-240c-13.5 0-24-10.5-24-24v-656c0-13 10.5-24 24-24h560c13 0 24 11 24 24v188.5z" />
<glyph unicode="&#xe9a2;" glyph-name="fax" d="M904 800c57.5 0 104-46.5 104-104v-320c0-57.5-46.5-104-104-104h-40v80h40c13 0 24 11 24 24v320c0 13-11 24-24 24h-784c-13 0-24-11-24-24v-320c0-13 11-24 24-24h40v-80h-40c-57.5 0-104 46.5-104 104v320c0 57.5 46.5 104 104 104h784zM224-64v576h576v-576h-576zM304 432v-416h416v416h-416zM864 656v-80h-80v80h80zM592.5 369.5c31-9 63.5-33.5 63.5-62-0.5-31.5-26.5-94.5-80-148-53-53-116-79-148-79.5-28-0.5-52.5 32-61.5 63-3 10.5-2.5 13 7.5 17.5 20 8.5 50.5 22.5 66 29.5 8 4 11 4 17.5-2.5l23.5-23.5s26 12.5 52 38.5 39 52.5 39 52.5l-23.5 23.5c-6.5 6.5-6.5 9-3 17.5 7 15.5 21.5 46 30 65.5 4.5 10 6.5 11 17 8z" />
<glyph unicode="&#xe9a3;" glyph-name="scanner" d="M48 544h960v-336h-960v336zM928 288v176h-800v-176h800zM989 653l-20-77-879 226.5 20 77.5zM864 416v-80h-80v80h80z" />
<glyph unicode="&#xe9a4;" glyph-name="printregistration" d="M920 864c57.5 0 104-46.5 104-104v-320c0-57.5-46.5-104-104-104h-40v80h40c13.5 0 24 10.5 24 24v320c0 13-10.5 24-24 24h-784c-13 0-24-11-24-24v-320c0-13.5 11-24 24-24h40v-80h-40c-57.5 0-104 46.5-104 104v320c0 57.5 46.5 104 104 104h784zM240 0v576h576v-576h-576zM320 496v-416h416v416h-416zM880 720v-80h-80v80h80zM560 412c45-12 80-47 92-92h36v-64h-36c-12-45-47-80-92-92v-36h-64v36c-45 12-80 47-92 92h-36v64h36c12 45 47 80 92 92v36h64v-36zM528 222.5c36 0 65.5 29.5 65.5 65.5s-29.5 65.5-65.5 65.5-65.5-29.5-65.5-65.5 29.5-65.5 65.5-65.5zM512 272v32h32v-32h-32z" />
<glyph unicode="&#xe9a5;" glyph-name="shredder" d="M904 656c57.5 0 104-46.5 104-104v-320c0-57.5-46.5-104-104-104h-72v80h72c13 0 24 11 24 24v320c0 13-11 24-24 24h-784c-13 0-24-11-24-24v-320c0-13 11-24 24-24h72v-80h-72c-57.5 0-104 46.5-104 104v320c0 57.5 46.5 104 104 104h104v240h576v-240h104zM304 816v-160h416v160h-416zM256 48v320h80v-320h-80zM400-64v432h80v-432h-80zM544-64v432h80v-432h-80zM688 48v320h80v-320h-80zM864 512v-80h-80v80h80z" />
<glyph unicode="&#xe9a6;" glyph-name="expand" d="M459.5 452.5l57-56.5-252-252h231.5v-80h-368v368h80v-231.5zM528 832h368v-368h-80v231.5l-251.5-252-57 57 252 251.5h-231.5v80z" />
<glyph unicode="&#xe9a7;" glyph-name="contract" d="M916.5 796l-252-252h231.5v-80h-368v368h80v-231.5l252 252zM128 352v80h368v-368h-80v231.5l-252-252-56.5 56.5 252 252h-231.5z" />
<glyph unicode="&#xe9a8;" glyph-name="help" d="M520 832c216 0 392-176 392-392 0-104.5-41-203-115-277s-172.5-115-277-115v0c-216 0-392 176-392 392 0 104.5 41 203 115 277s172 115 277 115zM743 217c59.5 59.5 92 139 92 223 0 174-141 315-315 315-84 0-163.5-32.5-223-92s-92-139-92-223c0-174 141-315 315-315v0c84.5 0 163.5 32.5 223 92zM480 240v80h80v-80h-80zM528 656c73.5 0 128-48 128-112 0-83-96-102.5-96-160v-16h-80v26c0 84 89.5 99 95.5 146.5 3.5 31.5-15.5 51.5-47.5 51.5s-48-32-48-64h-80c0 80 55.5 128 128 128z" />
<glyph unicode="&#xe9a9;" glyph-name="info" d="M520 832c216 0 392-176 392-392 0-104.5-41-203-115-277s-172.5-115-277-115v0c-216 0-392 176-392 392 0 104.5 41 203 115 277s172 115 277 115zM743 217c59.5 59.5 92 139 92 223 0 174-141 315-315 315-84 0-163.5-32.5-223-92s-92-139-92-223c0-174 141-315 315-315v0c84.5 0 163.5 32.5 223 92zM480 560v80h80v-80h-80zM480 240v272h80v-272h-80z" />
<glyph unicode="&#xe9aa;" glyph-name="alert" d="M520 896l441.5-864h-883zM520 720l-310.5-608h621zM480 192v80h80v-80h-80zM480 544h80v-96l-16-128h-48l-16 128v96z" />
<glyph unicode="&#xe9ab;" glyph-name="caution" d="M783.5 719.5c72.5-72.5 112.5-169 112.5-271.5 0-212-172-384-384-384v0c-102.5 0-199 40-271.5 112.5s-112.5 169-112.5 271.5c0 212 172 384 384 384v0c102.5 0 199-40 271.5-112.5zM512 141c169.5 0 307 137.5 307 307 0 82-32 159-90 217s-135 90-217 90v0c-169.5 0-307-137.5-307-307 0-82 32-159 90-217s135-90 217-90v0zM320 400v96h384v-96h-384z" />
<glyph unicode="&#xe9ac;" glyph-name="logout" d="M192 736v-592h368v-80h-448v752h448v-80h-368zM530.5 205.5l-56.5 56.5 138 138h-324v80h324l-138 138 56.5 56.5 234.5-234.5z" />
<glyph unicode="&#xe9ad;" glyph-name="login" d="M400 816h448v-752h-448v80h368v592h-368v80zM386.5 674.5l234.5-234.5-234.5-234.5-56.5 56.5 138 138h-324v80h324l-138 138z" />
<glyph unicode="&#xe9ae;" glyph-name="scaleup" d="M144 816h320v-80h-183.5l180-180-56.5-56.5-180 180v-183.5h-80v320zM460.5 340l-180-180h183.5v-80h-320v320h80v-183.5l180 180zM560 816h320v-320h-80v183.5l-180-180-56.5 56.5 180 180h-183.5v80zM800 216.5v183.5h80v-320h-320v80h183.5l-180 180 56.5 56.5z" />
<glyph unicode="&#xe9af;" glyph-name="scaledown" d="M696.5 576h183.5v-80h-320v320h80v-183.5l179.5 179.5 56.5-56.5zM144 400h320v-320h-80v183.5l-179.5-179.5-56.5 56.5 179.5 179.5h-183.5v80zM384 632.5v183.5h80v-320h-320v80h183.5l-179.5 179.5 56.5 56.5zM560 400h320v-80h-183.5l179.5-179.5-56.5-56.5-179.5 179.5v-183.5h-80v320z" />
<glyph unicode="&#xe9b0;" glyph-name="plus" d="M848 496v-80h-304v-304h-80v304h-304v80h304v304h80v-304h304z" />
<glyph unicode="&#xe9b1;" glyph-name="hyphen" d="M864.5 383.5h-688.5v81h688.5v-81z" />
<glyph unicode="&#xe9b2;" glyph-name="check" d="M468 108.5l-304 387 63 49.5 233-297.5 338 541.5 68-42z" />
<glyph unicode="&#xe9b3;" glyph-name="delete" d="M791.5 671l-215-215 215-215-56.5-56.5-215 215-215-215-56.5 56.5 215 215-215 215 56.5 56.5 215-215 215 215z" />
<glyph unicode="&#xe9b4;" glyph-name="notifications" d="M944 216.5v-88.5h-864v89l13.5 12c1.5 1 166.5 151.5 182 370l13 175.5 18 10.5c3 2 81.5 47 203.5 47h6c122 0 200.5-45 204-47l18-10.5 13-175.5c16-219 178.5-369 180-370.5zM184.5 208h655.5c-56 63.5-155.5 201.5-169 385.5l-9.5 132.5c-25.5 10.5-77 27.5-145.5 27.5h-6c-68 0-119.5-17-145-27.5l-9.5-132.5c-13.5-184-114-321.5-171-385.5zM512 14.5c33.5 0 62 20.5 74 49.5h83c-14.5-73.5-79-128-157-128s-142.5 54.5-157 128h83c12-29 40.5-49.5 74-49.5z" />
<glyph unicode="&#xe9b5;" glyph-name="notificationsdisabled" d="M512 14.5c33.5 0 62 20.5 74 49.5h83c-14-73.5-79-126.5-157-126.5s-143 53-157 126.5h83c12-29 40.5-49.5 74-49.5zM184.5 208h566l80-80h-750.5v89l13.5 12c1.5 1 166.5 151.5 182 370l6 78.5 74.5-75-0.5-9c-13.5-184-114-321.5-171-385.5zM892 271l148.5-148.5-57-56.5-834 834 56.5 56.5 150-150c35.5 12.5 88.5 25.5 154 25.5h6c122 0 200.5-45 204-47l18-10.5 13-175.5c11-150.5 91-268.5 141-328zM510 753.5c-35 0-65.5-4.5-90.5-10.5l275-274.5c-11.5 38.5-20 80.5-23.5 125l-9.5 132.5c-25.5 10.5-77 27.5-145.5 27.5h-6z" />
<glyph unicode="&#xe9b6;" glyph-name="clock" d="M520 832c216 0 392-176 392-392 0-104.5-41-203-115-277s-172.5-115-277-115c-216 0-392 176-392 392s176 392 392 392zM743 217c59.5 59.5 92 139 92 223 0 174-141 315-315 315s-315-141-315-315 141-315 315-315c84 0 163.5 32.5 223 92zM560 672v-217l165-101-42-68-203 124v262h80z" />
<glyph unicode="&#xe9b7;" glyph-name="stopwatch" d="M802 712c68-70.5 110-166.5 110-272 0-104.5-41-203-115-277s-172.5-115-277-115c-216 0-392 176-392 392 0 202.5 154.5 370 352 390v66h-80v80h240v-80h-80v-66c66.5-7 128.5-30.5 181-66.5l71 86 61.5-51zM743 217c59.5 59.5 92 139 92 223 0 174-141 315-315 315s-315-141-315-315 141-315 315-315c84 0 163.5 32.5 223 92zM560 500c19.5-13 32-35 32-60 0-39.5-32.5-72-72-72s-72 32.5-72 72c0 25 12.5 47 32 60v172h80v-172z" />
<glyph unicode="&#xe9b8;" glyph-name="alarmclock" d="M520 832c216 0 392-176 392-392 0-92-31.5-179.5-90-249.5l89.5-127.5-65.5-46-81.5 116.5c-69.5-55.5-154.5-85.5-244.5-85.5-92.5 0-177.5 32.5-244.5 86l-83-117-65 46 90 128c-56 68-89.5 154.5-89.5 249 0 216 176 392 392 392zM520 125c84 0 163.5 32.5 223 92s92 139 92 223c0 174-141 315-315 315s-315-141-315-315 141-315 315-315zM480 455v217h80v-262l-203-124-42 68zM729 943l240-192-50-62.5-240 192zM311 943l50-62.5-240-192-50 62.5z" />
<glyph unicode="&#xe9b9;" glyph-name="egg" d="M649 187c-6-4-9-9-9-15 0-7.5 3.5-15 9.5-20 13-10.5 25-18.5 36.5-26 43-28.5 82-55.5 82-150v-40h-512v40c0 94.5 38.5 121.5 81.5 150 12 7.5 24 15.5 37 26 6 5 9.5 12.5 9.5 20 0 6-3 11-9 15-8.5 6-21 12-34.5 18.5-60 29-148.5 73-148.5 218.5v40h640v-40c0-145.5-89-189.5-148.5-218.5-13.5-6.5-26-12.5-34.5-18.5zM600 89.5c-26.5 20.5-41 52.5-40 85.5 1 31.5 17 60 44 78 13.5 9 28.5 16.5 44.5 24.5 45.5 22 87.5 42.5 100 106.5h-473c12.5-64 54.5-84.5 100-106.5 16-8 31-15.5 44.5-24.5 27-18 43-46.5 44-78 1-33-13.5-65-40-85.5-15.5-12.5-29.5-22-42-30-24.5-16.5-35.5-27.5-41.5-43.5h343.5c-6 16-17 26.5-42 43.5-12.5 8-26.5 17.5-42 30zM321.5 528h-78.5c-2 13.5-3 26.5-3 40.5 0 196.5 143.5 343.5 272 343.5s272-147 272-343.5c0-14-1-27-3-40.5h-78.5c2 13 3.5 26.5 3.5 40 0 120-89.5 266.5-194 266.5s-194-146.5-194-266.5c0-13.5 1.5-27 3.5-40z" />
<glyph unicode="&#xe9ba;" glyph-name="eggs" d="M480 419c0-98.5-68-179-152-179s-152 80.5-152 179c0 97 65 205 152 205s152-108 152-205zM254 419c0-55.5 34-102.5 74-102.5s74 47 74 102.5c0 66-41.5 128.5-74 128.5s-74-62.5-74-128.5zM848 419c0-98.5-68-179-152-179s-152 80.5-152 179c0 97 65 205 152 205s152-108 152-205zM622 419c0-55.5 34-102.5 74-102.5s74 47 74 102.5c0 66-41.5 128.5-74 128.5s-74-62.5-74-128.5zM909 784l115-352-115-352h-336l-61 73.5-61-73.5h-336l-104.5 320h84l78-240h241l98.5 118.5 98.5-118.5h241l88.5 272-88.5 272h-679l-78-240h-84l104.5 320h794z" />
<glyph unicode="&#xe9bb;" glyph-name="cheese" d="M400 544c-35.5 0-64 28.5-64 64s28.5 64 64 64 64-28.5 64-64-28.5-64-64-64zM544 144c-44 0-80 36-80 80s36 80 80 80 80-36 80-80-36-80-80-80zM112 848h752v-239c-5 1-10.5 1.5-16 1.5-45.5 0-82.5-37-82.5-82.5s37-82.5 82.5-82.5c5.5 0 11 0.5 16 1.5v-479h-752v289.5c7.5-3 15.5-5 24-5 33 0 59.5 26.5 59.5 59.5s-26.5 59.5-59.5 59.5c-8.5 0-16.5-2-24-5v481.5zM784 674.5v93.5h-592v-332c47-21.5 80-69 80-124s-33-102.5-80-124v-140h592v333.5c-56.5 24.5-96 81-96 146.5s39.5 122 96 146.5z" />
<glyph unicode="&#xe9bc;" glyph-name="chickenleg" d="M876.5 748c58.5-58.5 88-133 83-210-5.5-86-52.5-167.5-132-229-84-64-187-101-283-101-13 0-25 1-37 2l-115.5-115c0.5-26.5-5-71-37.5-106-21.5-23.5-50.5-36-80-36-8.5 0-17.5 1-26 3-38 9.5-69.5 38.5-86.5 78.5-40 17-68.5 48-78 86-9.5 38.5 2.5 78.5 32 106.5 33.5 31.5 79.5 37 106 37l61 61.5c7.5-29 19.5-55.5 34.5-78.5l-65-65.5-19.5 2c-10.5 1-45 1-62-15-8.5-8-12-18.5-9.5-28.5 4-16 20-29 42.5-35.5l22-6 6-22c6.5-22.5 19.5-38.5 35.5-42.5 10.5-2.5 20.5 0.5 28.5 9.5 17 18 17 50 15.5 60.5l-3 20 14 14.5 98 98c-12 7-23 14.5-32 23.5-77 77.5-76 277 49 439 65 84.5 154.5 133 245.5 133 71.5 0 138.5-29 193.5-84zM880 543c3.5 54.5-17.5 106-60 149-39.5 39.5-87 60-137 60-66 0-132.5-37-182.5-101.5-102-132.5-101-288.5-55.5-334 18-18 55-29 99.5-29 78 0 165.5 32 234 85 61.5 47 97.5 108 101.5 170.5z" />
<glyph unicode="&#xe9bd;" glyph-name="pizzapie" d="M528 880c238 0 432-194 432-432s-194-432-432-432-432 194-432 432 194 432 432 432zM528 92.5c196 0 355.5 159.5 355.5 355.5s-159.5 355.5-355.5 355.5-355.5-159.5-355.5-355.5 159.5-355.5 355.5-355.5zM785 426.5c14-60.5-27-122-92-137.5l-16 67-50.5-12-20 84.5 50.5 12-16 67c65 15.5 129.5-21 144-81zM688 632c0-31-25-56-56-56s-56 25-56 56 25 56 56 56 56-25 56-56zM456 320c31 0 56-25 56-56s-25-56-56-56-56 25-56 56 25 56 56 56zM496 512c0-61.5-50.5-112-112-112s-112 50.5-112 112 50.5 112 112 112 112-50.5 112-112zM384 461.5c28 0 50.5 22.5 50.5 50.5s-22.5 50.5-50.5 50.5-50.5-22.5-50.5-50.5 22.5-50.5 50.5-50.5z" />
<glyph unicode="&#xe9be;" glyph-name="pizza" d="M593 510.5l-21.5-35.5-59.5 36 22 35.5-47.5 29.5c28.5 45.5 85.5 61.5 128 35.5 42.5-26.5 54.5-84.5 26-130.5zM448 368c0 26.5 21.5 48 48 48s48-21.5 48-48-21.5-48-48-48-48 21.5-48 48zM352 600c0 22 18 40 40 40s40-18 40-40-18-40-40-40-40 18-40 40zM504 928c160 0 319-36.5 462-105.5l-453.5-873-390 751.5c-0.5 0 68.5 28 74.5 30 98 34.5 202.5 53 307 53 88 0 175.5-13 259.5-37.5l-37.5-72.5c-72 19.5-147 31.5-222 31.5-93.5 0-183.5-16.5-270-46l278.5-536.5 342.5 660c-111.5 42.5-230.5 66.5-351 66.5-144 0-282-32-411-91.5l-37 71c140.5 65.5 291 99 448 99z" />
<glyph unicode="&#xe9bf;" glyph-name="cheesepizza" d="M558.5 340l-68 42 25 41-54.5 33.5c32.5 52.5 98.5 71 147.5 41 48.5-30 62-97.5 29.5-150l-54.5 33.5zM336 336c0 26.5 21.5 48 48 48s48-21.5 48-48-21.5-48-48-48-48 21.5-48 48zM889.5 602.5c73.5-142 114.5-299.5 119-458.5h-256.5c0-62-50-112-112-112s-112 50-112 112h-64v-80c0-62-50-112-112-112s-112 50-112 112v80.5h-215l487.5 692c102.5-80.5 188.5-183.5 249-300.5 40.5-78 69.5-162 86.5-247.5h-82c-15.5 73-40.5 144-75.5 210.5-43 83-98 156.5-164 219.5l-347.5-494.5h141v-160c0-17.5 14.5-32 32-32s32 14.5 32 32v160h224v-80c0-17.5 14.5-32 32-32s32 14.5 32 32v80h250.5c-13.5 118.5-48.5 235-104 341.5-66.5 128-157 236.5-269.5 323.5l46 65.5c123-94.5 222-212.5 294.5-352z" />
<glyph unicode="&#xe9c0;" glyph-name="frenchfries" d="M415.5 592h-79.5l-24 347 80 2.5zM712 936.5l-39-344.5h-80.5l39.5 352zM855.5 816l-50-288h42.5l-99-480h-490l-99 480h45.5l-45.5 323 79 13 47-336h89.5l11.5-20c19.5-34 50.5-48.5 77-55.5v459.5h80v-459.5c26.5 7 57.5 21.5 77 55.5l11.5 20h91.5l52.5 302zM684 128l66 320h-73c-38.5-48-101-80-173-80s-134.5 32-173 80h-73l66-320h360z" />
<glyph unicode="&#xe9c1;" glyph-name="apple" d="M757 684.5c103-73.5 104-245 73.5-370.5-27-111-90-234.5-185-248-9.5-1.5-19-2-27.5-2-42 0-67.5 15.5-88.5 28.5-14.5 9-26.5 16.5-45.5 20.5-12.5 3-25.5-4-48-16.5-34.5-19.5-81.5-46.5-148.5-21.5-93.5 35-151.5 201-158.5 340-8 146.5 39 255.5 128 299.5 62 30.5 122 24 168.5 8 4.5-22.5 5-57.5 3.5-88-33.5 17.5-85 33.5-137 8.5-83.5-41.5-86-170.5-83.5-224 7-131.5 63-253 106.5-269 31-11.5 50.5-3.5 82 14 22 13 48.5 28 81 28 7.5 0 15-1 23-2.5 32-7 53.5-20 70.5-30.5 21.5-13.5 32.5-18 63-14 42.5 6.5 93.5 87 118.5 188 31.5 129 14 247.5-43 288-62.5 45-154.5 1.5-155.5 1l-61-30c6 41 6.5 83.5 1 124.5-7.5 57.5-27 113-57.5 162l68 42.5c15.5-25.5 27.5-50.5 37.5-74.5 17 25.5 42 53 76 68 75 33.5 165.5-6 165.5-6s-31-93.5-106-127c-38-17-80-15-112.5-9 5-22 8-43.5 10-60.5 48.5 11.5 120 17 181.5-27.5z" />
<glyph unicode="&#xe9c2;" glyph-name="carrot" d="M767.5 611.5l72 16.5c20.5-66.5 3-133.5-54.5-190.5-139-139-349.5-284.5-496.5-367-26-14.5-55-22.5-83-22.5-35 0-67 12.5-90 35.5-42 42-47.5 111.5-13 173 82.5 147 228 357.5 367 496.5 42 42 88 63 137 63 17.5 0 35-3 53-8.5l-17-71c-0.5-2.5-0.5-4.5-1-7-12 4.5-23.5 7-35 7-27.5 0-54-13-80.5-40-1.5-1-2.5-2.5-4-4l101-100.5-56.5-57-99 99.5c-66-74.5-130.5-160.5-187-243l71-71-56.5-57-59.5 59.5c-23.5-37.5-45-73-63.5-105.5-16.5-29.5-16.5-61.5 0-77.5 10-10 24-12.5 33.5-12.5 14.5 0 30 4.5 44 12.5 78 43.5 173.5 105 266.5 174l-85.5 85.5 56.5 56.5 93-93c54 43 105 87 149 131 15.5 15.5 55.5 55.5 33 116.5 1.5 0.5 3.5 0.5 5.5 1zM744 672.5c-10.5 0-21 4.5-28.5 12-9.5 9.5-14 24-10.5 37.5l48.5 208 78-18-34-145.5 145.5 34 18-78-208-49c-3-0.5-6-1-9-1z" />
<glyph unicode="&#xe9c3;" glyph-name="broccoli" d="M976 528c0-145-114.5-264-258-271.5-22.5-71.5-42-156.5-51-252l-3-36.5h-304l-3 36.5c-6.5 68.5-18.5 131.5-32.5 188 4-0.5 7.5-0.5 11.5-0.5 23.5 0 46.5 3 69 7.5 11.5-46.5 21-97 27.5-151.5h159c9.5 80.5 26 153.5 45 216.5-22.5 6-44 14.5-64 26 19 19 36 40.5 50.5 63.5 25-11.5 52.5-18 81-18 106 0 192 86 192 192 0 101-79 185-180 191.5l-20.5 1-11 18c-35 58.5-96.5 93.5-164.5 93.5s-129.5-35-164.5-93.5l-11-18-20.5-1c-101-6.5-180-90.5-180-191.5 0-106 86-192 192-192 60 0 115.5 27.5 152 75.5l32 41.5s26-38 50.5-62.5c-16.5-27.5-37.5-52-62-72v-0.5c-48-39.5-108.5-62-172.5-62-150 0-272 122-272 272 0 136 101.5 250.5 234 269 51.5 72.5 132.5 115 222 115s171-42.5 222-115c132.5-18.5 234-133 234-269z" />
<glyph unicode="&#xe9c4;" glyph-name="cucumber" d="M588 272c4 2.5 8.5 2 11.5-0.5 3-3 3.5-8 2.5-13-1-2.5-16.5-52.5-34-76-7-9-15.5-15.5-24-18.5-30-11-43.5 26-17.5 59.5 18 23.5 59.5 47.5 61.5 48.5zM648.5 270.5c1-1 35-23.5 45-46 8.5-19 3.5-44-12-56-13-10-33.5-9.5-43.5 12.5-10 23-8.5 73-8.5 75 0.5 11.5 12 19 19 14.5zM662.5 325c1.5 1 37.5 37.5 62 47 23 9 38-3 40-19.5 1-10-4.5-37-33-48-21-8-53-4.5-67-2.5-10.5 1.5-8.5 16.5-2 23zM407 289c-8.5-0.5-17.5-1-26-1-71.5 0-136.5 28.5-183.5 80-52.5 58-76.5 139-67.5 228 17.5 176 164 332 327 347 81.5 7.5 157-21.5 209-79 53-58 77-139 68-228-17.5-176.5-164-332-327-347zM255.5 419.5c35.5-39.5 86-58.5 144-53 127.5 11.5 243 136.5 257.5 278 6.5 66.5-10.5 126.5-48.5 168-32 35.5-75 54-125 54-6.5 0-12.5-0.5-19-1-127.5-11.5-243-136.5-257.5-278-6.5-66.5 10.5-126.5 48.5-168zM354.5 617c-10.5 0-19 1-25 3.5-21 8-24.5 31-16.5 47.5 6.5 13.5 20 22.5 34 22.5 4 0 8.5-1 12-2.5 21.5-8 45.5-42.5 46.5-44 5.5-7.5-0.5-21-10-22.5-0.5-0.5-21-4.5-41-4.5zM408 588c3-3 4-8 2.5-13-1-2-16-51.5-34-74.5-7-9-15.5-15.5-23.5-18.5-30-11-43.5 25.5-18 58.5 18 23.5 59.5 47.5 61.5 48.5 4 2 8.5 1.5 11.5-1zM456.5 587c1.5-1 35.5-23 45.5-45.5 8.5-18.5 3.5-43-12.5-55-12.5-10-33-9.5-43 12.5-10 22.5-8.5 72-8.5 74 0.5 11 12 18.5 18.5 14zM473 618.5c-10.5 1.5-8.5 16-2.5 22 2 2 38 37.5 62 47 23 8.5 38.5-3 40-19.5 1.5-10-4-36.5-33-47.5-20.5-7.5-52.5-4.5-66.5-2zM453 662c-6.5-11-18-8.5-20-0.5-1.5 5-12 47-7 74.5 5 30.5 26 44.5 38.5 43.5 16-1 25-19 21-42-4.5-28.5-31.5-73.5-32.5-75.5zM857 551.5c53.5-59 78-141 69-231.5-17.5-178.5-164.5-335.5-327.5-351-9-0.5-17.5-1-26-1-71.5 0-136 28.5-183 79.5-42.5 47.5-66.5 110-69.5 179 20-3.5 40-5.5 61-5.5 5.5 0 11 0.5 16.5 0.5 4-48 21-90 49.5-122 36-39.5 86-58.5 143.5-53 128 12 244 138 258.5 282 6.5 68-11 129-49.5 171.5-7 8-15 15-23.5 21.5 9 25 16.5 51.5 21 78 22-12.5 42.5-28.5 60-48z" />
<glyph unicode="&#xe9c5;" glyph-name="orange" d="M536 480c-22 0-40 18-40 40s18 40 40 40 40-18 40-40-18-40-40-40zM536 320c-22 0-40 18-40 40s18 40 40 40 40-18 40-40-18-40-40-40zM704 440c0-22-18-40-40-40s-40 18-40 40 18 40 40 40 40-18 40-40zM783.5 623.5c72.5-72.5 112.5-169 112.5-271.5s-40-199-112.5-271.5-169-112.5-271.5-112.5-199 40-271.5 112.5-112.5 169-112.5 271.5c0 188 136 345 315 377.5 3-14.5 7-42.5 6.5-77-139.5-29-244.5-152.5-244.5-300.5 0-82 32-159 90-217s135-90 217-90 159 32 217 90 90 135 90 217-32 159-90 217c-57.5 57.5-134 89.5-215.5 90 0 12-0.5 24.5-1.5 36.5-1 16-3.5 31.5-6 47-2.5 13-6 26-10 39-10 34.5-25 68-44 98.5l68 42c16-25.5 28.5-51 38-75.5 17.5 25.5 43 52.5 76.5 67.5 77 34.5 170-6 170-6s-32-96.5-109-131c-38-17-80.5-15.5-113-9.5 3-14 5-27.5 6.5-39 73-15 140.5-51 194.5-105z" />
<glyph unicode="&#xe9c6;" glyph-name="lemon" d="M709.5 733c115.5-79.5 163-195.5 153.5-377-10.5-193.5-135-295.5-224.5-321.5-30.5-33.5-67.5-50.5-110.5-50.5s-80 17-110.5 50.5c-89.5 26-214 128-224.5 321.5-9.5 181.5 38 297.5 153.5 377 24 16 34.5 39 47.5 65 19.5 41.5 46.5 98 134 98s114.5-56.5 134-98c13-26 23.5-49 47.5-65zM785.5 359.5c10 193.5-55 265-120 310-42 28.5-60 66.5-75 97.5-19.5 41-26.5 52.5-62.5 52.5s-43-11.5-62.5-52.5c-15-31-33-69-75-97.5-65-45-130-116.5-120-310 9.5-179.5 131-244 177-253.5l14-3 9-11.5c22-27.5 42-31.5 57.5-31.5 15 0 35.5 4 57.5 31.5l9 11.5 14.5 3c45.5 9.5 167 74 176.5 253.5zM536 608c22 0 40-18 40-40s-18-40-40-40-40 18-40 40 18 40 40 40zM536 448c22 0 40-18 40-40s-18-40-40-40-40 18-40 40 18 40 40 40zM664 528c22 0 40-18 40-40s-18-40-40-40-40 18-40 40 18 40 40 40z" />
<glyph unicode="&#xe9c7;" glyph-name="onion" d="M763.5 691.5c72-68 162-153 147-293-15-139.5-143.5-220.5-226-258.5l-47 69c66 29.5 183 91 194.5 198 9 83.5-35 139.5-88.5 193-75.5-34.5-181-88.5-264-223.5l-68 42c84.5 137.5 191 202 270 240.5-9.5 9.5-18.5 19-27 28.5-56.5 62-79 128.5-88.5 160.5h-76c-9.5-32-32-98.5-88.5-160.5-16.5-18.5-35-36-54.5-54.5-68-64.5-134-125-123-226 11.5-107 128.5-168.5 194-198l-46.5-69c-82.5 38-211 119-226 258.5-15 140 75 225 146.5 293 18.5 17 36 33.5 50.5 49.5 69.5 76.5 73.5 147.5 73.5 148.5l1.5 38.5h221l1.5-38.5c0-2.5 4.5-72 73.5-148.5 14.5-16 32-32.5 50-49.5zM528 226c13.5 0 25.5-6.5 33-17.5l130-192.5h-96.5l-66.5 98.5-66.5-98.5h-96.5l130 192.5c7.5 11 19.5 17.5 33 17.5z" />
<glyph unicode="&#xe9c8;" glyph-name="bellpepper" d="M547 314.5l77-20c-42.5-166-157.5-230.5-243.5-230.5-12.5 0-24.5 1.5-35.5 4-69.5 16.5-152.5 68.5-152.5 221.5 0 62-13.5 119-26.5 174.5-23.5 96.5-47 197 36.5 275 35 32.5 77 48 122 44.5 15-1 29-4.5 43-9-0.5-26.5 2-59 11-92.5-19.5 12-40 20.5-60 22-23 1.5-43-6-62-23.5-47.5-44.5-37-98.5-13.5-198 13.5-57 29-121.5 29-193 0-108.5 49-133.5 91-143.5 54-13 149 32 184 168.5zM842 756.5c98.5-65.5 71-180 47-274.5-12.5-47.5-25-97-25-144 0-80-6.5-246-170.5-271.5-9-1.5-18-2.5-26.5-2.5-36 0-66.5 11.5-90 24 21 21.5 37.5 44 50.5 64.5 15-6.5 33.5-10.5 53.5-7 63 9.5 103 43 103 192.5 0 57 14.5 114 27.5 164 26.5 104 33 157-14 188-40 27-79 2.5-139.5-40.5-46-32.5-109-77-170-30-36 28-54 89-56 138-2 52.5 13 96.5 42.5 123 52 47 154 48.5 277.5 47l-1-79.5c-67.5 0.5-190.5 3-223-27-11.5-10-17.5-32.5-16.5-60.5 1.5-40 17-71.5 25-77.5 12-9.5 30.5 0 75 32 53.5 37.5 140 102 230.5 41.5z" />
<glyph unicode="&#xe9c9;" glyph-name="peas" d="M883 314c58.5-107.5 43.5-259.5 42.5-266l-2.5-26-24.5-8c-2.5-1-42-14-104.5-14-49 0-113.5 8-184.5 35-188.5 73-336.5 248-381 376-26.5 77-21 147.5-15.5 184-34 32-103.5 110-150.5 241.5l75 27.5c54.5-151.5 141.5-221 142.5-221.5l21.5-17-7.5-26.5c0-0.5-20-76.5 9-161.5 39-112.5 175-265.5 334.5-327 95.5-36.5 173-32 210.5-25.5 1 43.5-1.5 129-34.5 190-25 45.5-56 61-97 82.5-38.5 20-82.5 43-126.5 94.5-20.5 24-38 53.5-55 82-46.5 78.5-80.5 139-180.5 121.5-14.5 10-39.5 30-67 62 194.5 63.5 262.5-51.5 316-142.5 16-26.5 30.5-51.5 47-70.5 34-39.5 67-57 102.5-75.5 45.5-24 93.5-48.5 130-115zM696 144c-39.5 0-72 32-72 72s32.5 72 72 72 72-32 72-72-32.5-72-72-72zM520 256c-39.5 0-72 32.5-72 72 0 40 32.5 72 72 72s72-32 72-72c0-39.5-32.5-72-72-72zM408 576c40 0 72-32.5 72-72 0-40-32-72-72-72s-72 32-72 72c0 39.5 32 72 72 72z" />
<glyph unicode="&#xe9ca;" glyph-name="grapes" d="M471.5 697.5c-8 135-191.5 183-193.5 183.5l19.5 78c6.5-2 98.5-26 170.5-90l100 75 48-64-96.5-72.5c18-31 30.5-67 32-110 51.5-16.5 88.5-65 88.5-121.5 0-70.5-57.5-128-128-128s-128 57.5-128 128c0 56.5 37 104.5 87.5 121.5zM512 627.5c-28.5 0-51.5-23-51.5-51.5s23-51.5 51.5-51.5 51.5 23 51.5 51.5-23 51.5-51.5 51.5zM352 576c0-70.5-57.5-128-128-128s-128 57.5-128 128 57.5 128 128 128 128-57.5 128-128zM224 524.5c28.5 0 51.5 23 51.5 51.5s-23 51.5-51.5 51.5-51.5-23-51.5-51.5 23-51.5 51.5-51.5zM512 192c70.5 0 128-57.5 128-128s-57.5-128-128-128-128 57.5-128 128 57.5 128 128 128zM512 12.5c28.5 0 51.5 23 51.5 51.5s-23 51.5-51.5 51.5-51.5-23-51.5-51.5 23-51.5 51.5-51.5zM496 320c0-70.5-57.5-128-128-128s-128 57.5-128 128 57.5 128 128 128 128-57.5 128-128zM368 268.5c28.5 0 51.5 23 51.5 51.5s-23 51.5-51.5 51.5-51.5-23-51.5-51.5 23-51.5 51.5-51.5zM656 448c70.5 0 128-57.5 128-128s-57.5-128-128-128-128 57.5-128 128 57.5 128 128 128zM656 268.5c28.5 0 51.5 23 51.5 51.5s-23 51.5-51.5 51.5-51.5-23-51.5-51.5 23-51.5 51.5-51.5zM800 704c70.5 0 128-57.5 128-128s-57.5-128-128-128-128 57.5-128 128 57.5 128 128 128zM800 524.5c28.5 0 51.5 23 51.5 51.5s-23 51.5-51.5 51.5-51.5-23-51.5-51.5 23-51.5 51.5-51.5z" />
<glyph unicode="&#xe9cb;" glyph-name="strawberry" d="M922 600c35-186.5-88.5-360.5-143-426.5-87.5-105.5-189-173.5-259-173.5s-171.5 68-258.5 173.5c-55 66-178.5 240-143.5 426.5 16.5 87 65 145.5 139.5 171.5 48-19 85.5-41.5 114-61.5-5 0.5-10 0.5-15.5 0.5-124.5 0-152.5-70.5-162.5-123-20-108 27.5-244 127.5-364.5 75.5-91.5 160.5-146 199-146s123.5 54.5 199 146c100 120.5 147.5 257 127.5 364.5-10 52.5-38 123-162.5 123-5.5 0-11 0-16-0.5 28 20 66 42.5 114 61.5 75-26 123.5-84.5 140-171.5zM488.5 692.5c-0.5 1-84.5 104-262.5 158l23.5 76.5c105-32 181-79 230.5-117.5v102.5h80v-102.5c49.5 38.5 125.5 85.5 230.5 117.5l23.5-76.5c-179.5-54.5-262-157-262.5-158-7.5-9.5-19-15-31.5-15-12 0-24 5.5-31.5 15zM328 592c22 0 40-25 40-56s-18-56-40-56-40 25-40 56 18 56 40 56zM520 592c22 0 40-25 40-56s-18-56-40-56-40 25-40 56 18 56 40 56zM520 288c22 0 40-25 40-56s-18-56-40-56-40 25-40 56 18 56 40 56zM392 320c-22 0-40 25-40 56s18 56 40 56 40-25 40-56-18-56-40-56zM648 432c22 0 40-25 40-56s-18-56-40-56-40 25-40 56 18 56 40 56zM712 480c-22 0-40 25-40 56s18 56 40 56 40-25 40-56-18-56-40-56z" />
</font>
</defs>
</svg>
