<svg width="125" height="119" viewBox="0 0 125 119" fill="none" xmlns="http://www.w3.org/2000/svg"><rect x="7.72339" width="116.775" height="110.72" rx="2" transform="rotate(4 7.72339 0)" fill="#D0D1D7"></rect> <g filter="url(#filter0_dd_512:1750)"><rect x="28.8455" y="33.635" width="38" height="34" rx="1.12121" transform="rotate(1 28.8455 33.635)" fill="white"></rect></g> <path d="M38.7173 42.0584C38.7197 41.9204 38.8336 41.8104 38.9716 41.8128L56.469 42.1182C56.607 42.1206 56.717 42.2345 56.7146 42.3725L56.4092 59.8699C56.4067 60.0079 56.2929 60.1179 56.1548 60.1155L38.6575 59.8101C38.5194 59.8077 38.4095 59.6938 38.4119 59.5557L38.7173 42.0584Z" fill="#434960"></path> <path d="M28.7234 41.6339L35.4724 41.7517C35.6104 41.7541 35.7204 41.868 35.718 42.006L35.4125 59.5034C35.4101 59.6414 35.2963 59.7514 35.1582 59.749L28.4092 59.6312L28.7234 41.6339Z" fill="#8C8F9A"></path> <path d="M59.7141 42.4249C59.7166 42.2868 59.8304 42.1769 59.9685 42.1793L66.7174 42.2971L66.4033 60.2944L59.6543 60.1765C59.5163 60.1741 59.4063 60.0603 59.4087 59.9222L59.7141 42.4249Z" fill="#8C8F9A"></path> <g filter="url(#filter1_dd_512:1750)"><rect x="61.4363" y="49.0666" width="34.5032" height="36.7292" rx="1.11301" transform="rotate(8 61.4363 49.0666)" fill="white"></rect> <rect x="60.5852" y="47.9371" width="36.5032" height="38.7292" rx="2.11301" transform="rotate(8 60.5852 47.9371)" stroke="#D0D1D7" stroke-width="2"></rect></g> <rect x="66.2253" y="57.0946" width="9" height="9" rx="0.5" transform="rotate(8 66.2253 57.0946)" fill="#434960"></rect> <rect x="64.0569" y="70.5251" width="9" height="9" rx="0.5" transform="rotate(8 64.0569 70.5251)" fill="#434960"></rect> <rect x="79.5535" y="59.1083" width="9" height="9" rx="0.5" transform="rotate(8 79.5535 59.1083)" fill="#434960"></rect> <rect x="77.385" y="72.539" width="9" height="9" rx="0.5" transform="rotate(8 77.385 72.539)" fill="#434960"></rect> <defs><filter id="filter0_dd_512:1750" x="23.2715" y="32.6544" width="48.5488" height="44.6192" filterUnits="userSpaceOnUse" color-interpolation-filters="sRGB"><feFlood flood-opacity="0" result="BackgroundImageFix"></feFlood> <feColorMatrix in="SourceAlpha" type="matrix" values="0 0 0 0 0 0 0 0 0 0 0 0 0 0 0 0 0 0 127 0" result="hardAlpha"></feColorMatrix> <feOffset dy="4"></feOffset> <feGaussianBlur stdDeviation="2.5"></feGaussianBlur> <feColorMatrix type="matrix" values="0 0 0 0 0 0 0 0 0 0 0 0 0 0 0 0 0 0 0.05 0"></feColorMatrix> <feBlend mode="normal" in2="BackgroundImageFix" result="effect1_dropShadow_512:1750"></feBlend> <feColorMatrix in="SourceAlpha" type="matrix" values="0 0 0 0 0 0 0 0 0 0 0 0 0 0 0 0 0 0 127 0" result="hardAlpha"></feColorMatrix> <feOffset dy="1"></feOffset> <feGaussianBlur stdDeviation="1"></feGaussianBlur> <feColorMatrix type="matrix" values="0 0 0 0 0 0 0 0 0 0 0 0 0 0 0 0 0 0 0.05 0"></feColorMatrix> <feBlend mode="normal" in2="effect1_dropShadow_512:1750" result="effect2_dropShadow_512:1750"></feBlend> <feBlend mode="normal" in="SourceGraphic" in2="effect2_dropShadow_512:1750" result="shape"></feBlend></filter> <filter id="filter1_dd_512:1750" x="49.4683" y="46.2102" width="52.9917" height="54.8863" filterUnits="userSpaceOnUse" color-interpolation-filters="sRGB"><feFlood flood-opacity="0" result="BackgroundImageFix"></feFlood> <feColorMatrix in="SourceAlpha" type="matrix" values="0 0 0 0 0 0 0 0 0 0 0 0 0 0 0 0 0 0 127 0" result="hardAlpha"></feColorMatrix> <feOffset dy="4"></feOffset> <feGaussianBlur stdDeviation="2.5"></feGaussianBlur> <feColorMatrix type="matrix" values="0 0 0 0 0 0 0 0 0 0 0 0 0 0 0 0 0 0 0.05 0"></feColorMatrix> <feBlend mode="normal" in2="BackgroundImageFix" result="effect1_dropShadow_512:1750"></feBlend> <feColorMatrix in="SourceAlpha" type="matrix" values="0 0 0 0 0 0 0 0 0 0 0 0 0 0 0 0 0 0 127 0" result="hardAlpha"></feColorMatrix> <feOffset dy="1"></feOffset> <feGaussianBlur stdDeviation="1"></feGaussianBlur> <feColorMatrix type="matrix" values="0 0 0 0 0 0 0 0 0 0 0 0 0 0 0 0 0 0 0.05 0"></feColorMatrix> <feBlend mode="normal" in2="effect1_dropShadow_512:1750" result="effect2_dropShadow_512:1750"></feBlend> <feBlend mode="normal" in="SourceGraphic" in2="effect2_dropShadow_512:1750" result="shape"></feBlend></filter></defs></svg>