<svg width="20" height="24" viewBox="0 0 20 24" fill="none" xmlns="http://www.w3.org/2000/svg">
<path d="M10 3.7002C5.41667 3.7002 1.66667 7.44186 1.66667 12.0502C1.66667 16.2169 4.71667 19.6752 8.70001 20.3002V14.4669H6.58334V12.0502H8.70001V10.2085C8.70001 8.11686 9.94167 6.96686 11.85 6.96686C12.7583 6.96686 13.7083 7.1252 13.7083 7.1252V9.18353H12.6583C11.625 9.18353 11.3 9.8252 11.3 10.4835V12.0502H13.6167L13.2417 14.4669H11.3V20.3002C13.2637 19.9901 15.0518 18.9881 16.3416 17.4752C17.6314 15.9624 18.3378 14.0382 18.3333 12.0502C18.3333 7.44186 14.5833 3.7002 10 3.7002Z" fill="#006BFA"/>
</svg>
