<svg width="16" height="16" viewBox="0 0 16 16" fill="none" xmlns="http://www.w3.org/2000/svg">
<path d="M14.9733 4.00002C14.46 4.23335 13.9067 4.38669 13.3333 4.46002C13.92 4.10669 14.3733 3.54669 14.5867 2.87335C14.0333 3.20669 13.42 3.44002 12.7733 3.57335C12.2467 3.00002 11.5067 2.66669 10.6667 2.66669C9.09999 2.66669 7.81999 3.94669 7.81999 5.52669C7.81999 5.75335 7.84665 5.97335 7.89332 6.18002C5.51999 6.06002 3.40665 4.92002 1.99999 3.19335C1.75332 3.61335 1.61332 4.10669 1.61332 4.62669C1.61332 5.62002 2.11332 6.50002 2.88665 7.00002C2.41332 7.00002 1.97332 6.86669 1.58665 6.66669V6.68669C1.58665 8.07335 2.57332 9.23335 3.87999 9.49335C3.46047 9.60816 3.02005 9.62413 2.59332 9.54002C2.77439 10.1083 3.12901 10.6056 3.60733 10.962C4.08565 11.3183 4.66362 11.5158 5.25999 11.5267C4.24907 12.327 2.99598 12.7596 1.70665 12.7534C1.47999 12.7534 1.25332 12.74 1.02665 12.7134C2.29332 13.5267 3.79999 14 5.41332 14C10.6667 14 13.5533 9.64002 13.5533 5.86002C13.5533 5.73335 13.5533 5.61335 13.5467 5.48669C14.1067 5.08669 14.5867 4.58002 14.9733 4.00002Z" fill="#141B38"/>
</svg>
