<svg width="20" height="20" viewBox="0 0 20 20" fill="none" xmlns="http://www.w3.org/2000/svg">
<path d="M6.66667 9.99998L10.1267 7.99998L6.66667 5.99998V9.99998ZM14.3733 4.77998C14.46 5.09331 14.52 5.51331 14.56 6.04665C14.6067 6.57998 14.6267 7.03998 14.6267 7.43998L14.6667 7.99998C14.6667 9.45998 14.56 10.5333 14.3733 11.22C14.2067 11.82 13.82 12.2066 13.22 12.3733C12.9067 12.46 12.3333 12.52 11.4533 12.56C10.5867 12.6066 9.79333 12.6266 9.06 12.6266L8 12.6666C5.20667 12.6666 3.46667 12.56 2.78 12.3733C2.18 12.2066 1.79333 11.82 1.62667 11.22C1.54 10.9066 1.48 10.4866 1.44 9.95331C1.39333 9.41998 1.37333 8.95998 1.37333 8.55998L1.33333 7.99998C1.33333 6.53998 1.44 5.46665 1.62667 4.77998C1.79333 4.17998 2.18 3.79331 2.78 3.62665C3.09333 3.53998 3.66667 3.47998 4.54667 3.43998C5.41333 3.39331 6.20667 3.37331 6.94 3.37331L8 3.33331C10.7933 3.33331 12.5333 3.43998 13.22 3.62665C13.82 3.79331 14.2067 4.17998 14.3733 4.77998Z" fill="#141B38"/>
</svg>
