<svg width="20" height="20" viewBox="0 0 20 20" fill="none" xmlns="http://www.w3.org/2000/svg">
<path d="M8 1.35999C4.33334 1.35999 1.33334 4.35332 1.33334 8.03999C1.33334 11.3733 3.77334 14.14 6.96 14.64V9.97332H5.26667V8.03999H6.96V6.56665C6.96 4.89332 7.95334 3.97332 9.48 3.97332C10.2067 3.97332 10.9667 4.09999 10.9667 4.09999V5.74665H10.1267C9.3 5.74665 9.04 6.25999 9.04 6.78665V8.03999H10.8933L10.5933 9.97332H9.04V14.64C10.611 14.3919 12.0415 13.5903 13.0733 12.38C14.1051 11.1697 14.6702 9.63041 14.6667 8.03999C14.6667 4.35332 11.6667 1.35999 8 1.35999Z" fill="#141B38"/>
</svg>
