<svg width="42" height="42" viewBox="0 0 42 42" fill="none" xmlns="http://www.w3.org/2000/svg">
<path fill-rule="evenodd" clip-rule="evenodd" d="M36.5111 19.4797C36.5111 8.72139 29.4592 0 20.7572 0C12.0551 0 5 8.72139 5 19.4797C5 29.7932 11.4621 38.2084 19.6452 38.9143L18.775 41.6699L24.2315 41.2058L22.3171 38.8659C30.2843 37.899 36.5111 29.5902 36.5111 19.4797Z" fill="#FE544F"/>
<path fill-rule="evenodd" clip-rule="evenodd" d="M24.5138 6.84842L25.272 14.6715L33.1279 14.8971L27.4451 20.181L31.9335 26.6729L24.372 25.2515L22.0797 32.8131L18.5991 26.0417L11.5713 29.262L14.2748 22.0029L7.42065 18.5457L14.7578 16.186L12.7332 8.95807L19.6747 12.9155L24.5138 6.84842Z" fill="white"/>
</svg>
