<svg width="151" height="30" viewBox="0 0 183 36" fill="none" xmlns="http://www.w3.org/2000/svg"><path d="M45.608 11.543c-1.842-1.37-3.59-1.559-4.676-1.559-1.464 0-2.787.307-3.897 1.44-.945.969-1.37 2.15-1.37 3.543 0 .756.118 1.866.945 2.74.614.661 1.464.992 2.196 1.252l1.3.448c.448.166 1.416.52 1.841.874.331.284.544.614.544 1.134 0 .59-.26 1.015-.567 1.275-.52.449-1.181.543-1.653.543-.733 0-1.37-.189-1.984-.567-.425-.26-1.063-.803-1.465-1.204l-1.889 2.598c.59.59 1.512 1.323 2.315 1.724.992.496 1.983.661 3.117.661 1.04 0 3.07-.141 4.464-1.606.826-.85 1.393-2.267 1.393-3.897 0-.92-.236-2.054-1.157-2.928-.614-.59-1.464-.945-2.15-1.205l-1.18-.448c-1.063-.402-1.606-.543-1.984-.898-.236-.212-.354-.496-.354-.874 0-.401.165-.755.401-.992.425-.472 1.04-.543 1.535-.543.45 0 1.465.071 2.645 1.134l1.63-2.645Z" fill="#141B38"/>{&quot; &quot;}<path d="M47.729 26.091h3.4v-5.385c0-.354.025-1.535.662-2.149.33-.307.732-.425 1.181-.425.354 0 .78.07 1.134.425.52.52.543 1.346.543 2.055v5.479h3.4v-5.243c0-.685.072-1.511.52-2.078a1.634 1.634 0 0 1 1.323-.638c.496 0 .945.212 1.228.567.449.567.449 1.511.449 2.054v5.338h3.4v-6.66c0-.756-.07-2.173-1.086-3.141-.637-.614-1.677-.992-2.952-.992-.826 0-1.511.142-2.243.59a4.02 4.02 0 0 0-1.347 1.347c-.283-.638-.732-1.158-1.275-1.465-.709-.425-1.535-.472-1.984-.472-.803 0-2.078.165-2.952 1.488v-1.228h-3.401V26.09Z" fill="#141B38"/>{&quot; &quot;}<path d="M75.002 16.739c-.969-1.323-2.41-1.536-3.307-1.536-1.464 0-2.74.52-3.66 1.441-.969.968-1.63 2.48-1.63 4.251 0 1.394.425 2.763 1.535 3.944 1.157 1.228 2.433 1.606 3.944 1.606.874 0 2.197-.212 3.118-1.63v1.276h3.4V15.558h-3.4v1.18Zm-2.457 1.393c.614 0 1.37.236 1.89.732.496.473.78 1.181.78 1.937 0 .897-.379 1.559-.827 1.984a2.52 2.52 0 0 1-1.772.732c-.803 0-1.535-.33-2.007-.827-.307-.33-.709-.945-.709-1.89 0-.944.425-1.558.78-1.912a2.681 2.681 0 0 1 1.865-.756Z" fill="#141B38"/>{&quot; &quot;}<path d="M88.125 16.1c-.85-.495-1.937-.897-3.496-.897-.968 0-2.243.19-3.188 1.063-.614.567-1.016 1.417-1.016 2.433 0 .803.26 1.393.756 1.913.449.449 1.087.78 1.7.968l.85.26c.497.142.804.236 1.04.378.307.189.378.425.378.614 0 .26-.142.52-.354.685-.307.236-.85.236-1.063.236a3.18 3.18 0 0 1-1.417-.33c-.354-.166-.827-.497-1.157-.78l-1.441 2.29c1.37 1.205 2.905 1.512 4.322 1.512 1.11 0 2.385-.165 3.424-1.204.473-.473 1.087-1.37 1.087-2.763 0-.803-.213-1.441-.827-2.008-.543-.496-1.157-.732-1.748-.921l-.897-.283c-.425-.142-.78-.213-1.016-.355-.165-.094-.33-.236-.33-.472 0-.165.094-.354.213-.472.212-.213.614-.307.968-.307.661 0 1.346.283 1.865.59l1.347-2.15Z" fill="#141B38"/>{&quot; &quot;}<path d="M89.957 26.091h3.401v-5.267c0-.52.024-1.535.709-2.196.189-.189.614-.52 1.346-.52.496 0 1.015.166 1.322.473.544.52.567 1.37.567 2.102v5.408h3.401v-6.684c0-.803-.071-2.102-1.039-3.07-.921-.945-2.15-1.063-2.976-1.063-.756 0-1.346.071-2.055.449-.401.213-.85.567-1.275 1.086V8.874h-3.4v17.217Z" fill="#141B38"/>{&quot; &quot;}<path d="M107.852 10.338v15.753h5.928c.968 0 2.857-.095 4.156-1.346.614-.614 1.228-1.606 1.228-3.189 0-1.393-.496-2.29-1.015-2.81-.567-.567-1.417-.945-2.173-1.063a2.889 2.889 0 0 0 1.323-1.157c.425-.685.519-1.393.519-2.008 0-.684-.118-2.007-1.133-2.975-1.228-1.157-3.165-1.205-4.015-1.205h-4.818Zm3.59 2.834h.566c.662 0 1.37 0 1.89.402.283.212.614.637.614 1.322s-.307 1.158-.638 1.394c-.519.378-1.346.449-1.842.449h-.59v-3.567Zm0 6.259h.992c.732 0 1.96 0 2.597.59.237.213.496.638.496 1.276 0 .566-.189 1.015-.519 1.322-.661.614-1.771.638-2.693.638h-.873V19.43Z" fill="#141B38"/>{&quot; &quot;}<path d="M128.842 16.739c-.969-1.323-2.409-1.536-3.307-1.536-1.464 0-2.739.52-3.66 1.441-.969.968-1.63 2.48-1.63 4.251 0 1.394.425 2.763 1.535 3.944 1.157 1.228 2.433 1.606 3.944 1.606.874 0 2.197-.212 3.118-1.63v1.276h3.401V15.558h-3.401v1.18Zm-2.457 1.393c.614 0 1.37.236 1.89.732.496.473.779 1.181.779 1.937 0 .897-.378 1.559-.826 1.984a2.521 2.521 0 0 1-1.772.732c-.803 0-1.535-.33-2.007-.827-.307-.33-.709-.945-.709-1.89 0-.944.425-1.558.78-1.912a2.678 2.678 0 0 1 1.865-.756Z" fill="#141B38"/>{&quot; &quot;}<path d="M134.265 8.874v17.217h3.401V8.874h-3.401Z" fill="#141B38"/>{&quot; &quot;}<path d="M139.784 8.874v17.217h3.401V8.874h-3.401Z" fill="#141B38"/>{&quot; &quot;}<path d="M157.064 20.824c0-1.346-.519-2.857-1.582-3.92-.945-.945-2.551-1.7-4.605-1.7-2.055 0-3.661.755-4.606 1.7-1.063 1.063-1.582 2.574-1.582 3.92s.519 2.858 1.582 3.92c.945.945 2.551 1.701 4.606 1.701 2.054 0 3.66-.756 4.605-1.7 1.063-1.063 1.582-2.575 1.582-3.92Zm-6.187-2.74c.779 0 1.417.26 1.913.756.495.497.779 1.134.779 1.984 0 .85-.284 1.488-.779 1.984-.496.496-1.134.756-1.89.756-.897 0-1.511-.33-1.936-.756-.402-.401-.78-1.015-.78-1.984 0-.85.284-1.488.78-1.984.496-.495 1.133-.755 1.913-.755Z" fill="#141B38"/>{&quot; &quot;}<path d="M170.332 20.824c0-1.346-.519-2.857-1.582-3.92-.945-.945-2.551-1.7-4.605-1.7-2.055 0-3.661.755-4.606 1.7-1.063 1.063-1.582 2.574-1.582 3.92s.519 2.858 1.582 3.92c.945.945 2.551 1.701 4.606 1.701 2.054 0 3.66-.756 4.605-1.7 1.063-1.063 1.582-2.575 1.582-3.92Zm-6.187-2.74c.779 0 1.417.26 1.913.756.496.497.779 1.134.779 1.984 0 .85-.283 1.488-.779 1.984-.496.496-1.134.756-1.89.756-.897 0-1.511-.33-1.936-.756-.402-.401-.78-1.015-.78-1.984 0-.85.284-1.488.78-1.984.496-.495 1.133-.755 1.913-.755Z" fill="#141B38"/>{&quot; &quot;}<path d="M171.745 26.091h3.4v-5.408c0-.685.095-1.441.662-2.008.26-.283.708-.567 1.417-.567.614 0 1.039.213 1.299.473.543.543.567 1.417.567 2.102v5.408h3.4v-6.66c0-.85-.07-2.102-1.062-3.094-.898-.897-2.102-1.063-3.023-1.063-.992 0-2.22.213-3.26 1.535v-1.251h-3.4V26.09Z" fill="#141B38"/>{&quot; &quot;}<path fill-rule="evenodd" clip-rule="evenodd" d="M27.224 16.83C27.224 7.534 21.13 0 13.614 0 6.094 0 0 7.535 0 16.83c0 8.91 5.583 16.18 12.652 16.79L11.902 36l4.714-.401-1.654-2.021c6.883-.836 12.263-8.014 12.263-16.749Z" fill="#FE544F"/>{&quot; &quot;}<path fill-rule="evenodd" clip-rule="evenodd" d="m16.859 5.917.655 6.759 6.787.194-4.91 4.565 3.878 5.609-6.533-1.228-1.98 6.533-3.007-5.85-6.072 2.782 2.336-6.272-5.922-2.986 6.34-2.039L6.68 7.74l5.997 3.418 4.18-5.241Z" fill="#fff"/></svg>
