<svg width="20" height="24" viewBox="0 0 20 24" fill="none" xmlns="http://www.w3.org/2000/svg">
<path d="M10 7.50781C7.5 7.50781 5.50781 9.53906 5.50781 12C5.50781 14.5 7.5 16.4922 10 16.4922C12.4609 16.4922 14.4922 14.5 14.4922 12C14.4922 9.53906 12.4609 7.50781 10 7.50781ZM10 14.9297C8.39844 14.9297 7.07031 13.6406 7.07031 12C7.07031 10.3984 8.35938 9.10938 10 9.10938C11.6016 9.10938 12.8906 10.3984 12.8906 12C12.8906 13.6406 11.6016 14.9297 10 14.9297ZM15.7031 7.35156C15.7031 6.76562 15.2344 6.29688 14.6484 6.29688C14.0625 6.29688 13.5938 6.76562 13.5938 7.35156C13.5938 7.9375 14.0625 8.40625 14.6484 8.40625C15.2344 8.40625 15.7031 7.9375 15.7031 7.35156ZM18.6719 8.40625C18.5938 7 18.2812 5.75 17.2656 4.73438C16.25 3.71875 15 3.40625 13.5938 3.32812C12.1484 3.25 7.8125 3.25 6.36719 3.32812C4.96094 3.40625 3.75 3.71875 2.69531 4.73438C1.67969 5.75 1.36719 7 1.28906 8.40625C1.21094 9.85156 1.21094 14.1875 1.28906 15.6328C1.36719 17.0391 1.67969 18.25 2.69531 19.3047C3.75 20.3203 4.96094 20.6328 6.36719 20.7109C7.8125 20.7891 12.1484 20.7891 13.5938 20.7109C15 20.6328 16.25 20.3203 17.2656 19.3047C18.2812 18.25 18.5938 17.0391 18.6719 15.6328C18.75 14.1875 18.75 9.85156 18.6719 8.40625ZM16.7969 17.1562C16.5234 17.9375 15.8984 18.5234 15.1562 18.8359C13.9844 19.3047 11.25 19.1875 10 19.1875C8.71094 19.1875 5.97656 19.3047 4.84375 18.8359C4.0625 18.5234 3.47656 17.9375 3.16406 17.1562C2.69531 16.0234 2.8125 13.2891 2.8125 12C2.8125 10.75 2.69531 8.01562 3.16406 6.84375C3.47656 6.10156 4.0625 5.51562 4.84375 5.20312C5.97656 4.73438 8.71094 4.85156 10 4.85156C11.25 4.85156 13.9844 4.73438 15.1562 5.20312C15.8984 5.47656 16.4844 6.10156 16.7969 6.84375C17.2656 8.01562 17.1484 10.75 17.1484 12C17.1484 13.2891 17.2656 16.0234 16.7969 17.1562Z" fill="url(#paint0_linear_5949_35270)"/>
<defs>
<linearGradient id="paint0_linear_5949_35270" x1="7.46484" y1="36.7383" x2="44.3242" y2="-0.886719" gradientUnits="userSpaceOnUse">
<stop stop-color="white"/>
<stop offset="0.147864" stop-color="#F6640E"/>
<stop offset="0.443974" stop-color="#BA03A7"/>
<stop offset="0.733337" stop-color="#6A01B9"/>
<stop offset="1" stop-color="#6B01B9"/>
</linearGradient>
</defs>
</svg>