<svg width="21" height="24" viewBox="0 0 21 24" fill="none" xmlns="http://www.w3.org/2000/svg">
<path d="M19.2167 6.99967C18.575 7.29134 17.8833 7.48301 17.1667 7.57467C17.9 7.13301 18.4667 6.43301 18.7333 5.59134C18.0417 6.00801 17.275 6.29967 16.4667 6.46634C15.8083 5.74967 14.8833 5.33301 13.8333 5.33301C11.875 5.33301 10.275 6.93301 10.275 8.90801C10.275 9.19134 10.3083 9.46634 10.3667 9.72467C7.39998 9.57467 4.75832 8.14967 2.99998 5.99134C2.69165 6.51634 2.51665 7.13301 2.51665 7.78301C2.51665 9.02467 3.14165 10.1247 4.10832 10.7497C3.51665 10.7497 2.96665 10.583 2.48332 10.333V10.358C2.48332 12.0913 3.71665 13.5413 5.34998 13.8663C4.82559 14.0098 4.27506 14.0298 3.74165 13.9247C3.96799 14.6351 4.41127 15.2567 5.00916 15.7021C5.60706 16.1476 6.32952 16.3944 7.07498 16.408C5.81134 17.4084 4.24498 17.9491 2.63332 17.9413C2.34998 17.9413 2.06665 17.9247 1.78332 17.8913C3.36665 18.908 5.24998 19.4997 7.26665 19.4997C13.8333 19.4997 17.4417 14.0497 17.4417 9.32467C17.4417 9.16634 17.4417 9.01634 17.4333 8.85801C18.1333 8.35801 18.7333 7.72467 19.2167 6.99967Z" fill="#1B90EF"/>
</svg>
