<svg width="21" height="24" viewBox="0 0 21 24" fill="none" xmlns="http://www.w3.org/2000/svg">
<path d="M8.83335 14.5003L13.1584 12.0003L8.83335 9.50033V14.5003ZM18.4667 7.97533C18.575 8.36699 18.65 8.89199 18.7 9.55866C18.7584 10.2253 18.7834 10.8003 18.7834 11.3003L18.8334 12.0003C18.8334 13.8253 18.7 15.167 18.4667 16.0253C18.2584 16.7753 17.775 17.2587 17.025 17.467C16.6334 17.5753 15.9167 17.6503 14.8167 17.7003C13.7334 17.7587 12.7417 17.7837 11.825 17.7837L10.5 17.8337C7.00835 17.8337 4.83335 17.7003 3.97502 17.467C3.22502 17.2587 2.74169 16.7753 2.53335 16.0253C2.42502 15.6337 2.35002 15.1087 2.30002 14.442C2.24169 13.7753 2.21669 13.2003 2.21669 12.7003L2.16669 12.0003C2.16669 10.1753 2.30002 8.83366 2.53335 7.97533C2.74169 7.22533 3.22502 6.74199 3.97502 6.53366C4.36669 6.42533 5.08335 6.35033 6.18335 6.30033C7.26669 6.24199 8.25835 6.21699 9.17502 6.21699L10.5 6.16699C13.9917 6.16699 16.1667 6.30033 17.025 6.53366C17.775 6.74199 18.2584 7.22533 18.4667 7.97533Z" fill="#EB2121"/>
</svg>
