<?xml version="1.0" standalone="no"?>
<!DOCTYPE svg PUBLIC "-//W3C//DTD SVG 1.1//EN" "http://www.w3.org/Graphics/SVG/1.1/DTD/svg11.dtd" >
<svg xmlns="http://www.w3.org/2000/svg" xmlns:xlink="http://www.w3.org/1999/xlink" version="1.1">
<metadata></metadata>
<defs>
<font id="brandon_textbold_italic" horiz-adv-x="1228" >
<font-face units-per-em="2048" ascent="1434" descent="-614" />
<missing-glyph horiz-adv-x="491" />
<glyph unicode="&#xfb01;" horiz-adv-x="1189" d="M61 -440l164 1157h-98q-18 0 -28.5 13t-8.5 32l19 139q6 45 45 45h100l10 58q80 451 453 450q172 0 317 -106q10 -8 12.5 -25.5t-8.5 -34.5l-75 -108q-31 -43 -62 -23q-94 59 -194 60q-162 0 -189 -220l-6 -51h565q16 0 25.5 -13t5.5 -32l-119 -856q-2 -18 -15 -31.5 t-30 -13.5h-180q-39 0 -35 45l96 672h-344l-159 -1157q-6 -47 -56 -47h-170q-16 0 -27.5 14.5t-7.5 32.5z" />
<glyph unicode="&#xfb02;" horiz-adv-x="1255" d="M63 -440l164 1157h-102q-18 0 -29.5 13t-7.5 30l21 141q6 45 45 45h102l6 37q39 227 163 349t316 122q84 0 160 -32.5t111 -65.5l35 -31l36 66q20 43 58 43h63q14 0 24.5 -13.5t8.5 -31.5l-188 -1344q-4 -18 -16.5 -31.5t-28.5 -13.5h-183q-16 0 -26.5 13.5t-8.5 31.5 l146 1073q-14 27 -65.5 63t-121.5 36q-88 0 -149 -58.5t-74 -177.5l-4 -35h178q16 0 26.5 -12t8.5 -33l-20 -141q-4 -16 -17.5 -29.5t-29.5 -13.5h-179l-159 -1157q-4 -18 -17.5 -32.5t-29.5 -14.5h-183q-16 0 -26.5 14.5t-6.5 32.5z" />
<glyph horiz-adv-x="0" />
<glyph horiz-adv-x="0" />
<glyph horiz-adv-x="682" />
<glyph unicode="&#xd;" horiz-adv-x="681" />
<glyph unicode=" "  horiz-adv-x="491" />
<glyph unicode="&#x09;" horiz-adv-x="491" />
<glyph unicode="&#xa0;" horiz-adv-x="491" />
<glyph unicode="!" horiz-adv-x="538" d="M41 127q0 76 57.5 133t130.5 57q61 0 103.5 -44t42.5 -105q0 -76 -58.5 -132t-134.5 -56q-59 0 -100 43t-41 104zM199 1161l32 234q2 14 13.5 26.5t25.5 12.5h236q14 0 22.5 -11.5t6.5 -27.5l-33 -230l-162 -575q-4 -12 -16.5 -22.5t-24.5 -10.5h-68q-14 0 -23 10.5 t-7 22.5z" />
<glyph unicode="&#x22;" horiz-adv-x="735" d="M168 1065l47 330q2 14 13.5 26.5t25.5 12.5h172q18 0 26.5 -14.5t0.5 -37.5l-129 -325q-12 -31 -37 -31h-90q-14 0 -22.5 12.5t-6.5 26.5zM494 1065l47 330q2 14 13 26.5t26 12.5h172q18 0 26 -14.5t0 -37.5l-129 -325q-12 -31 -37 -31h-90q-14 0 -22 12.5t-6 26.5z" />
<glyph unicode="#" horiz-adv-x="1071" d="M72 424l4 29q4 39 39 39h145l90 335h-133q-14 0 -23.5 11.5t-7.5 27.5l4 29q2 14 14.5 26.5t26.5 12.5h146l125 467q8 33 39 33h32q16 0 23.5 -13.5t3.5 -31.5l-119 -455h291l121 467q4 12 16.5 22.5t24.5 10.5h31q16 0 24 -13.5t4 -31.5l-121 -455h115q14 0 23.5 -11.5 t5.5 -27.5l-4 -29q-2 -16 -13.5 -27.5t-25.5 -11.5h-129l-88 -335h116q14 0 22.5 -11.5t6.5 -27.5l-4 -29q-2 -14 -14.5 -26.5t-26.5 -12.5h-131l-92 -352q-8 -33 -41 -33h-31q-37 0 -29 45l93 340h-293l-90 -352q-10 -33 -41 -33h-31q-16 0 -24.5 13.5t-4.5 31.5l90 340 h-131q-14 0 -23 11.5t-5 27.5zM362 492h291l88 335h-288z" />
<glyph unicode="$" d="M127 164.5q-2 11.5 14 36.5l80 114q35 49 74 13q88 -80 209 -107l57 381q-70 45 -112.5 78t-96 86t-79 116.5t-25.5 137.5q0 178 111.5 299t322.5 133l8 66q2 16 14.5 27t26.5 11h29q14 0 22.5 -11t5.5 -27l-8 -68q174 -16 314 -133q12 -10 13 -30.5t-11 -37.5l-88 -114 q-29 -37 -64 -9q-84 74 -199 93l-51 -369q131 -76 229.5 -183.5t98.5 -240.5q0 -190 -120 -314t-333 -132l-28 -211q-6 -37 -41 -37h-33q-12 0 -19.5 11t-5.5 26l29 213q-80 6 -156.5 39.5t-111.5 61t-58 50.5q-16 20 -18 31.5zM504 1061q0 -92 92 -160l47 326 q-61 -10 -100 -56.5t-39 -109.5zM606 219q139 31 139 164q0 94 -90 172z" />
<glyph unicode="%" horiz-adv-x="1257" d="M143.5 17.5q-8.5 17.5 3.5 37.5l826 1358q14 20 35 21h106q20 0 27.5 -17.5t-4.5 -38.5l-828 -1358q-14 -20 -33 -20h-104q-20 0 -28.5 17.5zM156 1141q0 131 78.5 222t201.5 91q94 0 158.5 -69.5t64.5 -170.5q0 -131 -81.5 -222t-196.5 -91q-96 0 -160.5 69.5 t-64.5 170.5zM332 1161q0 -35 17 -59.5t44 -24.5q33 0 59.5 35t26.5 80q0 35 -16.5 59.5t-42.5 24.5q-35 0 -61.5 -34t-26.5 -81zM639 219q0 131 79 222t202 91q94 0 158.5 -69.5t64.5 -169.5q0 -131 -82 -222t-197 -91q-96 0 -160.5 69.5t-64.5 169.5zM815 240 q0 -35 17.5 -59.5t44.5 -24.5q33 0 59.5 34.5t26.5 79.5q0 35 -16.5 59.5t-43.5 24.5q-35 0 -61.5 -33.5t-26.5 -80.5z" />
<glyph unicode="&#x26;" horiz-adv-x="1292" d="M76 322q0 88 32.5 165.5t81 130t94.5 90t85 61.5t41 28v4l-33 47q-100 143 -101 254q0 154 104.5 253t266.5 99q156 0 252 -89t96 -214q0 -47 -11 -91t-29.5 -79t-44 -68.5t-49 -58.5t-51.5 -47.5t-46.5 -34.5t-36.5 -25.5t-20 -13.5l163 -241q70 98 107 239q18 70 76 51 l94 -28q53 -16 37 -84q-20 -90 -63.5 -176t-76.5 -129l-32 -41l129 -172q43 -51 -17 -95l-88 -59q-49 -33 -78 10l-92 133q-6 -6 -18 -17t-54 -39t-88.5 -49.5t-119 -38.5t-148.5 -17q-160 0 -261 100.5t-101 241.5zM319 365q0 -72 46.5 -120t115.5 -48q68 0 130.5 31.5 t90.5 62.5l29 33l-211 305q-2 0 -22.5 -13.5t-40 -27t-46 -38t-46 -50t-33 -62t-13.5 -73.5zM500 1100q0 -55 63 -150l33 -49l20 12q20 12 37 22.5t40.5 32t39 43t27.5 52.5t12 63q0 55 -33.5 93t-91.5 38q-63 0 -105 -45t-42 -112z" />
<glyph unicode="'" horiz-adv-x="409" d="M168 1065l47 330q2 14 14.5 26.5t26.5 12.5h170q18 0 26.5 -14.5t0.5 -37.5l-129 -325q-12 -31 -37 -31h-88q-14 0 -23.5 11.5t-7.5 27.5z" />
<glyph unicode="(" horiz-adv-x="665" d="M88 424q0 240 38 424t97.5 292.5t142.5 180.5t158.5 98.5t161.5 34.5q14 2 23.5 -7t7.5 -24l-12 -135q-2 -29 -29 -37q-70 -16 -124 -60t-88 -96.5t-58.5 -131t-36 -137t-17.5 -144.5t-7 -126t-1 -105v-21q0 -322 164 -389q23 -8 16 -37l-24 -133q-6 -33 -41 -33 q-150 6 -260.5 154.5t-110.5 431.5z" />
<glyph unicode=")" horiz-adv-x="667" d="M-33 -129l13 135q2 29 28 37q332 106 332 815q0 348 -164 393q-23 8 -16 37l24 135q8 35 41 31q154 -12 262.5 -152.5t108.5 -435.5q0 -242 -39 -428t-97.5 -294.5t-141 -179t-158.5 -96.5t-162 -30q-35 0 -31 33z" />
<glyph unicode="*" horiz-adv-x="835" d="M180 938q-18 33 17 55l172 103l-144 102q-12 8 -12 25.5t10 29.5l47 56q25 29 47 8l121 -103l23 181q2 16 13 27.5t26 11.5h69q14 0 22.5 -12.5t6.5 -26.5l-29 -181l150 105q12 8 26.5 5t20.5 -15l29 -56q18 -35 -17 -55l-170 -102l142 -105q27 -20 2 -53l-47 -55 q-27 -31 -50 -13l-120 103l-21 -176q-2 -14 -14.5 -26.5t-26.5 -12.5h-67q-14 0 -22.5 12t-6.5 27l29 178l-150 -103q-12 -8 -26.5 -5t-20.5 16z" />
<glyph unicode="+" d="M221 651l17 115q2 14 14 26.5t27 12.5h260l45 309q2 14 13 25.5t26 11.5h133q14 0 22 -11.5t6 -25.5l-43 -309h271q14 0 22 -11.5t6 -27.5l-16 -115q-2 -16 -13.5 -27.5t-25.5 -11.5h-270l-43 -305q-2 -14 -14.5 -25.5t-26.5 -11.5h-131q-14 0 -23.5 11.5t-7.5 25.5 l43 305h-262q-14 0 -22.5 11.5t-6.5 27.5z" />
<glyph unicode="," horiz-adv-x="542" d="M23 154q0 80 59 138t143 58q76 0 123 -55t47 -154q0 -279 -231 -510q-25 -25 -47 -2l-58 45q-18 23 11 52q66 74 110.5 159.5t44.5 149.5v12q-35 -23 -82 -22q-59 0 -89.5 36t-30.5 93z" />
<glyph unicode="-" horiz-adv-x="712" d="M92 430l19 137q4 39 41 39h417q33 0 29 -39l-18 -137q-4 -37 -41 -37h-418q-33 0 -29 37z" />
<glyph unicode="." horiz-adv-x="538" d="M20 145q0 88 67 154t153 66q72 0 119 -50.5t47 -121.5q0 -86 -68 -151t-154 -65q-70 0 -117 49t-47 119z" />
<glyph unicode="/" horiz-adv-x="774" d="M18 51l553 1356q12 27 37 27h160q18 0 25.5 -14.5t-0.5 -37.5l-549 -1355q-12 -27 -37 -27h-162q-18 0 -26.5 14.5t-0.5 36.5z" />
<glyph unicode="0" horiz-adv-x="1234" d="M137 541q0 416 163 664.5t441 248.5q182 0 288 -149.5t106 -405.5q0 -422 -158 -670.5t-445 -248.5q-182 0 -288.5 152.5t-106.5 408.5zM403 547q0 -145 45 -232.5t119 -87.5q133 0 217 186.5t84 479.5q0 141 -46 228t-117 87q-133 0 -217.5 -184t-84.5 -477z" />
<glyph unicode="1" horiz-adv-x="753" d="M152 1038l10 115q2 31 26 49l269 207q35 25 73 25h115q14 0 22.5 -11.5t6.5 -27.5l-189 -1354q-2 -16 -14 -28.5t-27 -12.5h-190q-35 0 -31 41l144 1010l-183 -41q-14 -4 -24 5t-8 23z" />
<glyph unicode="2" horiz-adv-x="1062" d="M14 41q4 45 33 78l569 669q121 143 121 254q0 70 -39 118t-110 48q-106 0 -221 -133q-23 -31 -54 0l-104 117q-10 8 -8 25.5t14 29.5q195 207 403 207q180 0 280.5 -109.5t100.5 -285.5q0 -180 -155 -367l-398 -463v-4h383q14 0 23.5 -11t7.5 -28l-18 -145 q-2 -16 -15.5 -28.5t-27.5 -12.5h-756q-33 0 -29 41z" />
<glyph unicode="3" horiz-adv-x="1064" d="M41 166q-18 31 8 53l113 103q33 33 61 -13q74 -98 203 -98q90 0 150.5 60.5t60.5 156.5q0 78 -56.5 133t-156.5 55h-109q-35 0 -28 41l18 134q6 43 43 43h105q115 0 185.5 65.5t70.5 161.5q0 61 -39 100t-101 39q-23 0 -45 -6t-37.5 -12t-34 -19.5t-27.5 -21.5 t-25.5 -23.5t-20.5 -19.5q-27 -31 -53 -2l-101 116q-23 27 6 56q178 186 381 186q158 0 261.5 -93t103.5 -243q0 -135 -71.5 -235.5t-178.5 -153.5v-6q70 -35 128 -114t58 -185q0 -193 -134 -318.5t-353 -125.5q-250 0 -385 186z" />
<glyph unicode="4" horiz-adv-x="1214" d="M35 346l16 133q6 41 33 72l758 870q18 23 29.5 28t37.5 5h105q14 0 22 -12t6 -29l-122 -889h149q35 0 31 -37l-19 -141q-2 -16 -14 -28.5t-29 -12.5h-149l-35 -264q-2 -16 -15.5 -28.5t-27.5 -12.5h-184q-14 0 -23.5 12.5t-7.5 28.5l39 264h-572q-14 0 -23 12.5t-5 28.5z M348 518h328l72 471h-5l-395 -465v-6z" />
<glyph unicode="5" horiz-adv-x="1085" d="M74 166q-18 31 8 53l106 103q29 25 62 -13q90 -98 207 -98q115 0 185.5 85t70.5 204q0 86 -47.5 142t-135.5 56h-292q-27 0 -40.5 22.5t-9.5 51.5l91 623q2 16 14 27.5t26 11.5h607q14 0 23 -11.5t7 -27.5l-20 -144q-4 -41 -43 -41h-401l-41 -280h147q174 0 274.5 -116 t100.5 -300q0 -238 -142.5 -386t-373.5 -148q-147 0 -243.5 61.5t-139.5 124.5z" />
<glyph unicode="6" horiz-adv-x="1122" d="M113 473q0 195 65.5 361.5t154.5 270t206.5 186.5t196.5 119t151 58q47 12 53 -28l33 -129q12 -41 -43 -62q-391 -147 -477 -366q76 37 190 37q156 0 258.5 -109t102.5 -291q0 -229 -143.5 -384.5t-348.5 -155.5q-178 0 -288.5 144t-110.5 349zM355 423q7 -79 54 -141.5 t117 -62.5q102 0 168 83t66 200q0 90 -50.5 148.5t-134.5 58.5q-70 0 -128 -43t-87 -88q-12 -76 -5 -155z" />
<glyph unicode="7" horiz-adv-x="997" d="M41 33q0 25 16 51l643 1116v6h-477q-14 0 -24.5 12.5t-8.5 28.5l23 148q2 14 14.5 26.5t26.5 12.5h790q31 0 31 -31t-18 -64l-731 -1282q-33 -57 -74 -57h-172q-39 0 -39 33z" />
<glyph unicode="8" horiz-adv-x="1163" d="M92 334q0 76 35 148.5t90 126t91 80t69 46.5v8q-57 37 -104.5 115t-47.5 172q0 186 134.5 305t336.5 119q162 0 270.5 -93t108.5 -243q0 -129 -76.5 -224t-171.5 -151v-8q70 -41 128.5 -124t58.5 -187q0 -190 -139.5 -317t-378.5 -127q-188 0 -296 99t-108 255zM375 360 q0 -72 42 -113.5t109 -41.5q92 0 149.5 56t57.5 155q0 63 -40 119.5t-109 76.5q-94 -27 -151.5 -98.5t-57.5 -153.5zM492 1030q-1 -129 126 -172q88 25 137.5 86.5t49.5 138.5q0 68 -35 105t-100 37q-74 0 -126 -54.5t-52 -140.5z" />
<glyph unicode="9" horiz-adv-x="1118" d="M158 915q0 231 143 385t348 154q178 0 288 -142.5t110 -346.5q0 -141 -34 -268.5t-88.5 -221.5t-128 -175t-144 -135t-148.5 -97t-131.5 -64.5t-100.5 -36.5q-41 -14 -51 29l-35 129q-10 39 45 61q49 18 104.5 44t134.5 72t143.5 112.5t95.5 140.5q-76 -39 -191 -39 q-156 0 -258 108.5t-102 290.5zM399 934q0 -88 51.5 -147.5t135.5 -59.5q68 0 126 43t89 88q27 119 -18.5 236.5t-147.5 117.5q-98 0 -167 -81.5t-69 -196.5z" />
<glyph unicode=":" horiz-adv-x="557" d="M53 125q0 78 56.5 134t132.5 56q59 0 99 -42t40 -105q0 -78 -56.5 -134.5t-131.5 -56.5q-61 0 -100.5 43.5t-39.5 104.5zM145 774q0 78 56.5 135.5t130.5 57.5q61 0 101 -44t40 -106q0 -78 -56 -134t-132 -56q-61 0 -100.5 42t-39.5 105z" />
<glyph unicode=";" horiz-adv-x="567" d="M51 139q0 72 52.5 125t129.5 53q68 0 111 -50t43 -140q0 -262 -207 -457q-23 -23 -43 -2l-53 41q-18 14 10 47q135 147 139 289q-35 -20 -73 -20q-51 0 -80 31.5t-29 82.5zM141 797q8 70 62.5 120t120.5 50q61 0 102 -44t41 -106q0 -80 -56.5 -135t-134.5 -55 q-66 0 -105.5 49t-29.5 121z" />
<glyph unicode="&#x3c;" d="M213 467l2 14q2 18 21 29l704 434q18 12 33.5 2t13.5 -35l-20 -159q-2 -18 -21 -33l-411 -258v-10l337 -248q14 -10 13 -33l-21 -139q-2 -23 -21.5 -28t-33.5 7l-584 420q-14 12 -12 37z" />
<glyph unicode="=" d="M231 299l17 117q2 16 13 27.5t26 11.5h614q14 0 23.5 -11.5t7.5 -27.5l-17 -117q-2 -16 -14 -27.5t-27 -11.5h-614q-33 0 -29 39zM291 729l16 117q2 16 13.5 27.5t25.5 11.5h615q14 0 23 -11.5t7 -27.5l-16 -117q-2 -16 -14.5 -27.5t-26.5 -11.5h-615q-33 0 -28 39z" />
<glyph unicode="&#x3e;" d="M209 41l22 162q2 23 21 33l418 251v5l-346 260q-12 10 -11 32l19 136q2 25 20.5 30.5t34.5 -6.5l582 -434q18 -14 14 -33l-2 -14q-4 -23 -23 -33l-702 -422q-20 -12 -34.5 -2t-12.5 35z" />
<glyph unicode="?" horiz-adv-x="919" d="M168 1219q-18 23 8 53l12 14q10 12 19.5 20.5t26 25t34 28.5t41 27.5t49 25.5t55 20.5t65.5 15.5t73 5q141 0 240.5 -89t99.5 -220q0 -78 -32 -143.5t-80 -107.5t-96 -78t-86 -73.5t-46 -74.5l-16 -78q-6 -33 -39 -33h-177q-14 0 -23 11.5t-7 27.5l12 86q10 68 61.5 130 t107.5 102t101 93.5t45 106.5q0 47 -28.5 76t-79.5 29q-14 0 -30.5 -4.5t-29 -8.5t-27.5 -13t-24.5 -16.5t-24 -18.5t-20.5 -16t-18 -18l-12 -12q-31 -27 -60 2zM182 127q0 76 58.5 133t132.5 57q61 0 102 -44t41 -105q0 -76 -58.5 -132t-131.5 -56q-61 0 -102.5 43 t-41.5 104z" />
<glyph unicode="@" horiz-adv-x="1886" d="M84 328q0 485 279.5 805.5t728.5 320.5q332 0 531.5 -206t199.5 -523q0 -172 -50.5 -322.5t-168 -256t-283.5 -105.5q-162 0 -197 160h-12q-47 -66 -124 -113t-159 -47q-125 0 -203.5 105.5t-78.5 259.5q0 209 116.5 352t284.5 143q74 0 130.5 -39t86.5 -82l35 70l5 10 l4 8t6.5 7.5t9.5 3.5t14 2h70q14 0 22 -11.5t6 -27.5l-53 -375q-27 -205 80 -205q96 0 159.5 124t63.5 310q0 242 -128 394.5t-376 152.5q-342 0 -557 -249t-215 -644q0 -203 93.5 -367.5t246.5 -246.5q33 -16 15 -49l-68 -129q-18 -37 -45 -23q-201 92 -335 311.5 t-134 481.5zM776 414q0 -70 31 -111t80 -41q70 0 128 72t75 174l12 84q-12 31 -53 59.5t-93 28.5q-84 0 -132 -75.5t-48 -190.5z" />
<glyph unicode="A" horiz-adv-x="1267" d="M-56 16.5q-7 16.5 3 36.5l770 1379q12 23 35 22h18q20 0 29 -22l377 -1379q6 -20 -6.5 -36.5t-32.5 -16.5h-179q-45 0 -53 41l-51 227h-510l-119 -227q-20 -41 -65 -41h-189q-20 0 -27 16.5zM465 489h323l-96 447h-4z" />
<glyph unicode="B" horiz-adv-x="1167" d="M94 39l191 1356q2 16 14 27.5t27 11.5h426q147 0 245.5 -100.5t98.5 -246.5q0 -135 -77 -229t-173 -137q76 -29 133 -102.5t57 -182.5q0 -188 -128 -312t-333 -124h-452q-14 0 -23.5 11.5t-5.5 27.5zM387 242h180q82 0 135.5 57t53.5 152q0 72 -41 113.5t-101 41.5h-174z M471 831h147q84 0 137.5 57.5t53.5 155.5q0 68 -33 107t-88 39h-166z" />
<glyph unicode="C" horiz-adv-x="1286" d="M109 616q0 358 221 598t542 240q260 0 426 -194q10 -13 10 -26q0 -17 -18 -32l-110 -106q-18 -16 -35 -16t-33 16q-106 102 -254 102q-184 0 -321.5 -164t-137.5 -383q0 -170 85 -286.5t228.5 -116.5t280.5 121q19 16 35 16q17 0 31 -18l106 -134q18 -27 -10 -55 q-206 -198 -460 -198h-3q-260 0 -421.5 183t-161.5 453z" />
<glyph unicode="D" horiz-adv-x="1392" d="M94 39l191 1356q2 14 13 26.5t26 12.5h442q238 0 396.5 -184.5t158.5 -438.5q0 -340 -213 -575.5t-543 -235.5h-444q-14 0 -22.5 11.5t-4.5 27.5zM389 250h191q188 0 322 156.5t134 386.5q0 170 -89 281.5t-234 111.5h-193z" />
<glyph unicode="E" horiz-adv-x="1095" d="M94 39l191 1356q2 14 13 26.5t26 12.5h757q14 0 23.5 -11.5t7.5 -27.5l-25 -168q-2 -16 -14 -27.5t-26 -11.5h-525l-47 -336h434q14 0 23.5 -11.5t7.5 -27.5l-25 -170q-2 -16 -14 -27.5t-27 -11.5h-434l-51 -358h526q33 0 29 -39l-22 -168q-2 -16 -14.5 -27.5 t-26.5 -11.5h-758q-14 0 -23.5 11.5t-5.5 27.5z" />
<glyph unicode="F" horiz-adv-x="1060" d="M94 39l191 1356q2 14 13 26.5t26 12.5h757q14 0 23.5 -11.5t7.5 -27.5l-25 -168q-2 -16 -14 -27.5t-26 -11.5h-525l-55 -385h436q14 0 22.5 -12.5t6.5 -26.5l-23 -168q-2 -14 -14 -26.5t-27 -12.5h-436l-72 -518q-8 -39 -41 -39h-196q-14 0 -23.5 11.5t-5.5 27.5z" />
<glyph unicode="G" horiz-adv-x="1349" d="M109 616q0 358 220 598t543 240q260 0 426 -194q10 -13 10 -26q0 -16 -18 -32l-108 -106q-20 -14 -37 -14t-31 14q-106 102 -256 102q-184 0 -321.5 -164t-137.5 -383q0 -166 92.5 -285.5t225.5 -119.5q131 0 209 49l24 180h-131q-35 0 -31 37l23 160q6 39 41 39h362 q14 0 22.5 -11.5t6.5 -27.5l-67 -492q-4 -39 -33 -63q-25 -20 -67 -45t-154.5 -58.5t-237.5 -33.5q-248 0 -411.5 185t-163.5 451z" />
<glyph unicode="H" horiz-adv-x="1437" d="M94 39l191 1356q2 14 14 26.5t27 12.5h196q14 0 23.5 -11.5t7.5 -27.5l-76 -543h559l76 543q2 16 14.5 27.5t26.5 11.5h197q14 0 23 -11.5t7 -27.5l-190 -1356q-8 -39 -41 -39h-199q-33 0 -28 39l79 565h-559l-80 -565q-8 -39 -40 -39h-199q-14 0 -22.5 12.5t-6.5 26.5z " />
<glyph unicode="I" horiz-adv-x="610" d="M94 39l191 1356q2 14 13 26.5t26 12.5h200q14 0 22.5 -12.5t6.5 -26.5l-191 -1356q-2 -16 -13 -27.5t-25 -11.5h-201q-14 0 -22.5 12.5t-6.5 26.5z" />
<glyph unicode="J" horiz-adv-x="868" d="M-31 129q-14 25 13 51l94 92q25 25 51 -2q53 -49 121 -49q61 0 104 44t54 116l143 1014q2 14 13 26.5t26 12.5h203q14 0 23 -11.5t7 -27.5l-143 -1008q-57 -407 -422 -407h-2q-106 0 -180 49t-105 100z" />
<glyph unicode="K" horiz-adv-x="1234" d="M96 49l189 1335q8 49 51 50h192q18 0 29.5 -14.5t7.5 -35.5l-78 -553l482 566q31 37 84 37h202q27 0 34 -22.5t-13 -45.5l-559 -627l413 -676q10 -20 -3 -41.5t-37 -21.5h-187q-51 0 -74 41l-364 633l-88 -625q-2 -20 -17.5 -34.5t-31.5 -14.5h-193q-18 0 -29.5 14.5 t-9.5 34.5z" />
<glyph unicode="L" horiz-adv-x="962" d="M94 39l191 1356q2 16 14 27.5t27 11.5h198q14 0 22.5 -11.5t6.5 -27.5l-162 -1149h453q33 0 28 -39l-22 -168q-2 -16 -14.5 -27.5t-26.5 -11.5h-684q-14 0 -23.5 11.5t-7.5 27.5z" />
<glyph unicode="M" horiz-adv-x="1658" d="M27 47l405 1376q8 31 39 31h29q23 0 28 -20l279 -928h4l557 928q14 20 35 20h31q10 0 19 -9t9 -22l19 -1376q0 -20 -12.5 -33.5t-28.5 -13.5h-197q-31 0 -31 31l17 735h-6l-428 -764q-12 -23 -35 -22h-33q-20 0 -29 22l-209 764h-4l-196 -735q-8 -31 -39 -31h-195 q-18 0 -26 13.5t-2 33.5z" />
<glyph unicode="N" horiz-adv-x="1443" d="M96 35l193 1382q2 14 13 25.5t26 11.5h22q31 0 53 -33l603 -852h2l110 826q2 16 13.5 27.5t25.5 11.5h199q14 0 23.5 -11.5t6.5 -27.5l-194 -1379q-2 -14 -13.5 -25t-25.5 -11h-20q-23 0 -33 7t-27 29l-598 875h-2l-111 -852q-2 -16 -14 -27.5t-26 -11.5h-197 q-12 0 -21.5 10.5t-7.5 24.5z" />
<glyph unicode="O" horiz-adv-x="1521" d="M109 614q0 350 220 595t545 245q246 0 411 -188.5t165 -452.5q0 -348 -221 -590.5t-545 -242.5q-246 0 -410.5 187t-164.5 447zM385 649q0 -172 90.5 -287.5t237.5 -115.5q188 0 324.5 157.5t136.5 376.5q0 172 -91.5 290t-238.5 118q-184 0 -321.5 -161t-137.5 -378z " />
<glyph unicode="P" horiz-adv-x="1128" d="M94 39l191 1356q2 16 14 27.5t27 11.5h438q150 0 252 -122t102 -288q0 -221 -139 -362.5t-342 -141.5h-209l-68 -481q-2 -14 -14 -26.5t-27 -12.5h-196q-14 0 -23.5 11.5t-5.5 27.5zM463 770h190q76 0 136.5 71.5t60.5 170.5q0 72 -40 121t-99 49h-191z" />
<glyph unicode="Q" horiz-adv-x="1519" d="M106 614q0 348 222.5 594t545.5 246q246 0 410 -186.5t164 -454.5q0 -264 -119 -455.5t-323 -306.5l172 -401q8 -20 -3.5 -38t-33.5 -18h-201q-39 0 -51 37l-139 355q-37 -6 -72 -6q-244 0 -408 190t-164 444zM385 649q0 -172 90.5 -287.5t237.5 -115.5 q188 0 324.5 157.5t136.5 376.5q0 172 -91.5 290t-238.5 118q-184 0 -321.5 -161t-137.5 -378z" />
<glyph unicode="R" horiz-adv-x="1265" d="M94 39l191 1356q2 14 13 26.5t26 12.5h540q150 0 248 -112t98 -271q0 -182 -87 -304t-238 -169l168 -525q6 -20 -3.5 -36.5t-31.5 -16.5h-195q-37 0 -45 33l-149 528h-195l-74 -522q-2 -16 -13 -27.5t-25 -11.5h-199q-14 0 -23.5 11.5t-5.5 27.5zM467 780h256 q94 0 154.5 70t60.5 168q0 82 -37 126t-96 44h-281z" />
<glyph unicode="S" horiz-adv-x="1046" d="M57 139q-14 14 -13.5 29.5t13.5 32.5l80 116q15 23 33 23q14 0 31 -14q127 -106 254 -107q72 0 127 50t55 124q0 63 -42 113.5t-134 111.5q-63 41 -105.5 75t-91.5 85t-73.5 113.5t-24.5 136.5q0 172 118.5 299t344.5 127q125 0 223 -45t141 -88q20 -20 20 -43 q0 -19 -14 -39l-79 -113q-14 -21 -33 -21q-17 0 -39 17q-113 90 -232 90q-76 0 -125 -48t-49 -111q0 -57 38 -96t141 -109q61 -41 86.5 -58.5t80 -64.5t79 -85t47 -96.5t22.5 -123.5q0 -186 -134 -313t-356 -127h-3q-217 0 -386 159z" />
<glyph unicode="T" horiz-adv-x="1007" d="M152 1227l24 168q2 14 13.5 26.5t25.5 12.5h813q14 0 23.5 -11.5t7.5 -27.5l-25 -168q-2 -16 -14 -27.5t-27 -11.5h-270l-162 -1149q-2 -14 -14 -26.5t-27 -12.5h-198q-14 0 -23.5 11.5t-7.5 27.5l162 1149h-271q-14 0 -23 11t-7 28z" />
<glyph unicode="U" horiz-adv-x="1355" d="M141 436q0 39 6 82l125 877q2 14 14.5 26.5t26.5 12.5h203q14 0 23.5 -11.5t7.5 -27.5l-123 -863q-4 -23 -4 -65q0 -102 53 -159.5t156 -57.5q123 0 195.5 73.5t90.5 206.5l123 865q2 16 14.5 27.5t26.5 11.5h203q14 0 23.5 -11.5t7.5 -27.5l-125 -877 q-33 -240 -188.5 -389t-391.5 -149q-205 0 -336 128t-131 328z" />
<glyph unicode="V" horiz-adv-x="1265" d="M127 1380q-6 20 6 37t33 17h203q25 0 28 -23l211 -856h8l455 856q14 23 33 23h229q20 0 27.5 -16.5t-2.5 -37.5l-770 -1378q-10 -23 -35 -22h-18q-21 -1 -29 22z" />
<glyph unicode="W" horiz-adv-x="1669" d="M168 1384q-2 20 9 35t30 15h178q25 0 29 -29l69 -776h9l413 803q12 23 35 22h33q25 0 28 -22l166 -803h9l290 776q12 29 37 29h195q20 0 27.5 -14.5t-1.5 -35.5l-540 -1376q-10 -29 -37 -28h-31q-25 0 -29 22l-208 887h-9l-454 -887q-10 -23 -35 -22h-29q-26 -1 -30 28z " />
<glyph unicode="X" horiz-adv-x="1204" d="M-27 16.5q-6 16.5 11 36.5l479 682l-283 645q-8 20 3.5 37t35.5 17h207q20 0 27 -19l186 -465h4l301 465q12 18 33 19h250q23 0 29 -16.5t-9 -37.5l-465 -645l291 -682q8 -20 -2 -36.5t-33 -16.5h-196q-23 0 -29 18l-205 500h-6l-330 -500q-14 -18 -34 -18h-236 q-23 0 -29 16.5z" />
<glyph unicode="Y" horiz-adv-x="1136" d="M125 1384q-8 20 2 35t33 15h192q27 0 39 -29l213 -467h4l342 477q14 18 33 19h225q23 0 28 -16.5t-9 -37.5l-516 -688l-90 -653q-2 -14 -14.5 -26.5t-26.5 -12.5h-199q-33 0 -29 39l92 651z" />
<glyph unicode="Z" horiz-adv-x="1026" d="M-16 33q0 37 20 69l664 1078v6h-435q-14 0 -23 11t-7 28l24 170q2 14 14.5 26.5t26.5 12.5h776q31 0 31 -31q0 -29 -14 -51l-658 -1098v-6h439q33 0 28 -39l-22 -170q-2 -16 -14.5 -27.5t-26.5 -11.5h-795q-29 0 -28 33z" />
<glyph unicode="[" horiz-adv-x="690" d="M-14 -449l260 1844q2 14 13 26.5t26 12.5h438q14 0 22.5 -11.5t6.5 -27.5l-17 -127q-2 -16 -14 -27.5t-27 -11.5h-235l-213 -1512h235q14 0 23.5 -11t7.5 -25l-18 -130q-2 -14 -14.5 -26t-26.5 -12h-437q-14 0 -23 11t-7 27z" />
<glyph unicode="\" horiz-adv-x="761" d="M209 1382q-2 20 9 36t32 16h141q27 0 31 -27l170 -1356q2 -20 -10.5 -35.5t-30.5 -15.5h-143q-27 0 -31 27z" />
<glyph unicode="]" horiz-adv-x="692" d="M-92 -449l18 130q2 14 14.5 25t26.5 11h236l213 1512h-238q-14 0 -22.5 11t-5.5 28l18 127q2 14 13.5 26.5t25.5 12.5h438q14 0 22.5 -12.5t6.5 -26.5l-258 -1844q-2 -14 -14.5 -26t-26.5 -12h-436q-14 0 -23.5 11t-7.5 27z" />
<glyph unicode="^" horiz-adv-x="966" d="M90 803.5q-4 15.5 10 34.5l469 604q16 20 35 20h10q20 0 29 -20l293 -602q10 -20 0 -36t-31 -16h-133q-25 0 -33 19l-164 344h-2l-264 -344q-14 -18 -43 -19h-149q-23 0 -27 15.5z" />
<glyph unicode="_" horiz-adv-x="1138" d="M111 -139l10 80q4 39 41 39h645q37 0 31 -39l-13 -80q-8 -37 -39 -37h-647q-33 0 -28 37z" />
<glyph unicode="`" horiz-adv-x="557" d="M154 1300l59 89q12 18 30.5 21t24.5 -5l281 -199q23 -12 6 -39l-41 -67q-18 -29 -49 -13l-307 158q-31 16 -4 55z" />
<glyph unicode="a" horiz-adv-x="1091" d="M59 412q0 231 138.5 393t343.5 162q88 0 158.5 -40t107.5 -85l43 73q14 31 39 31h84q16 0 26.5 -13.5t6.5 -31.5l-117 -856q-2 -18 -16.5 -31.5t-30.5 -13.5h-84q-29 0 -37 41l-16 72q-135 -135 -285 -136q-162 0 -261.5 125t-99.5 310zM315 418q0 -84 41 -142.5 t119 -58.5q66 0 125.5 54.5t75.5 99.5l31 227q-8 45 -53.5 88t-112.5 43q-94 0 -160 -87t-66 -224z" />
<glyph unicode="b" horiz-adv-x="1081" d="M53 45l191 1344q2 18 16 31.5t29 13.5h178q16 0 27.5 -13.5t9.5 -31.5l-68 -465q90 43 189 43q172 0 269 -124t97 -323q0 -219 -140 -382t-343 -163q-82 0 -147.5 36t-90.5 71l-24 37l-35 -78q-18 -41 -51 -41h-72q-16 0 -26.5 13.5t-8.5 31.5zM356 369q8 -51 48 -101.5 t106 -50.5q90 0 157.5 86t67.5 215q0 96 -46 153.5t-120 57.5q-43 0 -86 -14.5t-63 -26.5l-21 -14z" />
<glyph unicode="c" horiz-adv-x="925" d="M61 418q0 238 142.5 393.5t349.5 155.5q102 0 186 -46.5t135 -117.5q7 -10 7 -21q0 -21 -25 -47l-78 -80q-16 -16 -31 -16q-16 0 -30 18q-61 72 -158 72q-100 0 -170 -80t-70 -215q0 -106 44.5 -161.5t115.5 -55.5q78 0 172 100q16 19 32 19q14 0 28 -14l88 -89 q19 -19 19 -39q0 -13 -9 -26q-147 -190 -356 -191q-174 0 -283 124t-109 317z" />
<glyph unicode="d" horiz-adv-x="1089" d="M59 412q0 231 141.5 393t350.5 162q49 0 111.5 -15.5t87.5 -33.5l67 468q4 47 64 48h155q16 0 27.5 -13.5t9.5 -31.5l-188 -1344q-2 -18 -16.5 -31.5t-30.5 -13.5h-80q-29 0 -37 41l-16 72q-135 -136 -291 -136q-150 0 -252.5 126t-102.5 309zM313 418q0 -98 44 -149.5 t118 -51.5q66 0 124 50t75 95l43 318q-72 49 -168 49q-104 0 -170 -93t-66 -218z" />
<glyph unicode="e" horiz-adv-x="948" d="M57 397q0 227 146.5 398.5t384.5 171.5q137 0 225 -76t88 -186q0 -115 -94 -190t-221 -102.5t-283 -29.5v-14q0 -68 35 -113q39 -49 121 -49q74 0 174 65q37 29 53 0l78 -104q10 -15 10 -28q0 -17 -16 -34q-143 -129 -328 -129q-174 0 -273.5 121t-99.5 299zM328 557 q137 0 228 32t91 87q0 31 -24.5 52.5t-73.5 21.5q-70 0 -135.5 -61.5t-85.5 -131.5z" />
<glyph unicode="f" horiz-adv-x="774" d="M59 -440l168 1157h-102q-18 0 -28.5 13t-8.5 32l23 139q6 45 43 45h104l10 76q29 209 122 320.5t282 111.5q78 0 151.5 -28.5t104.5 -59.5q18 -23 2 -53l-60 -111q-15 -26 -36 -26q-13 0 -27 8q-57 33 -135 33q-72 0 -102.5 -50.5t-43.5 -144.5l-10 -76h223q36 0 36 -34 q0 -5 -1 -11l-20 -139q-8 -45 -47 -45h-222l-166 -1157q-4 -18 -18 -32.5t-29 -14.5h-180q-16 0 -26.5 14.5t-6.5 32.5z" />
<glyph unicode="g" horiz-adv-x="1091" d="M59 406q0 225 134.5 393t355.5 168q51 0 96 -14.5t72.5 -35t49 -42t32.5 -35.5l8 -15l33 76q16 45 47 45h84q16 0 26.5 -13.5t8.5 -31.5l-127 -911q-35 -248 -171.5 -356.5t-322.5 -108.5q-96 0 -179 39t-122 78q-25 25 -2 53l72 129q20 35 51 12q100 -72 192 -72 q102 0 158.5 49.5t75.5 176.5l4 26q-102 -39 -207 -39q-168 0 -268.5 118t-100.5 311zM324 422q0 -211 161 -211q47 0 91.5 13.5t62.5 25.5l20 14l48 338q-31 131 -160 131q-109 0 -166 -98t-57 -213z" />
<glyph unicode="h" horiz-adv-x="1058" d="M53 45l191 1344q2 18 16 31.5t29 13.5h176q16 0 27.5 -13.5t9.5 -31.5l-70 -496q96 74 209 74q96 0 161.5 -37t94.5 -100.5t38 -145.5q4 -32 4 -65q0 -51 -9 -105l-66 -469q-2 -18 -16 -31.5t-31 -13.5h-174q-16 0 -26.5 13.5t-8.5 31.5l66 473q7 47 7 82q-1 48 -13 78 q-22 51 -105 51q-35 0 -65.5 -12t-49 -28.5t-32 -34t-19.5 -29.5l-4 -13l-80 -567q-10 -45 -53 -45h-172q-16 0 -26.5 13.5t-8.5 31.5z" />
<glyph unicode="i" horiz-adv-x="516" d="M53 45l121 856q2 18 16.5 31.5t30.5 13.5h176q16 0 27.5 -13t9.5 -32l-123 -856q-2 -18 -16 -31.5t-31 -13.5h-174q-16 0 -27.5 13.5t-9.5 31.5zM190 1249q0 76 55.5 130.5t129.5 54.5q61 0 100 -41t39 -103q0 -74 -55 -128t-129 -54q-61 0 -100.5 41t-39.5 100z" />
<glyph unicode="j" horiz-adv-x="516" d="M-182 -360q-2 11 -2 21q0 41 39 60q43 23 58 32t49 35t51.5 59.5t23.5 78.5l137 975q2 18 17.5 31.5t33.5 13.5h166q18 0 29.5 -13.5t9.5 -31.5l-131 -940q-27 -195 -118 -299t-232 -164q-28 -12 -47 -12q-32 0 -41 33zM186 1249q0 76 55.5 130.5t129.5 54.5 q61 0 100 -41t39 -103q0 -74 -55 -128t-129 -54q-61 0 -100.5 41t-39.5 100z" />
<glyph unicode="k" horiz-adv-x="1013" d="M53 45l191 1344q2 18 16 31.5t29 13.5h178q16 0 27.5 -13.5t9.5 -31.5l-115 -809l305 338q24 28 56 28h2h219q27 0 32 -22.5t-16 -42.5l-366 -387l274 -435q12 -20 2 -39.5t-39 -19.5h-194q-37 0 -52 27l-239 428l-58 -410q-2 -18 -17.5 -31.5t-29.5 -13.5h-180 q-16 0 -26.5 13.5t-8.5 31.5z" />
<glyph unicode="l" horiz-adv-x="522" d="M55 45l191 1344q2 18 16 31.5t29 13.5h176q16 0 27.5 -13.5t9.5 -31.5l-191 -1344q-2 -18 -16 -31.5t-31 -13.5h-176q-16 0 -26.5 13.5t-8.5 31.5z" />
<glyph unicode="m" horiz-adv-x="1566" d="M53 45l121 856q2 18 15.5 31.5t29.5 13.5h74q27 0 33 -26l20 -91q133 137 281 138q164 0 229 -144q150 143 297 144q129 0 201 -63q74 -64 86 -166q6 -48 6 -101q0 -60 -8 -127l-68 -465q-8 -45 -47 -45h-176q-16 0 -26.5 13.5t-8.5 31.5l74 483q6 40 6 72q0 50 -14 80 q-22 50 -93 49q-49 0 -92 -30.5t-63 -61.5l-19 -31l-80 -561q-8 -45 -47 -45h-170q-18 0 -27 13.5t-5 31.5l75 483q6 38 6 70q0 131 -106 131q-51 0 -94 -30.5t-60 -61.5l-16 -31l-84 -561q-2 -18 -16.5 -31.5t-30.5 -13.5h-168q-16 0 -26.5 13.5t-8.5 31.5z" />
<glyph unicode="n" horiz-adv-x="1054" d="M53 45l121 856q2 18 15.5 31.5t29.5 13.5h78q29 0 33 -28l20 -89l19 17q18 16 24 22t26.5 22.5t34 24t38 19.5t45 17t49 10.5t57.5 5.5q181 0 247 -126q46 -88 47 -213q0 -53 -9 -114l-68 -469q-2 -18 -15.5 -31.5t-29.5 -13.5h-180q-33 0 -33 37v8l74 483q6 41 6 73 q0 47 -12 77q-20 50 -97 51q-55 0 -101 -32.5t-66 -65.5l-19 -33l-82 -553q-6 -45 -49 -45h-168q-16 0 -26.5 13.5t-8.5 31.5z" />
<glyph unicode="o" horiz-adv-x="1036" d="M57 408q0 229 151.5 394t364.5 165q160 0 268.5 -125t108.5 -301q0 -229 -153.5 -396.5t-362.5 -167.5q-162 0 -269.5 128.5t-107.5 302.5zM305 434q0 -94 42 -155.5t122 -61.5q96 0 162.5 88t66.5 213q0 90 -41 150.5t-116 60.5q-100 0 -168 -86t-68 -209z" />
<glyph unicode="p" horiz-adv-x="1083" d="M-12 -449l186 1350q2 18 15.5 31.5t29.5 13.5h80q29 0 35 -28l16 -76q121 125 303 125q160 0 250 -121t90 -301q0 -240 -142 -404t-347 -164q-119 1 -193 54l-63 -471q-6 -47 -58 -47h-170q-14 0 -24 12t-8 26zM344 276q61 -59 158 -59q98 0 167.5 92t69.5 226 q0 88 -41 141t-120 53q-66 0 -118 -39t-75 -78z" />
<glyph unicode="q" horiz-adv-x="1079" d="M59 403q0 231 137.5 397.5t342.5 166.5q88 0 158.5 -40t107.5 -85l43 73q16 31 39 31h76q16 0 26 -13t6 -32l-188 -1341q-2 -18 -16.5 -32.5t-30.5 -14.5h-172q-20 0 -30.5 12t-6.5 35l63 469q-89 -52 -204 -52q-150 0 -250.5 123t-100.5 303zM309 424q0 -90 45 -148.5 t127 -58.5q43 0 87 14.5t67 30.5l22 14l50 332q-18 43 -60.5 82t-107.5 39q-100 0 -165 -85t-65 -220z" />
<glyph unicode="r" horiz-adv-x="759" d="M53 45l121 856q2 18 15.5 31.5t29.5 13.5h78q29 0 37 -31l18 -92q37 55 106.5 99.5t149.5 44.5q92 0 152 -39q18 -15 18 -33q0 -12 -8 -25l-74 -143q-16 -35 -49 -18q-45 20 -100 20q-100 0 -156 -113l-82 -571q-6 -45 -55 -45h-166q-16 0 -26.5 13.5t-8.5 31.5z" />
<glyph unicode="s" horiz-adv-x="788" d="M25 129l57 111q8 14 25.5 18t31.5 -6q90 -53 176 -53q100 0 101 71q0 57 -127 133q-98 59 -146.5 120t-48.5 153q0 121 92.5 206t255.5 85q82 0 156 -24.5t108 -51.5q21 -16 22 -39q0 -14 -9 -31l-55 -106q-18 -29 -56 -13q-109 47 -174 48q-100 0 -100 -70 q0 -29 24.5 -53.5t87.5 -57.5q223 -117 224 -288q0 -129 -96.5 -216.5t-260.5 -87.5q-158 0 -284 97q-23 18 -4 55z" />
<glyph unicode="t" horiz-adv-x="749" d="M78 764l16 137q2 20 15.5 32.5t29.5 12.5h105l35 262q2 18 16 31.5t31 13.5h180q16 0 25.5 -13t5.5 -32l-35 -262h180q34 0 34 -34q0 -5 -1 -11l-17 -137q-2 -18 -15 -31.5t-32 -13.5h-182l-57 -416q-2 -11 -2 -20q0 -52 47 -52q43 0 110 31q39 16 47 -24l23 -144 q1 -4 1 -8q0 -26 -36 -47q-111 -62 -250 -62q-111 0 -167 82q-41 60 -41 151q0 34 6 73l63 436h-100q-16 0 -26.5 13t-8.5 32z" />
<glyph unicode="u" horiz-adv-x="1021" d="M94 399l74 502q6 45 45 45h176q16 0 26.5 -12t8.5 -33l-74 -510q-6 -36 -5 -65q1 -44 13 -68q22 -41 82 -41q51 0 92 33t56 65l14 31l78 555q8 45 51 45h172q16 0 26.5 -13t8.5 -32l-119 -856q-2 -18 -16.5 -31.5t-30.5 -13.5h-78q-29 0 -37 35l-16 80 q-39 -45 -59.5 -64.5t-82 -46.5t-139.5 -27q-180 0 -237 112q-38 75 -38 189q0 56 9 121z" />
<glyph unicode="v" horiz-adv-x="931" d="M80 893q-6 23 5 38t36 15h170q29 0 35 -26l112 -451h6l240 451q15 26 54 26h3h172q23 0 30 -18.5t-7 -38.5l-510 -887q-10 -25 -41 -25h-8q-25 0 -33 25z" />
<glyph unicode="w" horiz-adv-x="1345" d="M96 897q-1 6 -1 10q0 39 42 39h162q29 0 33 -28l63 -420h2l279 450q16 23 37 23h20q20 0 31 -23l147 -450h2l185 420q10 28 50 28h3h156q25 0 32 -16.5t-6 -36.5l-391 -889q-14 -27 -41 -27h-12q-20 0 -29 23l-190 553h-2l-351 -553q-10 -23 -38 -23h-9q-28 0 -32 27z " />
<glyph unicode="x" horiz-adv-x="980" d="M-28 19.5q-5 19.5 14 41.5l331 428l-217 390q-12 25 -0.5 46t37.5 21h180q27 0 45 -33l130 -249h2l178 249q25 33 65 33h195q29 0 35 -21.5t-13 -45.5l-325 -410l221 -406q10 -23 -3 -43t-38 -20h-162q-31 0 -49 39l-141 270h-4l-205 -291q-10 -18 -37 -18h-207 q-27 0 -32 19.5z" />
<glyph unicode="y" horiz-adv-x="966" d="M-2 -472q-6 15 8 42l264 498l-182 817q-2 12 -2 22q0 39 39 39h182q31 0 35 -26l92 -578h6l267 578q12 27 47 26h186q25 0 32 -19.5t-5 -41.5l-705 -1344q-14 -29 -41 -28h-194q-23 0 -29 15z" />
<glyph unicode="z" horiz-adv-x="794" d="M-10 37q0 23 18 53l389 617v6h-256q-14 0 -23 14t-5 31l20 143q2 18 14.5 31.5t28.5 13.5h569q39 0 39 -37q0 -14 -8 -28l-411 -643v-7h243q33 0 33 -37v-8l-23 -141q-2 -18 -15 -31.5t-32 -13.5h-544q-37 0 -37 37z" />
<glyph unicode="{" horiz-adv-x="747" d="M23 416l12 100q6 27 31 35q33 6 87 46t62 95l33 240q23 162 76 270.5t130.5 160.5t153.5 71.5t172 19.5q33 0 31 -35l-10 -129q-2 -33 -31 -37q-133 -29 -202.5 -100.5t-90.5 -220.5l-26 -195q-10 -80 -58.5 -145.5t-80 -88t-54.5 -32.5v-8q141 -68 117 -256l-27 -199 q-20 -150 30 -218.5t173 -94.5q25 -4 18 -39l-22 -129q-2 -14 -15.5 -25.5t-27.5 -9.5q-72 4 -145.5 41t-134 100.5t-91 162.5t-14.5 212l31 232q8 61 -28 96t-79 43q-27 4 -20 37z" />
<glyph unicode="|" horiz-adv-x="358" d="M-14 -451l276 1969q2 16 13.5 27t25.5 11h29q33 0 28 -38l-276 -1969q-2 -14 -14.5 -25t-26.5 -11h-25q-14 0 -23 11t-7 25z" />
<glyph unicode="}" horiz-adv-x="745" d="M-96 -475l12 129q4 35 31 39q139 29 205 96t86 219l26 199q27 188 191 256l2 8q-12 6 -29.5 21.5t-43.5 47t-39 84t-5 113.5l27 195q20 147 -33 220t-170 101q-27 4 -19 37l25 129q6 35 41 35q70 0 142.5 -32.5t135 -93t94 -165t13.5 -231.5l-33 -240q-8 -57 35 -96 t74 -45q23 -8 20 -35l-14 -100q-6 -33 -33 -37q-45 -8 -91 -43t-54 -96l-33 -232q-20 -143 -72.5 -247.5t-126 -162t-155.5 -83t-176 -25.5q-14 0 -24.5 10.5t-8.5 24.5z" />
<glyph unicode="~" horiz-adv-x="1032" d="M66 496q-20 23 2 49q6 8 16 21.5t44 46t67.5 58t81 47t90.5 21.5q86 0 188 -84q6 -4 20.5 -16t23.5 -18.5t23.5 -14.5t29 -12t28.5 -4q51 0 141 106q31 33 56 4l81 -96q20 -25 -4 -49q-16 -23 -42.5 -54.5t-103.5 -86t-144 -54.5q-104 0 -209 89q-66 57 -107 57 q-63 0 -141 -105q-26 -35 -53 -4z" />
<glyph unicode="&#xa1;" horiz-adv-x="497" d="M-41 -449l33 230l162 575q2 12 15 22.5t26 10.5h67q14 0 23.5 -10t7.5 -23l2 -571l-33 -234q-2 -14 -13 -26t-26 -12h-235q-14 0 -22.5 11t-6.5 27zM119 778q0 76 58.5 132.5t133.5 56.5q59 0 100.5 -43t41.5 -105q0 -76 -57.5 -133t-131.5 -57q-61 0 -103 44t-42 105z " />
<glyph unicode="&#xa2;" horiz-adv-x="1019" d="M106 418q0 238 142.5 393.5t349.5 155.5q41 0 88 -11l41 107q14 37 51 29l31 -7q37 -6 22 -53l-45 -114q76 -39 134 -115q20 -29 -19 -68l-78 -80q-33 -33 -61 2q-31 31 -57 45l-189 -485h8q78 0 172 100q29 35 60 5l88 -89q33 -33 10 -65q-147 -190 -356 -191 q-39 0 -72 7l-88 -230q-14 -41 -51 -30l-29 8q-16 4 -23.5 18t1.5 33l90 233q-102 51 -161 157t-59 245zM365 434q0 -102 57 -166l176 461q-96 -4 -164.5 -89t-68.5 -206z" />
<glyph unicode="&#xa3;" d="M213 39l6 37q147 238 139 520h-77q-14 0 -22.5 12.5t-6.5 26.5l4 27q8 39 39 38h57q-16 127 -16 252q0 231 128 366.5t333 135.5q164 0 297 -145q23 -23 -4 -54l-117 -114q-27 -27 -49 -6q-80 88 -149.5 88t-123 -63.5t-53.5 -176.5q0 -47 14.5 -146.5t16.5 -136.5h188 q16 0 25.5 -12t7.5 -26l-6 -29q-8 -37 -41 -37h-172q-8 -201 -72 -369h334q33 0 27 -39l-21 -149q-2 -14 -13.5 -26.5t-25.5 -12.5h-616q-14 0 -23.5 11.5t-7.5 27.5z" />
<glyph unicode="&#xa4;" horiz-adv-x="950" d="M129 412q-23 23 8 55l107 98q-6 31 -6 66q0 88 38 164l-79 98q-8 10 -6 28.5t14 26.5l94 80q31 27 49 0l78 -96q53 27 100 26.5t95 -26.5l104 96q25 25 49 0l72 -82q23 -25 -6 -53l-105 -96q8 -45 8 -70q0 -86 -41 -164l78 -96q20 -29 -8 -55l-96 -80q-31 -25 -47 -2 l-80 98q-47 -27 -100.5 -27t-92.5 27l-106 -98q-24 -25 -49 0zM399 662q0 -37 20.5 -62t53.5 -25q43 0 71.5 39t28.5 88q0 37 -20.5 60.5t-52.5 23.5q-43 0 -72 -39.5t-29 -84.5z" />
<glyph unicode="&#xa5;" d="M168 1384q-8 20 2 35t33 15h192q27 0 39 -29l215 -471l344 481q14 18 33 19h225q23 0 28 -16.5t-9 -37.5l-516 -688l-15 -96h193q14 0 23.5 -11.5t5.5 -27.5l-3 -29q-8 -37 -40 -36h-193l-18 -142h190q14 0 23.5 -11t7.5 -28l-4 -28q-8 -37 -41 -37h-191l-28 -207 q-2 -14 -14.5 -26.5t-26.5 -12.5h-199q-33 0 -29 39l29 207h-195q-31 0 -26 39l4 26q2 16 13 27.5t26 11.5h192l21 142h-195q-14 0 -22.5 11t-3.5 27l4 27q2 16 12 27.5t25 11.5h194l14 94z" />
<glyph unicode="&#xa6;" horiz-adv-x="370" d="M-8 -451l94 678q2 16 14.5 27.5t26.5 11.5h29q33 0 28 -39l-96 -678q-2 -14 -14.5 -25t-26.5 -11h-24q-14 0 -23.5 11t-7.5 25zM172 840l96 678q2 16 13.5 27t25.5 11h29q33 0 29 -38l-97 -678q-2 -14 -13 -25.5t-26 -11.5h-26q-14 0 -23.5 11t-7.5 26z" />
<glyph unicode="&#xa7;" horiz-adv-x="1073" d="M23 -358q-25 31 2 69l67 99q33 47 70 16q14 -12 45 -32.5t91 -45t110 -24.5q63 0 109 39.5t46 103.5q0 133 -164 229q-123 72 -200.5 160t-77.5 213q0 213 172 330q-92 80 -92 237q0 168 113.5 293t328.5 125q31 0 60.5 -3t56 -10t49 -14.5t45.5 -17.5t38 -18.5 t32.5 -20.5t25.5 -18t22.5 -16.5t16.5 -12.5q12 -10 13.5 -28.5t-11.5 -34.5l-84 -111q-29 -39 -63 -10q-33 29 -99.5 57.5t-132 28.5t-108.5 -44t-43 -104q0 -106 168 -192q84 -45 141 -85t110.5 -121t53.5 -177q0 -106 -51.5 -196.5t-120.5 -141.5q90 -82 90 -242 q0 -184 -125 -308t-342 -124q-123 0 -223.5 53.5t-138.5 98.5zM369 508q0 -16 3 -31.5t10 -30t13 -25.5t20.5 -25.5t24 -21.5t29.5 -22.5t30.5 -21.5t37 -23.5t36.5 -23.5q10 6 24.5 20t38 61.5t23.5 102.5q0 68 -54 117t-159 102q-78 -68 -77 -178z" />
<glyph unicode="&#xa8;" horiz-adv-x="763" d="M109 1260q6 61 52 104t99 43q57 0 92 -42t29 -105q-8 -61 -54.5 -105.5t-101.5 -44.5q-57 0 -91 43t-25 107zM496 1260q6 61 51 104t100 43q57 0 92 -42t29 -105q-8 -61 -55.5 -105.5t-100.5 -44.5q-57 0 -91 43t-25 107z" />
<glyph unicode="&#xa9;" horiz-adv-x="1566" d="M131 621q0 340 228.5 586.5t545.5 246.5q244 0 406 -186.5t162 -454.5q0 -342 -229.5 -586.5t-545.5 -244.5q-244 0 -405.5 185.5t-161.5 453.5zM287 639q0 -207 122.5 -352.5t311.5 -145.5q236 0 416 193.5t180 460.5q0 209 -123 353t-311 144q-236 0 -416 -193.5 t-180 -459.5zM469 672q0 182 116.5 304t282.5 122q135 0 205 -78q29 -33 -6 -59l-84 -74q-25 -20 -45 -4q-39 29 -92 28q-74 0 -129 -66.5t-55 -156.5q0 -70 35.5 -116t95.5 -46q43 0 96 39q27 20 45 -4l67 -88q18 -29 -10 -57q-102 -86 -221 -86q-129 0 -215 98.5 t-86 243.5z" />
<glyph unicode="&#xaa;" horiz-adv-x="657" d="M131 991q0 98 67.5 162t180.5 64q20 0 42.5 -4.5t35.5 -8.5l12 -4q10 59 -1 84t-56 25q-51 0 -142 -23q-33 -6 -28 31l-2 67q0 25 28 41q53 29 185 29q123 0 162.5 -64.5t21.5 -199.5l-45 -330q-4 -29 -31 -29h-55q-23 0 -35 64q-84 -80 -178 -80q-74 0 -118 48t-44 128z M301 1016q0 -27 15 -44.5t40 -17.5q27 0 50.5 17.5t31.5 38.5l8 80q-20 16 -63 16q-33 0 -57.5 -24.5t-24.5 -65.5z" />
<glyph unicode="&#xab;" horiz-adv-x="952" d="M66 459q-12 27 6 49l233 303q20 25 43 25h131q25 0 30 -19.5t-9 -44.5l-164 -305l65 -281q6 -25 -4 -43t-32 -18h-127q-17 0 -25 16zM451 459q-12 27 6 49l233 303q20 25 43 25h131q25 0 30 -19.5t-9 -44.5l-164 -305l65 -281q6 -25 -4 -43t-32 -18h-127q-17 0 -25 16z " />
<glyph unicode="&#xac;" horiz-adv-x="1085" d="M131 653l16 115q2 14 13.5 26.5t25.5 12.5h734q33 0 28 -39l-65 -463q-2 -14 -13.5 -25.5t-25.5 -11.5h-119q-14 0 -22.5 11.5t-6.5 25.5l43 309h-579q-14 0 -22.5 11.5t-6.5 27.5z" />
<glyph unicode="&#xad;" horiz-adv-x="712" d="M92 430l19 137q4 39 41 39h417q33 0 29 -39l-18 -137q-4 -37 -41 -37h-418q-33 0 -29 37z" />
<glyph unicode="&#xae;" horiz-adv-x="1566" d="M131 621q0 340 228.5 586.5t545.5 246.5q244 0 406 -186.5t162 -454.5q0 -342 -229.5 -586.5t-545.5 -244.5q-244 0 -405.5 185.5t-161.5 453.5zM287 639q0 -207 122.5 -352.5t311.5 -145.5q236 0 416 193.5t180 460.5q0 209 -123 353t-311 144q-236 0 -416 -193.5 t-180 -459.5zM506 383l94 672q2 14 13.5 26.5t25.5 12.5h293q82 0 138 -59.5t56 -157.5q0 -193 -163 -254l51 -224q4 -23 -7.5 -39t-31.5 -16h-111q-25 0 -28 29l-41 229h-88l-31 -219q-2 -16 -13.5 -27.5t-25.5 -11.5h-102q-14 0 -23.5 11.5t-5.5 27.5zM723 754h135 q31 0 55.5 28.5t24.5 69.5q0 31 -15.5 50.5t-39.5 19.5h-135z" />
<glyph unicode="&#xaf;" horiz-adv-x="763" d="M78 1204l8 70q4 39 41 39h473q14 0 22.5 -11.5t6.5 -27.5l-11 -70q-4 -37 -38 -37h-474q-33 0 -28 37z" />
<glyph unicode="&#xb0;" horiz-adv-x="643" d="M152 1141q0 131 78.5 222t201.5 91q94 0 158.5 -69.5t64.5 -170.5q0 -131 -81.5 -222t-196.5 -91q-96 0 -160.5 69.5t-64.5 170.5zM328 1161q0 -35 17 -59.5t44 -24.5q33 0 59.5 35t26.5 80q0 35 -16.5 59.5t-42.5 24.5q-35 0 -61.5 -34t-26.5 -81z" />
<glyph unicode="&#xb1;" d="M143 135l15 115q2 14 14 26.5t27 12.5h733q14 0 22.5 -11.5t6.5 -27.5l-17 -115q-2 -16 -13 -27.5t-26 -11.5h-727q-39 0 -35 39zM258 782l16 115q2 16 13.5 27.5t25.5 11.5h269l43 303q2 14 14 25.5t27 11.5h125q14 0 23 -11.5t7 -25.5l-43 -303h269q14 0 22 -11.5 t6 -27.5l-16 -115q-2 -16 -13.5 -27.5t-25.5 -11.5h-268l-27 -211q-8 -37 -41 -36h-127q-14 0 -22.5 11t-6.5 25l27 211h-268q-14 0 -22.5 11.5t-6.5 27.5z" />
<glyph unicode="&#xb2;" horiz-adv-x="536" d="M125 1051l6 34l229 258q59 70 60 117q0 57 -49 58q-35 0 -90 -39q-20 -12 -33 10l-37 67q-12 25 14 43q84 59 181 60q76 0 128 -45t52 -117q0 -104 -86 -203l-117 -131h135q20 0 17 -18l-15 -94q0 -18 -18 -19h-361q-18 0 -16 19z" />
<glyph unicode="&#xb3;" horiz-adv-x="528" d="M143 1079q-16 16 0 37l45 53q20 18 35 5q27 -27 76 -27q78 0 78 74q0 57 -64 57h-57q-27 0 -20 29l8 63q2 29 35 29h53q29 0 50 21.5t21 52.5q0 51 -53 51q-31 0 -67 -33q-18 -10 -29 6l-43 64q-16 20 8 36q66 61 164 62q84 0 137 -40t53 -108q0 -59 -34.5 -102 t-81.5 -63q90 -43 90 -138q0 -90 -69 -143t-169 -53q-106 0 -166 67z" />
<glyph unicode="&#xb4;" horiz-adv-x="557" d="M104 1174q-10 27 17 38l336 199q35 23 49 -10l49 -107q18 -39 -18 -55l-353 -158q-35 -14 -47 13z" />
<glyph unicode="&#xb5;" horiz-adv-x="1062" d="M18 -442l193 1343q6 45 45 45h176q16 0 26.5 -12t8.5 -33l-74 -516q-10 -78 13.5 -123t76.5 -45q51 0 92 33t56 65l14 31l78 555q8 45 51 45h172q16 0 26.5 -13t8.5 -32l-119 -856q-2 -18 -16.5 -31.5t-30.5 -13.5h-78q-29 0 -37 35l-16 80q-39 -45 -59.5 -64.5 t-82 -46.5t-139.5 -27q-37 0 -67 7l-60 -426q-2 -18 -16 -31.5t-31 -13.5h-176q-16 0 -26.5 13.5t-8.5 31.5z" />
<glyph unicode="&#xb6;" horiz-adv-x="1398" d="M121 948q0 195 128 340.5t294 145.5h846q14 0 23 -12.5t7 -26.5l-14 -95q-6 -39 -39 -38h-127l-240 -1711q-2 -16 -14 -27t-27 -11h-116q-14 0 -22.5 11t-6.5 27l240 1709h-242l-240 -1709q-2 -16 -13 -27t-26 -11h-116q-14 0 -23.5 11t-7.5 27l143 1024h-79 q-141 0 -234.5 108t-93.5 265z" />
<glyph unicode="&#xb7;" horiz-adv-x="536" d="M74 504q0 84 63.5 146.5t145.5 62.5q70 0 116.5 -48.5t46.5 -117.5q0 -82 -65.5 -143.5t-149.5 -61.5q-68 0 -112.5 47t-44.5 115z" />
<glyph unicode="&#xb8;" horiz-adv-x="505" d="M45 -453q-18 20 6 58l25 41q27 47 59 18q33 -33 82 -33q41 0 75 23.5t34 69.5q0 66 -84 65q-16 0 -30.5 -4t-30 -10t-19.5 -8q-16 -6 -28.5 8t-2.5 28l123 203h139l-102 -133q20 6 43 6q66 0 108.5 -40t42.5 -109q0 -104 -74.5 -169t-185.5 -65q-133 0 -180 51z" />
<glyph unicode="&#xb9;" horiz-adv-x="415" d="M174 1456l6 62q2 18 19 28l151 92h107q18 0 14 -18l-80 -569q-4 -18 -20 -19h-127q-16 0 -17 19l56 395l-97 -8q-14 0 -12 18z" />
<glyph unicode="&#xba;" horiz-adv-x="643" d="M152 1059q0 180 77.5 287.5t212.5 107.5q94 0 147.5 -67.5t53.5 -184.5q0 -180 -78 -287.5t-213 -107.5q-92 0 -146 68.5t-54 183.5zM324 1065q0 -107 49 -107q43 0 70.5 69t27.5 169q0 106 -49 107q-43 0 -70.5 -70t-27.5 -168z" />
<glyph unicode="&#xbb;" horiz-adv-x="952" d="M29.5 144.5q-4.5 19.5 9.5 43.5l164 306l-66 280q-6 25 4.5 43.5t32.5 18.5h127q16 0 25 -17l147 -317q12 -27 -6 -49l-234 -303q-20 -25 -43 -25h-131q-25 0 -29.5 19.5zM414.5 144q-4.5 19 9.5 44l164 306l-66 280q-6 25 4.5 43.5t32.5 18.5h127q16 0 25 -17l147 -317 q12 -27 -6 -49l-234 -303q-20 -25 -43 -25h-131q-25 0 -29.5 19z" />
<glyph unicode="&#xbc;" horiz-adv-x="1249" d="M102.5 17.5q-8.5 17.5 3.5 37.5l826 1358q14 20 35 21h106q20 0 27.5 -17.5t-4.5 -38.5l-828 -1358q-14 -20 -32 -20h-105q-20 0 -28.5 17.5zM172 1251l6 62q2 18 19 28l151 93h107q18 0 14 -19l-80 -569q-4 -18 -20 -19h-127q-16 0 -17 19l56 395l-97 -8q-16 0 -12 18z M610 133l15 105l342 358q10 10 26 10h80q18 0 14 -18l-49 -348h72q18 0 14 -17l-12 -88q0 -18 -18 -18h-74l-12 -99q-4 -18 -21 -18h-115q-20 0 -16 18l14 99h-245q-15 0 -15 16zM768 238h121l24 147z" />
<glyph unicode="&#xbd;" horiz-adv-x="1232" d="M102.5 17.5q-8.5 17.5 3.5 37.5l826 1358q14 20 35 21h106q20 0 27.5 -17.5t-4.5 -38.5l-828 -1358q-14 -20 -32 -20h-105q-20 0 -28.5 17.5zM172 1251l6 62q2 18 19 28l151 93h107q18 0 14 -19l-80 -569q-4 -18 -20 -19h-127q-16 0 -17 19l56 395l-97 -8q-16 0 -12 18z M659 18l7 35l229 258q59 70 59 117q0 57 -49 57q-35 0 -90 -39q-20 -12 -33 11l-37 67q-12 25 15 43q84 59 180 60q76 0 128 -45t52 -117q0 -104 -86 -203l-116 -131h135q20 0 16 -18l-14 -95q0 -18 -19 -18h-360q-21 0 -17 18z" />
<glyph unicode="&#xbe;" horiz-adv-x="1351" d="M137 874q-16 16 0 37l45 54q18 18 35 4q27 -27 76 -27q78 0 78 74q0 57 -64 57h-57q-27 0 -21 29l9 63q2 29 34 29h54q31 0 51 21.5t20 52.5q0 51 -53 51q-31 0 -68 -33q-18 -10 -28 6l-43 64q-16 20 8 37q66 61 164 61q84 0 137 -40t53 -107q0 -59 -34.5 -102.5 t-81.5 -63.5q90 -43 90 -137q0 -90 -69 -143.5t-169 -53.5q-106 0 -166 67zM207.5 17.5q-8.5 17.5 3.5 37.5l825 1358q14 20 35 21h107q20 0 27 -17.5t-5 -38.5l-827 -1358q-16 -20 -33 -20h-104q-20 0 -28.5 17.5zM715 133l14 105l342 358q10 10 27 10h80q18 0 14 -18 l-49 -348h71q18 0 15 -17l-12 -88q0 -18 -19 -18h-74l-12 -99q-4 -18 -20 -18h-115q-20 0 -16 18l14 99h-246q-14 0 -14 16zM872 238h121l25 147z" />
<glyph unicode="&#xbf;" horiz-adv-x="858" d="M-53 -199q0 78 31.5 143.5t79.5 107.5t96.5 78t86.5 74t46 75l16 77q6 33 39 33h176q14 0 23.5 -11t7.5 -28l-12 -86q-10 -68 -61.5 -130t-108 -102t-101.5 -93.5t-45 -106.5q0 -47 29 -75.5t80 -28.5q14 0 30.5 4t28.5 8t27.5 13t25 16.5t23.5 18.5t20.5 16.5t18.5 17.5 l12 12q31 27 59 -2l95 -104q18 -23 -8 -54l-11 -14q-12 -12 -21 -20.5t-25.5 -24.5t-34 -28.5t-41 -28t-49 -25.5t-55.5 -20.5t-65.5 -15.5t-72.5 -5q-141 0 -240.5 89t-99.5 220zM322 778q0 76 58 132.5t132 56.5q61 0 102 -43t41 -105q0 -76 -58 -133t-132 -57 q-61 0 -102 44t-41 105z" />
<glyph unicode="&#xc0;" horiz-adv-x="1267" d="M-56 16.5q-7 16.5 3 36.5l770 1379q12 23 35 22h18q20 0 29 -22l377 -1379q6 -20 -6.5 -36.5t-32.5 -16.5h-179q-45 0 -53 41l-51 227h-510l-119 -227q-20 -41 -65 -41h-189q-20 0 -27 16.5zM465 489h323l-96 447h-4zM606 1788l60 88q12 18 30.5 21.5t24.5 -5.5l280 -198 q23 -12 7 -39l-41 -68q-18 -28 -49 -12l-308 158q-31 16 -4 55z" />
<glyph unicode="&#xc1;" horiz-adv-x="1267" d="M-56 16.5q-7 16.5 3 36.5l770 1379q12 23 35 22h18q20 0 29 -22l377 -1379q6 -20 -6.5 -36.5t-32.5 -16.5h-179q-45 0 -53 41l-51 227h-510l-119 -227q-20 -41 -65 -41h-189q-20 0 -27 16.5zM465 489h323l-96 447h-4zM575 1665q-10 27 17 39l336 199q35 23 49 -11 l49 -106q18 -39 -18 -55l-353 -158q-35 -14 -47 12z" />
<glyph unicode="&#xc2;" horiz-adv-x="1267" d="M-56 16.5q-7 16.5 3 36.5l770 1379q12 23 35 22h18q20 0 29 -22l377 -1379q6 -20 -6.5 -36.5t-32.5 -16.5h-179q-45 0 -53 41l-51 227h-510l-119 -227q-20 -41 -65 -41h-189q-20 0 -27 16.5zM465 489h323l-96 447h-4zM506 1640q-18 27 10 48l275 206q23 16 43 0l217 -206 q23 -16 6 -39l-60 -76q-18 -25 -41 -6l-159 127l-205 -127q-25 -16 -41 6z" />
<glyph unicode="&#xc3;" horiz-adv-x="1267" d="M-56 16.5q-7 16.5 3 36.5l770 1379q12 23 35 22h18q20 0 29 -22l377 -1379q6 -20 -6.5 -36.5t-32.5 -16.5h-179q-45 0 -53 41l-51 227h-510l-119 -227q-20 -41 -65 -41h-189q-20 0 -27 16.5zM465 489h323l-96 447h-4zM510 1706q86 172 209 172q49 0 106.5 -56.5 t85.5 -56.5q35 0 66 64q25 47 61 20l47 -37q29 -20 5 -67q-14 -29 -35 -59.5t-67 -63.5t-95 -33q-41 0 -79 29t-67.5 57.5t-50.5 28.5q-6 0 -12 -1t-11 -5t-10.5 -7t-10.5 -10.5l-7 -10.5t-7 -12t-7 -11t-8 -13l-5 -10q-6 -12 -21.5 -15t-27.5 7l-55 43q-20 20 -4 47z" />
<glyph unicode="&#xc4;" horiz-adv-x="1267" d="M-56 16.5q-7 16.5 3 36.5l770 1379q12 23 35 22h18q20 0 29 -22l377 -1379q6 -20 -6.5 -36.5t-32.5 -16.5h-179q-45 0 -53 41l-51 227h-510l-119 -227q-20 -41 -65 -41h-189q-20 0 -27 16.5zM438 1718q6 61 51.5 104.5t98.5 43.5q57 0 92 -42t29 -106q-8 -61 -54.5 -105 t-101.5 -44q-57 0 -90 43t-25 106zM465 489h323l-96 447h-4zM893 1718q6 61 51 104.5t100 43.5q57 0 91 -42t28 -106q-8 -61 -54 -105t-99 -44q-57 0 -91 43t-26 106z" />
<glyph unicode="&#xc5;" horiz-adv-x="1267" d="M-56 16.5q-7 16.5 3 36.5l770 1379q12 23 35 22h18q20 0 29 -22l377 -1379q6 -20 -6.5 -36.5t-32.5 -16.5h-179q-45 0 -53 41l-51 227h-510l-119 -227q-20 -41 -65 -41h-189q-20 0 -27 16.5zM465 489h323l-96 447h-4zM596 1745q0 109 71.5 185.5t174.5 76.5 q78 0 129 -58.5t51 -142.5q0 -109 -72 -185.5t-172 -76.5q-78 0 -130 58.5t-52 142.5zM725 1763q0 -37 20.5 -63.5t49.5 -26.5q37 0 67.5 35t30.5 80q0 37 -19.5 61.5t-50.5 24.5q-37 0 -67.5 -34t-30.5 -77z" />
<glyph unicode="&#xc6;" horiz-adv-x="1683" d="M-87.5 16.5q-4.5 16.5 9.5 36.5l924 1317q2 2 9 12.5t9 12.5t8.5 10t8.5 9t8 6t10 6t10 3.5t12.5 3.5t14.5 1h735q14 0 22.5 -11.5t6.5 -27.5l-25 -168q-2 -16 -13 -27.5t-26 -11.5h-528l-47 -336h436q14 0 23.5 -11.5t7.5 -27.5l-25 -170q-2 -16 -14 -27.5t-27 -11.5 h-436l-51 -358h528q33 0 29 -39l-23 -168q-2 -16 -14 -27.5t-27 -11.5h-757q-14 0 -23.5 11.5t-7.5 27.5l33 223h-359l-151 -231q-20 -31 -56 -31h-210q-20 0 -24.5 16.5zM518 489h225l64 455z" />
<glyph unicode="&#xc7;" horiz-adv-x="1286" d="M109 616q0 358 221 598t542 240q260 0 426 -194q23 -31 -8 -58l-110 -106q-35 -33 -68 0q-106 102 -254 102q-184 0 -321.5 -164t-137.5 -383q0 -170 85 -286.5t228.5 -116.5t280.5 121q39 33 66 -2l106 -134q18 -27 -10 -55q-195 -186 -434 -198l-82 -107q20 6 43 6 q66 0 109 -40t43 -109q0 -104 -75 -169t-186 -65q-133 0 -180 51q-18 20 6 58l25 41q27 47 59 18q33 -33 82 -33q41 0 75 23.5t34 69.5q0 66 -84 65q-16 0 -30.5 -4t-30 -10t-19.5 -8q-16 -6 -28.5 8t-2.5 28l111 185q-219 37 -350 211.5t-131 416.5z" />
<glyph unicode="&#xc8;" horiz-adv-x="1095" d="M94 39l191 1356q2 14 13 26.5t26 12.5h757q14 0 23.5 -11.5t7.5 -27.5l-25 -168q-2 -16 -14 -27.5t-26 -11.5h-525l-47 -336h434q14 0 23.5 -11.5t7.5 -27.5l-25 -170q-2 -16 -14 -27.5t-27 -11.5h-434l-51 -358h526q33 0 29 -39l-22 -168q-2 -16 -14.5 -27.5 t-26.5 -11.5h-758q-14 0 -23.5 11.5t-5.5 27.5zM549 1788l59 88q12 18 30.5 21.5t25.5 -5.5l280 -198q23 -12 6 -39l-41 -68q-18 -28 -49 -12l-307 158q-31 16 -4 55z" />
<glyph unicode="&#xc9;" horiz-adv-x="1095" d="M94 39l191 1356q2 14 13 26.5t26 12.5h757q14 0 23.5 -11.5t7.5 -27.5l-25 -168q-2 -16 -14 -27.5t-26 -11.5h-525l-47 -336h434q14 0 23.5 -11.5t7.5 -27.5l-25 -170q-2 -16 -14 -27.5t-27 -11.5h-434l-51 -358h526q33 0 29 -39l-22 -168q-2 -16 -14.5 -27.5 t-26.5 -11.5h-758q-14 0 -23.5 11.5t-5.5 27.5zM520 1665q-10 27 17 39l335 199q35 23 50 -11l49 -106q18 -39 -19 -55l-352 -158q-35 -14 -47 12z" />
<glyph unicode="&#xca;" horiz-adv-x="1095" d="M94 39l191 1356q2 14 13 26.5t26 12.5h757q14 0 23.5 -11.5t7.5 -27.5l-25 -168q-2 -16 -14 -27.5t-26 -11.5h-525l-47 -336h434q14 0 23.5 -11.5t7.5 -27.5l-25 -170q-2 -16 -14 -27.5t-27 -11.5h-434l-51 -358h526q33 0 29 -39l-22 -168q-2 -16 -14.5 -27.5 t-26.5 -11.5h-758q-14 0 -23.5 11.5t-5.5 27.5zM453 1640q-18 27 10 48l274 206q23 16 43 0l217 -206q23 -16 7 -39l-60 -76q-18 -25 -41 -6l-160 127l-204 -127q-25 -16 -41 6z" />
<glyph unicode="&#xcb;" horiz-adv-x="1095" d="M94 39l191 1356q2 14 13 26.5t26 12.5h757q14 0 23.5 -11.5t7.5 -27.5l-25 -168q-2 -16 -14 -27.5t-26 -11.5h-525l-47 -336h434q14 0 23.5 -11.5t7.5 -27.5l-25 -170q-2 -16 -14 -27.5t-27 -11.5h-434l-51 -358h526q33 0 29 -39l-22 -168q-2 -16 -14.5 -27.5 t-26.5 -11.5h-758q-14 0 -23.5 11.5t-5.5 27.5zM383 1718q6 61 51 104.5t98 43.5q57 0 92 -42t29 -106q-8 -61 -54 -105t-101 -44q-57 0 -90 43t-25 106zM838 1718q6 61 51 104.5t100 43.5q57 0 91 -42t28 -106q-8 -61 -54.5 -105t-99.5 -44q-57 0 -91 43t-25 106z" />
<glyph unicode="&#xcc;" horiz-adv-x="610" d="M94 39l191 1356q2 14 13 26.5t26 12.5h200q14 0 22.5 -12.5t6.5 -26.5l-191 -1356q-2 -16 -13 -27.5t-25 -11.5h-201q-14 0 -22.5 12.5t-6.5 26.5zM268 1788l60 88q12 18 30.5 21.5t24.5 -5.5l281 -198q23 -12 6 -39l-41 -68q-18 -28 -49 -12l-308 158q-31 16 -4 55z" />
<glyph unicode="&#xcd;" horiz-adv-x="610" d="M94 39l191 1356q2 14 13 26.5t26 12.5h200q14 0 22.5 -12.5t6.5 -26.5l-191 -1356q-2 -16 -13 -27.5t-25 -11.5h-201q-14 0 -22.5 12.5t-6.5 26.5zM238 1665q-10 27 16 39l336 199q35 23 49 -11l49 -106q18 -39 -18 -55l-353 -158q-35 -14 -47 12z" />
<glyph unicode="&#xce;" horiz-adv-x="610" d="M94 39l191 1356q2 14 13 26.5t26 12.5h200q14 0 22.5 -12.5t6.5 -26.5l-191 -1356q-2 -16 -13 -27.5t-25 -11.5h-201q-14 0 -22.5 12.5t-6.5 26.5zM170 1640q-18 27 10 48l275 206q23 16 43 0l217 -206q23 -16 6 -39l-59 -76q-18 -25 -41 -6l-160 127l-205 -127 q-25 -16 -41 6z" />
<glyph unicode="&#xcf;" horiz-adv-x="610" d="M94 39l191 1356q2 14 13 26.5t26 12.5h200q14 0 22.5 -12.5t6.5 -26.5l-191 -1356q-2 -16 -13 -27.5t-25 -11.5h-201q-14 0 -22.5 12.5t-6.5 26.5zM100 1718q6 61 51.5 104.5t98.5 43.5q57 0 92 -42t29 -106q-8 -61 -54.5 -105t-101.5 -44q-57 0 -90 43t-25 106z M555 1718q6 61 51 104.5t101 43.5q57 0 90.5 -42t27.5 -106q-8 -61 -54 -105t-99 -44q-57 0 -91 43t-26 106z" />
<glyph unicode="&#xd0;" horiz-adv-x="1394" d="M96 39l86 618h-53q-14 0 -22.5 11.5t-6.5 27.5l2 27q2 14 14.5 26.5t26.5 12.5h54l90 633q2 14 13 26.5t26 12.5h442q238 0 396.5 -186.5t158.5 -436.5q0 -334 -220 -572.5t-536 -238.5h-444q-14 0 -22.5 11.5t-4.5 27.5zM391 250h191q188 0 322 156.5t134 386.5 q0 170 -89 281.5t-234 111.5h-193l-59 -424h280q33 0 29 -39l-4 -29q-4 -37 -39 -37h-280z" />
<glyph unicode="&#xd1;" horiz-adv-x="1443" d="M96 35l193 1382q2 14 13 25.5t26 11.5h22q31 0 53 -33l603 -852h2l110 826q2 16 13.5 27.5t25.5 11.5h199q14 0 23.5 -11.5t6.5 -27.5l-194 -1379q-2 -14 -13.5 -25t-25.5 -11h-20q-23 0 -33 7t-27 29l-598 875h-2l-111 -852q-2 -16 -14 -27.5t-26 -11.5h-197 q-12 0 -21.5 10.5t-7.5 24.5zM578 1706q86 172 208 172q49 0 106.5 -56.5t86.5 -56.5q33 0 65 64q25 47 62 20l47 -37q29 -20 4 -67q-14 -29 -34.5 -59.5t-66.5 -63.5t-95 -33q-41 0 -79 29t-68 57.5t-50 28.5q-6 0 -12.5 -1t-11.5 -5t-10 -7t-10 -10.5l-7 -10.5t-7.5 -12 t-7.5 -11t-6 -13l-6 -10q-6 -12 -21.5 -15t-27.5 7l-55 43q-20 20 -4 47z" />
<glyph unicode="&#xd2;" horiz-adv-x="1521" d="M109 614q0 350 220 595t545 245q246 0 411 -188.5t165 -452.5q0 -348 -221 -590.5t-545 -242.5q-246 0 -410.5 187t-164.5 447zM385 649q0 -172 90.5 -287.5t237.5 -115.5q188 0 324.5 157.5t136.5 376.5q0 172 -91.5 290t-238.5 118q-184 0 -321.5 -161t-137.5 -378z M707 1788l59 88q12 18 30.5 21.5t24.5 -5.5l281 -198q23 -12 6 -39l-41 -68q-18 -28 -49 -12l-307 158q-31 16 -4 55z" />
<glyph unicode="&#xd3;" horiz-adv-x="1521" d="M109 614q0 350 220 595t545 245q246 0 411 -188.5t165 -452.5q0 -348 -221 -590.5t-545 -242.5q-246 0 -410.5 187t-164.5 447zM385 649q0 -172 90.5 -287.5t237.5 -115.5q188 0 324.5 157.5t136.5 376.5q0 172 -91.5 290t-238.5 118q-184 0 -321.5 -161t-137.5 -378z M676 1665q-10 27 16 39l336 199q35 23 49 -11l49 -106q18 -39 -18 -55l-352 -158q-35 -14 -47 12z" />
<glyph unicode="&#xd4;" horiz-adv-x="1521" d="M109 614q0 350 220 595t545 245q246 0 411 -188.5t165 -452.5q0 -348 -221 -590.5t-545 -242.5q-246 0 -410.5 187t-164.5 447zM385 649q0 -172 90.5 -287.5t237.5 -115.5q188 0 324.5 157.5t136.5 376.5q0 172 -91.5 290t-238.5 118q-184 0 -321.5 -161t-137.5 -378z M606 1640q-18 27 10 48l275 206q23 16 43 0l217 -206q23 -16 6 -39l-59 -76q-18 -25 -41 -6l-160 127l-205 -127q-25 -16 -41 6z" />
<glyph unicode="&#xd5;" horiz-adv-x="1521" d="M109 614q0 350 220 595t545 245q246 0 411 -188.5t165 -452.5q0 -348 -221 -590.5t-545 -242.5q-246 0 -410.5 187t-164.5 447zM385 649q0 -172 90.5 -287.5t237.5 -115.5q188 0 324.5 157.5t136.5 376.5q0 172 -91.5 290t-238.5 118q-184 0 -321.5 -161t-137.5 -378z M610 1706q86 172 209 172q49 0 106.5 -56.5t86.5 -56.5q33 0 65 64q25 47 62 20l47 -37q29 -20 4 -67q-14 -29 -34.5 -59.5t-67 -63.5t-95.5 -33q-41 0 -78.5 29t-67.5 57.5t-50 28.5q-6 0 -12.5 -1t-11.5 -5t-10 -7t-10 -10.5t-7.5 -10.5t-7.5 -12t-7 -11t-6 -13l-6 -10 q-6 -12 -21.5 -15t-27.5 7l-56 43q-20 20 -4 47z" />
<glyph unicode="&#xd6;" horiz-adv-x="1521" d="M109 614q0 350 220 595t545 245q246 0 411 -188.5t165 -452.5q0 -348 -221 -590.5t-545 -242.5q-246 0 -410.5 187t-164.5 447zM385 649q0 -172 90.5 -287.5t237.5 -115.5q188 0 324.5 157.5t136.5 376.5q0 172 -91.5 290t-238.5 118q-184 0 -321.5 -161t-137.5 -378z M541 1718q6 61 51 104.5t98 43.5q57 0 92 -42t29 -106q-8 -61 -54.5 -105t-101.5 -44q-57 0 -90 43t-24 106zM995 1718q6 61 51.5 104.5t100.5 43.5q57 0 91 -42t28 -106q-8 -61 -54.5 -105t-99.5 -44q-57 0 -91 43t-26 106z" />
<glyph unicode="&#xd7;" d="M268 442q-23 25 6 54l228 221l-160 215q-8 10 -6 28.5t14 26.5l86 74q33 25 49 0l160 -215l227 223q27 25 50 -2l75 -86q25 -25 -6 -53l-227 -223l160 -216q8 -12 6 -28.5t-15 -26.5l-88 -72q-31 -25 -47 -2l-162 218l-227 -222q-22 -25 -47 0z" />
<glyph unicode="&#xd8;" horiz-adv-x="1521" d="M59 47q-23 23 7 53l149 144q-106 164 -106 370q0 350 220 595t545 245q244 0 412 -188l152 145q25 23 47 0l18 -20q20 -25 -8 -54l-154 -147q109 -172 109 -377q0 -348 -221 -590.5t-545 -242.5q-246 0 -412 186l-147 -141q-23 -23 -47 2zM385 649q0 -111 41 -203 l653 623q-94 119 -235 119q-178 0 -318.5 -162t-140.5 -377zM477 362q94 -117 236 -116q180 0 320.5 158.5t140.5 375.5q0 109 -44 207z" />
<glyph unicode="&#xd9;" horiz-adv-x="1355" d="M141 436q0 39 6 82l125 877q2 14 14.5 26.5t26.5 12.5h203q14 0 23.5 -11.5t7.5 -27.5l-123 -863q-4 -23 -4 -65q0 -102 53 -159.5t156 -57.5q123 0 195.5 73.5t90.5 206.5l123 865q2 16 14.5 27.5t26.5 11.5h203q14 0 23.5 -11.5t7.5 -27.5l-125 -877 q-33 -240 -188.5 -389t-391.5 -149q-205 0 -336 128t-131 328zM635 1788l59 88q12 18 30.5 21.5t25.5 -5.5l280 -198q23 -12 6 -39l-41 -68q-18 -28 -49 -12l-307 158q-31 16 -4 55z" />
<glyph unicode="&#xda;" horiz-adv-x="1355" d="M141 436q0 39 6 82l125 877q2 14 14.5 26.5t26.5 12.5h203q14 0 23.5 -11.5t7.5 -27.5l-123 -863q-4 -23 -4 -65q0 -102 53 -159.5t156 -57.5q123 0 195.5 73.5t90.5 206.5l123 865q2 16 14.5 27.5t26.5 11.5h203q14 0 23.5 -11.5t7.5 -27.5l-125 -877 q-33 -240 -188.5 -389t-391.5 -149q-205 0 -336 128t-131 328zM606 1665q-10 27 17 39l335 199q35 23 50 -11l49 -106q18 -39 -19 -55l-352 -158q-35 -14 -47 12z" />
<glyph unicode="&#xdb;" horiz-adv-x="1355" d="M141 436q0 39 6 82l125 877q2 14 14.5 26.5t26.5 12.5h203q14 0 23.5 -11.5t7.5 -27.5l-123 -863q-4 -23 -4 -65q0 -102 53 -159.5t156 -57.5q123 0 195.5 73.5t90.5 206.5l123 865q2 16 14.5 27.5t26.5 11.5h203q14 0 23.5 -11.5t7.5 -27.5l-125 -877 q-33 -240 -188.5 -389t-391.5 -149q-205 0 -336 128t-131 328zM539 1640q-18 27 10 48l274 206q23 16 43 0l217 -206q23 -16 7 -39l-60 -76q-18 -25 -41 -6l-160 127l-204 -127q-25 -16 -41 6z" />
<glyph unicode="&#xdc;" horiz-adv-x="1355" d="M141 436q0 39 6 82l125 877q2 14 14.5 26.5t26.5 12.5h203q14 0 23.5 -11.5t7.5 -27.5l-123 -863q-4 -23 -4 -65q0 -102 53 -159.5t156 -57.5q123 0 195.5 73.5t90.5 206.5l123 865q2 16 14.5 27.5t26.5 11.5h203q14 0 23.5 -11.5t7.5 -27.5l-125 -877 q-33 -240 -188.5 -389t-391.5 -149q-205 0 -336 128t-131 328zM469 1718q6 61 51 104.5t98 43.5q57 0 92 -42t29 -106q-8 -61 -54 -105t-101 -44q-57 0 -90 43t-25 106zM924 1718q6 61 51 104.5t100 43.5q57 0 91 -42t28 -106q-8 -61 -54.5 -105t-99.5 -44q-57 0 -91 43 t-25 106z" />
<glyph unicode="&#xdd;" horiz-adv-x="1136" d="M125 1384q-8 20 2 35t33 15h192q27 0 39 -29l213 -467h4l342 477q14 18 33 19h225q23 0 28 -16.5t-9 -37.5l-516 -688l-90 -653q-2 -14 -14.5 -26.5t-26.5 -12.5h-199q-33 0 -29 39l92 651zM483 1665q-10 27 17 39l336 199q35 23 49 -11l49 -106q18 -39 -19 -55 l-352 -158q-35 -14 -47 12z" />
<glyph unicode="&#xde;" horiz-adv-x="1122" d="M94 39l191 1356q2 16 14 27.5t27 11.5h196q14 0 22.5 -11.5t6.5 -27.5l-31 -221h207q152 2 253 -116t101 -280q0 -213 -141 -365.5t-340 -152.5h-209l-31 -221q-2 -14 -14 -26.5t-27 -12.5h-196q-14 0 -23.5 11.5t-5.5 27.5zM426 510h192q76 0 136.5 71.5t60.5 170.5 q0 74 -39 122t-100 48h-191z" />
<glyph unicode="&#xdf;" horiz-adv-x="1112" d="M-16 -440l196 1376q35 240 164 379t336 139q164 0 273.5 -96t109.5 -258q0 -90 -54.5 -165t-107.5 -126t-53 -82q0 -25 23.5 -65.5t53 -81.5t53 -102.5t23.5 -123.5q0 -182 -122.5 -279.5t-286.5 -97.5q-86 1 -86 50v145q0 45 59 45q150 0 150 141q0 70 -75 182.5 t-75 155.5q0 61 54.5 137t108.5 145t54 114q0 125 -118 125q-84 0 -145.5 -79t-80.5 -210l-194 -1368q-2 -18 -17.5 -32.5t-29.5 -14.5h-181q-18 0 -27 14t-5 33z" />
<glyph unicode="&#xe0;" horiz-adv-x="1091" d="M59 412q0 231 138.5 393t343.5 162q88 0 158.5 -40t107.5 -85l43 73q14 31 39 31h84q16 0 26.5 -13.5t6.5 -31.5l-117 -856q-2 -18 -16.5 -31.5t-30.5 -13.5h-84q-29 0 -37 41l-16 72q-135 -135 -285 -136q-162 0 -261.5 125t-99.5 310zM315 418q0 -84 41 -142.5 t119 -58.5q66 0 125.5 54.5t75.5 99.5l31 227q-8 45 -53.5 88t-112.5 43q-94 0 -160 -87t-66 -224zM432 1300l60 89q12 18 30.5 21t24.5 -5l280 -199q23 -12 7 -39l-41 -67q-19 -29 -50 -13l-307 158q-31 16 -4 55z" />
<glyph unicode="&#xe1;" horiz-adv-x="1091" d="M59 412q0 231 138.5 393t343.5 162q88 0 158.5 -40t107.5 -85l43 73q14 31 39 31h84q16 0 26.5 -13.5t6.5 -31.5l-117 -856q-2 -18 -16.5 -31.5t-30.5 -13.5h-84q-29 0 -37 41l-16 72q-135 -135 -285 -136q-162 0 -261.5 125t-99.5 310zM315 418q0 -84 41 -142.5 t119 -58.5q66 0 125.5 54.5t75.5 99.5l31 227q-8 45 -53.5 88t-112.5 43q-94 0 -160 -87t-66 -224zM432 1174q-10 27 17 38l335 199q35 23 50 -10l49 -107q18 -39 -19 -55l-352 -158q-35 -14 -47 13z" />
<glyph unicode="&#xe2;" horiz-adv-x="1091" d="M59 412q0 231 138.5 393t343.5 162q88 0 158.5 -40t107.5 -85l43 73q14 31 39 31h84q16 0 26.5 -13.5t6.5 -31.5l-117 -856q-2 -18 -16.5 -31.5t-30.5 -13.5h-84q-29 0 -37 41l-16 72q-135 -135 -285 -136q-162 0 -261.5 125t-99.5 310zM315 418q0 -84 41 -142.5 t119 -58.5q66 0 125.5 54.5t75.5 99.5l31 227q-8 45 -53.5 88t-112.5 43q-94 0 -160 -87t-66 -224zM338 1151q-18 27 10 47l275 207q23 16 43 0l217 -207q23 -16 6 -39l-60 -76q-18 -25 -41 -6l-159 127l-205 -127q-25 -17 -41 6z" />
<glyph unicode="&#xe3;" horiz-adv-x="1091" d="M59 412q0 231 138.5 393t343.5 162q88 0 158.5 -40t107.5 -85l43 73q14 31 39 31h84q16 0 26.5 -13.5t6.5 -31.5l-117 -856q-2 -18 -16.5 -31.5t-30.5 -13.5h-84q-29 0 -37 41l-16 72q-135 -135 -285 -136q-162 0 -261.5 125t-99.5 310zM315 418q0 -84 41 -142.5 t119 -58.5q66 0 125.5 54.5t75.5 99.5l31 227q-8 45 -53.5 88t-112.5 43q-94 0 -160 -87t-66 -224zM360 1241q86 172 209 172q49 0 106.5 -56.5t86.5 -56.5q33 0 65 64q25 47 62 20l47 -36q29 -20 4 -68q-14 -29 -34.5 -59.5t-66.5 -63.5t-96 -33q-41 0 -78.5 29t-67.5 57.5 t-50 28.5q-6 0 -12.5 -1t-11.5 -5t-10 -7t-10 -10.5l-7 -10.5t-7.5 -12t-7.5 -11t-6 -13l-6 -10q-6 -12 -21.5 -15t-27.5 7l-55 43q-20 20 -5 47z" />
<glyph unicode="&#xe4;" horiz-adv-x="1091" d="M59 412q0 231 138.5 393t343.5 162q88 0 158.5 -40t107.5 -85l43 73q14 31 39 31h84q16 0 26.5 -13.5t6.5 -31.5l-117 -856q-2 -18 -16.5 -31.5t-30.5 -13.5h-84q-29 0 -37 41l-16 72q-135 -135 -285 -136q-162 0 -261.5 125t-99.5 310zM315 418q0 -84 41 -142.5 t119 -58.5q66 0 125.5 54.5t75.5 99.5l31 227q-8 45 -53.5 88t-112.5 43q-94 0 -160 -87t-66 -224zM330 1260q6 61 52 104t99 43q57 0 92 -42t29 -105q-8 -61 -54.5 -105.5t-101.5 -44.5q-57 0 -90.5 43t-25.5 107zM717 1260q6 61 51 104t100 43q57 0 92 -42t29 -105 q-8 -61 -55 -105.5t-100 -44.5q-57 0 -91 43t-26 107z" />
<glyph unicode="&#xe5;" horiz-adv-x="1091" d="M59 412q0 231 138.5 393t343.5 162q88 0 158.5 -40t107.5 -85l43 73q14 31 39 31h84q16 0 26.5 -13.5t6.5 -31.5l-117 -856q-2 -18 -16.5 -31.5t-30.5 -13.5h-84q-29 0 -37 41l-16 72q-135 -135 -285 -136q-162 0 -261.5 125t-99.5 310zM315 418q0 -84 41 -142.5 t119 -58.5q66 0 125.5 54.5t75.5 99.5l31 227q-8 45 -53.5 88t-112.5 43q-94 0 -160 -87t-66 -224zM434 1245q0 109 72 185.5t174 76.5q78 0 129 -58t51 -142q0 -109 -72 -186t-172 -77q-78 0 -130 58.5t-52 142.5zM563 1264q0 -37 20.5 -63.5t49.5 -26.5q37 0 67.5 34.5 t30.5 79.5q0 37 -19.5 61.5t-49.5 24.5q-37 0 -68 -33.5t-31 -76.5z" />
<glyph unicode="&#xe6;" horiz-adv-x="1445" d="M27 250q0 152 106.5 250t276.5 98q37 0 73.5 -5t57.5 -11l18 -4q10 96 -8.5 133t-83.5 37q-86 0 -227 -37q-16 -2 -29.5 9t-13.5 28l-4 126q0 37 43 50q168 43 290 43q166 0 240 -117q47 53 137 85t182 32q137 0 225.5 -76t88.5 -186q0 -86 -53.5 -152t-142.5 -100.5 t-190.5 -52t-211.5 -17.5q-6 -76 35 -126t122 -50q78 0 168 65q39 25 58 0l80 -106q18 -35 -9 -62q-141 -127 -335 -127q-186 0 -291 154h-2q-37 -57 -120 -105.5t-212 -48.5q-119 0 -193.5 74t-74.5 199zM274 287q0 -47 32 -77t73 -30q145 0 160 238q-72 14 -119 14 q-53 0 -99.5 -41t-46.5 -104zM825 557q137 0 228.5 32t91.5 87q0 31 -24.5 52.5t-73.5 21.5q-70 0 -136 -61.5t-86 -131.5z" />
<glyph unicode="&#xe7;" horiz-adv-x="925" d="M61 418q0 238 142.5 393.5t349.5 155.5q102 0 186 -46.5t135 -117.5q20 -29 -18 -68l-78 -80q-33 -33 -61 2q-61 72 -158 72q-98 0 -169 -86t-71 -209q0 -86 47.5 -151.5t112.5 -65.5q78 0 172 100q29 35 60 5l88 -89q33 -33 10 -65q-127 -166 -309 -188l-82 -107 q20 6 43 6q66 0 108.5 -40t42.5 -109q0 -104 -74.5 -169t-185.5 -65q-133 0 -180 51q-18 20 6 58l25 41q27 47 59 18q33 -33 82 -33q41 0 75 23.5t34 69.5q0 66 -84 65q-16 0 -30.5 -4t-30 -10t-19.5 -8q-16 -6 -28.5 8t-2.5 28l111 183q-139 29 -223.5 146.5t-84.5 285.5z " />
<glyph unicode="&#xe8;" horiz-adv-x="948" d="M57 397q0 227 146.5 398.5t384.5 171.5q137 0 225 -76t88 -186q0 -115 -94 -190t-221 -102.5t-283 -29.5q-4 -78 35 -127t121 -49q74 0 174 65q37 29 53 0l78 -104q23 -33 -6 -62q-143 -129 -328 -129q-174 0 -273.5 121t-99.5 299zM328 557q137 0 228 32t91 87 q0 31 -24.5 52.5t-73.5 21.5q-70 0 -135.5 -61.5t-85.5 -131.5zM477 1300l60 89q12 18 30.5 21t24.5 -5l280 -199q23 -12 7 -39l-41 -67q-19 -29 -50 -13l-307 158q-31 16 -4 55z" />
<glyph unicode="&#xe9;" horiz-adv-x="948" d="M57 397q0 227 146.5 398.5t384.5 171.5q137 0 225 -76t88 -186q0 -115 -94 -190t-221 -102.5t-283 -29.5q-4 -78 35 -127t121 -49q74 0 174 65q37 29 53 0l78 -104q23 -33 -6 -62q-143 -129 -328 -129q-174 0 -273.5 121t-99.5 299zM328 557q137 0 228 32t91 87 q0 31 -24.5 52.5t-73.5 21.5q-70 0 -135.5 -61.5t-85.5 -131.5zM440 1174q-10 27 17 38l336 199q35 23 49 -10l49 -107q18 -39 -19 -55l-352 -158q-35 -14 -47 13z" />
<glyph unicode="&#xea;" horiz-adv-x="948" d="M57 397q0 227 146.5 398.5t384.5 171.5q137 0 225 -76t88 -186q0 -115 -94 -190t-221 -102.5t-283 -29.5q-4 -78 35 -127t121 -49q74 0 174 65q37 29 53 0l78 -104q23 -33 -6 -62q-143 -129 -328 -129q-174 0 -273.5 121t-99.5 299zM328 557q137 0 228 32t91 87 q0 31 -24.5 52.5t-73.5 21.5q-70 0 -135.5 -61.5t-85.5 -131.5zM360 1151q-18 27 11 47l274 207q23 16 43 0l217 -207q23 -16 6 -39l-59 -76q-18 -25 -41 -6l-160 127l-205 -127q-24 -17 -40 6z" />
<glyph unicode="&#xeb;" horiz-adv-x="948" d="M57 397q0 227 146.5 398.5t384.5 171.5q137 0 225 -76t88 -186q0 -115 -94 -190t-221 -102.5t-283 -29.5q-4 -78 35 -127t121 -49q74 0 174 65q37 29 53 0l78 -104q23 -33 -6 -62q-143 -129 -328 -129q-174 0 -273.5 121t-99.5 299zM328 557q137 0 228 32t91 87 q0 31 -24.5 52.5t-73.5 21.5q-70 0 -135.5 -61.5t-85.5 -131.5zM330 1260q6 61 52 104t99 43q57 0 92 -42t29 -105q-8 -61 -54.5 -105.5t-101.5 -44.5q-57 0 -90.5 43t-25.5 107zM717 1260q6 61 51 104t100 43q57 0 92 -42t29 -105q-8 -61 -55 -105.5t-100 -44.5 q-57 0 -91 43t-26 107z" />
<glyph unicode="&#xec;" horiz-adv-x="516" d="M53 45l121 856q2 18 16.5 31.5t30.5 13.5h176q16 0 27.5 -13t9.5 -32l-123 -856q-2 -18 -16 -31.5t-31 -13.5h-174q-16 0 -27.5 13.5t-9.5 31.5zM150 1300l59 89q12 18 30.5 21t24.5 -5l281 -199q23 -12 6 -39l-41 -67q-18 -29 -49 -13l-307 158q-31 16 -4 55z" />
<glyph unicode="&#xed;" horiz-adv-x="516" d="M53 45l121 856q2 18 16.5 31.5t30.5 13.5h176q16 0 27.5 -13t9.5 -32l-123 -856q-2 -18 -16 -31.5t-31 -13.5h-174q-16 0 -27.5 13.5t-9.5 31.5zM145 1174q-10 27 17 38l336 199q35 23 49 -10l49 -107q18 -39 -18 -55l-353 -158q-35 -14 -47 13z" />
<glyph unicode="&#xee;" horiz-adv-x="516" d="M51 1151q-18 27 10 47l275 207q23 16 43 0l217 -207q23 -16 6 -39l-59 -76q-18 -25 -41 -6l-160 127l-205 -127q-25 -17 -41 6zM53 45l121 856q2 18 16.5 31.5t30.5 13.5h176q16 0 27.5 -13t9.5 -32l-123 -856q-2 -18 -16 -31.5t-31 -13.5h-174q-16 0 -27.5 13.5 t-9.5 31.5z" />
<glyph unicode="&#xef;" horiz-adv-x="516" d="M20 1260q6 61 52.5 104t99.5 43q57 0 92 -42t29 -105q-8 -61 -54.5 -105.5t-101.5 -44.5q-57 0 -91 43t-26 107zM53 45l121 856q2 18 16.5 31.5t30.5 13.5h176q16 0 27.5 -13t9.5 -32l-123 -856q-2 -18 -16 -31.5t-31 -13.5h-174q-16 0 -27.5 13.5t-9.5 31.5zM408 1260 q6 61 51 104t100 43q57 0 92 -42t29 -105q-8 -61 -55.5 -105.5t-100.5 -44.5q-57 0 -91 43t-25 107z" />
<glyph unicode="&#xf0;" horiz-adv-x="1054" d="M63 463q29 213 163 335t290 122q121 0 197 -60q-18 152 -152 281l-176 -101q-33 -18 -45 13l-10 26q-14 31 18 54l129 75q-61 41 -112 62q-49 18 -25 61l57 121q23 41 58 29q131 -53 239 -148l142 82q27 14 45 -16l14 -23q8 -14 2 -30.5t-23 -24.5l-104 -59 q248 -276 188 -701q-35 -250 -176 -415.5t-356 -165.5q-176 0 -283 142t-80 341zM295 467q-14 -102 32 -175t132 -73q106 0 170.5 92t83.5 219q-10 72 -53.5 127.5t-129.5 55.5q-88 0 -154.5 -72t-80.5 -174z" />
<glyph unicode="&#xf1;" horiz-adv-x="1054" d="M53 45l121 856q2 18 15.5 31.5t29.5 13.5h78q29 0 33 -28l20 -89l19 17q18 16 24 22t26.5 22.5t34 24t38 19.5t45 17t49 10.5t57.5 5.5q182 0 247.5 -126t37.5 -327l-68 -469q-2 -18 -15.5 -31.5t-29.5 -13.5h-180q-37 0 -33 45l74 483q14 100 -6.5 150.5t-96.5 50.5 q-55 0 -101 -32.5t-66 -65.5l-19 -33l-82 -553q-6 -45 -49 -45h-168q-16 0 -26.5 13.5t-8.5 31.5zM346 1241q86 172 209 172q49 0 106.5 -56.5t86.5 -56.5q35 0 65 64q25 47 61 20l48 -36q29 -20 4 -68q-14 -29 -35 -59.5t-67 -63.5t-95 -33q-41 0 -79 29t-67.5 57.5 t-50.5 28.5q-6 0 -12 -1t-11 -5t-10 -7t-10.5 -10.5t-7.5 -10.5t-7 -12t-7 -11t-8 -13l-4 -10q-6 -12 -21.5 -15t-27.5 7l-56 43q-20 20 -4 47z" />
<glyph unicode="&#xf2;" horiz-adv-x="1036" d="M57 408q0 229 151.5 394t364.5 165q160 0 268.5 -125t108.5 -301q0 -229 -153.5 -396.5t-362.5 -167.5q-162 0 -269.5 128.5t-107.5 302.5zM305 434q0 -94 42 -155.5t122 -61.5q96 0 162.5 88t66.5 213q0 90 -41 150.5t-116 60.5q-100 0 -168 -86t-68 -209zM426 1300 l59 89q12 18 31 21t25 -5l280 -199q23 -12 6 -39l-41 -67q-18 -29 -49 -13l-307 158q-31 16 -4 55z" />
<glyph unicode="&#xf3;" horiz-adv-x="1036" d="M57 408q0 229 151.5 394t364.5 165q160 0 268.5 -125t108.5 -301q0 -229 -153.5 -396.5t-362.5 -167.5q-162 0 -269.5 128.5t-107.5 302.5zM305 434q0 -94 42 -155.5t122 -61.5q96 0 162.5 88t66.5 213q0 90 -41 150.5t-116 60.5q-100 0 -168 -86t-68 -209zM395 1174 q-10 27 17 38l336 199q35 23 49 -10l49 -107q18 -39 -19 -55l-352 -158q-35 -14 -47 13z" />
<glyph unicode="&#xf4;" horiz-adv-x="1036" d="M57 408q0 229 151.5 394t364.5 165q160 0 268.5 -125t108.5 -301q0 -229 -153.5 -396.5t-362.5 -167.5q-162 0 -269.5 128.5t-107.5 302.5zM305 434q0 -94 42 -155.5t122 -61.5q96 0 162.5 88t66.5 213q0 90 -41 150.5t-116 60.5q-100 0 -168 -86t-68 -209zM319 1151 q-18 27 11 47l274 207q23 16 43 0l217 -207q23 -16 6 -39l-59 -76q-18 -25 -41 -6l-160 127l-204 -127q-25 -17 -41 6z" />
<glyph unicode="&#xf5;" horiz-adv-x="1036" d="M57 408q0 229 151.5 394t364.5 165q160 0 268.5 -125t108.5 -301q0 -229 -153.5 -396.5t-362.5 -167.5q-162 0 -269.5 128.5t-107.5 302.5zM305 434q0 -94 42 -155.5t122 -61.5q96 0 162.5 88t66.5 213q0 90 -41 150.5t-116 60.5q-100 0 -168 -86t-68 -209zM322 1241 q86 172 208 172q49 0 106.5 -56.5t86.5 -56.5q35 0 65 64q25 47 62 20l47 -36q29 -20 4 -68q-14 -29 -34.5 -59.5t-66.5 -63.5t-95 -33q-41 0 -79 29t-68 57.5t-50 28.5q-6 0 -12.5 -1t-11.5 -5t-10 -7t-10 -10.5l-7 -10.5t-7.5 -12t-7.5 -11t-8 -13l-4 -10 q-6 -12 -21.5 -15t-27.5 7l-55 43q-20 20 -4 47z" />
<glyph unicode="&#xf6;" horiz-adv-x="1036" d="M57 408q0 229 151.5 394t364.5 165q160 0 268.5 -125t108.5 -301q0 -229 -153.5 -396.5t-362.5 -167.5q-162 0 -269.5 128.5t-107.5 302.5zM291 1260q6 61 52 104t99 43q57 0 92 -42t29 -105q-8 -61 -54 -105.5t-101 -44.5q-57 0 -91 43t-26 107zM305 434 q0 -94 42 -155.5t122 -61.5q96 0 162.5 88t66.5 213q0 90 -41 150.5t-116 60.5q-100 0 -168 -86t-68 -209zM678 1260q6 61 51 104t100 43q57 0 92 -42t29 -105q-8 -61 -55 -105.5t-100 -44.5q-57 0 -91 43t-26 107z" />
<glyph unicode="&#xf7;" d="M223 651l17 115q2 16 13 27.5t26 11.5h733q14 0 22 -11.5t6 -27.5l-16 -115q-2 -16 -13.5 -27.5t-25.5 -11.5h-733q-14 0 -22.5 11.5t-6.5 27.5zM438 309q0 66 45 112t107 46q51 0 84 -35t33 -86q0 -66 -47.5 -113t-108.5 -47q-49 0 -81 36t-32 87zM549 1090q0 63 46 110 t107 47q49 0 82 -35.5t33 -87.5q0 -63 -47 -111t-108 -48q-49 0 -81 36.5t-32 88.5z" />
<glyph unicode="&#xf8;" horiz-adv-x="1036" d="M45 55q-27 29 8 64l62 59q-58 105 -58 230q0 229 151.5 394t364.5 165q147 0 252 -109l66 64q31 29 55 0l21 -23q23 -29 -9 -63l-67 -66q59 -106 59 -229q0 -229 -153.5 -396.5t-362.5 -167.5q-147 0 -254 111l-59 -57q-25 -25 -55 2zM305 434q0 -37 6 -67l332 317 q-39 45 -102 45q-100 0 -168 -86t-68 -209zM360 262q41 -45 109 -45q96 0 162.5 88t66.5 213q0 35 -6 62z" />
<glyph unicode="&#xf9;" horiz-adv-x="1021" d="M94 399l74 502q6 45 45 45h176q16 0 26.5 -12t8.5 -33l-74 -510q-14 -92 7.5 -133t82.5 -41q51 0 92 33t56 65l14 31l78 555q8 45 51 45h172q16 0 26.5 -13t8.5 -32l-119 -856q-2 -18 -16.5 -31.5t-30.5 -13.5h-78q-29 0 -37 35l-16 80q-39 -45 -59.5 -64.5t-82 -46.5 t-139.5 -27q-180 0 -237 112t-29 310zM379 1300l59 89q12 18 30.5 21t25.5 -5l280 -199q23 -12 6 -39l-41 -67q-18 -29 -49 -13l-307 158q-31 16 -4 55z" />
<glyph unicode="&#xfa;" horiz-adv-x="1021" d="M94 399l74 502q6 45 45 45h176q16 0 26.5 -12t8.5 -33l-74 -510q-14 -92 7.5 -133t82.5 -41q51 0 92 33t56 65l14 31l78 555q8 45 51 45h172q16 0 26.5 -13t8.5 -32l-119 -856q-2 -18 -16.5 -31.5t-30.5 -13.5h-78q-29 0 -37 35l-16 80q-39 -45 -59.5 -64.5t-82 -46.5 t-139.5 -27q-180 0 -237 112t-29 310zM414 1174q-10 27 16 38l336 199q35 23 49 -10l49 -107q18 -39 -18 -55l-352 -158q-35 -14 -48 13z" />
<glyph unicode="&#xfb;" horiz-adv-x="1021" d="M94 399l74 502q6 45 45 45h176q16 0 26.5 -12t8.5 -33l-74 -510q-14 -92 7.5 -133t82.5 -41q51 0 92 33t56 65l14 31l78 555q8 45 51 45h172q16 0 26.5 -13t8.5 -32l-119 -856q-2 -18 -16.5 -31.5t-30.5 -13.5h-78q-29 0 -37 35l-16 80q-39 -45 -59.5 -64.5t-82 -46.5 t-139.5 -27q-180 0 -237 112t-29 310zM317 1151q-18 27 11 47l274 207q23 16 43 0l217 -207q23 -16 6 -39l-59 -76q-18 -25 -41 -6l-160 127l-205 -127q-25 -17 -41 6z" />
<glyph unicode="&#xfc;" horiz-adv-x="1021" d="M94 399l74 502q6 45 45 45h176q16 0 26.5 -12t8.5 -33l-74 -510q-14 -92 7.5 -133t82.5 -41q51 0 92 33t56 65l14 31l78 555q8 45 51 45h172q16 0 26.5 -13t8.5 -32l-119 -856q-2 -18 -16.5 -31.5t-30.5 -13.5h-78q-29 0 -37 35l-16 80q-39 -45 -59.5 -64.5t-82 -46.5 t-139.5 -27q-180 0 -237 112t-29 310zM272 1260q6 61 52.5 104t99.5 43q57 0 92 -42t29 -105q-8 -61 -54.5 -105.5t-101.5 -44.5q-57 0 -91 43t-26 107zM659 1260q6 61 51.5 104t100.5 43q57 0 92 -42t29 -105q-8 -61 -55.5 -105.5t-100.5 -44.5q-57 0 -91 43t-26 107z" />
<glyph unicode="&#xfd;" horiz-adv-x="966" d="M-2 -472q-6 15 8 42l264 498l-182 817q-12 61 37 61h182q31 0 35 -26l92 -578h6l267 578q12 27 47 26h186q25 0 32 -19.5t-5 -41.5l-705 -1344q-14 -29 -41 -28h-194q-23 0 -29 15zM461 1174q-10 27 16 38l336 199q35 23 49 -10l49 -107q18 -39 -18 -55l-352 -158 q-35 -14 -47 13z" />
<glyph unicode="&#xfe;" horiz-adv-x="1079" d="M-14 -442l256 1831q2 18 16 31.5t29 13.5h178q16 0 27.5 -13.5t9.5 -31.5l-68 -486q27 25 91.5 44.5t123.5 19.5q154 0 246 -125t92 -318q0 -238 -141 -392.5t-361 -154.5q-39 0 -95 18t-81 36l-65 -473q-2 -16 -16.5 -30.5t-28.5 -14.5h-181q-16 0 -26 14t-6 31z M348 285q16 -27 59.5 -47.5t92.5 -20.5q94 0 163.5 81t69.5 214q0 86 -44 151.5t-120 65.5q-49 0 -91 -23.5t-60 -46.5l-19 -24z" />
<glyph unicode="&#xff;" horiz-adv-x="966" d="M-2 -472q-6 15 8 42l264 498l-182 817q-12 61 37 61h182q31 0 35 -26l92 -578h6l267 578q12 27 47 26h186q25 0 32 -19.5t-5 -41.5l-705 -1344q-14 -29 -41 -28h-194q-23 0 -29 15zM268 1260q6 61 52.5 104t99.5 43q57 0 92 -42t29 -105q-8 -61 -54.5 -105.5 t-101.5 -44.5q-57 0 -91 43t-26 107zM655 1260q6 61 51.5 104t100.5 43q57 0 92 -42t29 -105q-8 -61 -55.5 -105.5t-100.5 -44.5q-57 0 -91 43t-26 107z" />
<glyph unicode="&#x152;" horiz-adv-x="1832" d="M106 614q0 348 225.5 594t549.5 246q43 0 88 -5t69 -11l25 -4h758q14 0 22 -11.5t6 -27.5l-24 -168q-2 -16 -13.5 -27.5t-25.5 -11.5h-526l-48 -336h437q14 0 22 -11.5t6 -27.5l-24 -170q-6 -39 -39 -39h-436l-52 -358h527q33 0 28 -39l-22 -168q-2 -16 -14.5 -27.5 t-26.5 -11.5h-758q-102 -20 -186 -20q-233 0 -400.5 186t-167.5 448zM379 649q0 -168 95.5 -287.5t236.5 -119.5q88 0 153 26l125 895q-70 29 -145 29q-180 0 -322.5 -164t-142.5 -379z" />
<glyph unicode="&#x153;" horiz-adv-x="1546" d="M57 414q0 223 148.5 388t365.5 165q164 0 273 -129q133 129 340 129q141 0 228 -76t87 -189q0 -88 -55 -153.5t-147.5 -100t-191.5 -50t-204 -15.5q-4 -74 34 -125t122 -51q76 0 172 65q41 25 55 0l78 -104q23 -35 -6 -62q-139 -129 -326 -129q-174 0 -278 125 q-143 -125 -318 -125q-164 0 -270.5 129.5t-106.5 307.5zM303 434q0 -94 42 -155.5t122 -61.5q96 0 162.5 88t66.5 213q0 90 -41 150.5t-116 60.5q-100 0 -168 -86t-68 -209zM926 557q137 0 228 32t91 87q0 31 -24.5 52.5t-73.5 21.5q-70 0 -135.5 -61.5t-85.5 -131.5z" />
<glyph unicode="&#x178;" horiz-adv-x="1136" d="M125 1384q-8 20 2 35t33 15h192q27 0 39 -29l213 -467h4l342 477q14 18 33 19h225q23 0 28 -16.5t-9 -37.5l-516 -688l-90 -653q-2 -14 -14.5 -26.5t-26.5 -12.5h-199q-33 0 -29 39l92 651zM350 1718q6 61 51 104.5t99 43.5q57 0 92 -42t29 -106q-8 -61 -54.5 -105 t-101.5 -44q-57 0 -90 43t-25 106zM805 1718q6 61 51 104.5t100 43.5q57 0 91 -42t28 -106q-8 -61 -54 -105t-99 -44q-57 0 -91 43t-26 106z" />
<glyph unicode="&#x2c6;" horiz-adv-x="688" d="M109 1151q-18 27 10 47l274 207q23 16 43 0l217 -207q23 -16 6 -39l-59 -76q-18 -25 -41 -6l-160 127l-204 -127q-25 -17 -41 6z" />
<glyph unicode="&#x2dc;" horiz-adv-x="700" d="M113 1241q86 172 209 172q49 0 106 -56.5t86 -56.5q35 0 66 64q25 47 61 20l47 -36q29 -20 4 -68q-14 -29 -34.5 -59.5t-66.5 -63.5t-95 -33q-41 0 -79 29t-68 57.5t-50 28.5q-6 0 -12 -1t-11.5 -5t-10.5 -7t-10 -10.5l-7 -10.5t-7 -12t-7.5 -11t-8.5 -13l-4 -10 q-6 -12 -21.5 -15t-27.5 7l-55 43q-20 20 -4 47z" />
<glyph unicode="&#x2000;" horiz-adv-x="1003" />
<glyph unicode="&#x2001;" horiz-adv-x="2007" />
<glyph unicode="&#x2002;" horiz-adv-x="1003" />
<glyph unicode="&#x2003;" horiz-adv-x="2007" />
<glyph unicode="&#x2004;" horiz-adv-x="669" />
<glyph unicode="&#x2005;" horiz-adv-x="501" />
<glyph unicode="&#x2006;" horiz-adv-x="334" />
<glyph unicode="&#x2007;" horiz-adv-x="334" />
<glyph unicode="&#x2008;" horiz-adv-x="250" />
<glyph unicode="&#x2009;" horiz-adv-x="401" />
<glyph unicode="&#x200a;" horiz-adv-x="111" />
<glyph unicode="&#x2010;" horiz-adv-x="712" d="M92 430l19 137q4 39 41 39h417q33 0 29 -39l-18 -137q-4 -37 -41 -37h-418q-33 0 -29 37z" />
<glyph unicode="&#x2011;" horiz-adv-x="712" d="M92 430l19 137q4 39 41 39h417q33 0 29 -39l-18 -137q-4 -37 -41 -37h-418q-33 0 -29 37z" />
<glyph unicode="&#x2012;" horiz-adv-x="712" d="M92 430l19 137q4 39 41 39h417q33 0 29 -39l-18 -137q-4 -37 -41 -37h-418q-33 0 -29 37z" />
<glyph unicode="&#x2013;" horiz-adv-x="1040" d="M96 467l10 76q4 39 41 39h744q33 0 29 -39l-11 -76q-4 -37 -41 -37h-741q-35 0 -31 37z" />
<glyph unicode="&#x2014;" horiz-adv-x="1445" d="M96 467l10 76q4 39 41 39h1149q33 0 29 -39l-10 -76q-4 -37 -41 -37h-1147q-35 0 -31 37z" />
<glyph unicode="&#x2018;" horiz-adv-x="489" d="M141 983q0 262 207 457q23 23 43 2l53 -41q18 -14 -10 -47q-135 -147 -139 -289q35 20 74 20q51 0 79.5 -31.5t28.5 -82.5q0 -72 -52 -125t-130 -53q-68 0 -111 50t-43 140z" />
<glyph unicode="&#x2019;" horiz-adv-x="483" d="M160 1276q0 72 52 125t130 53q68 0 111 -50t43 -140q0 -262 -207 -457q-23 -23 -43 -2l-53 41q-18 14 10 47q135 147 139 289q-35 -20 -74 -21q-51 0 -79.5 32t-28.5 83z" />
<glyph unicode="&#x201a;" horiz-adv-x="505" d="M20 139q0 72 52.5 125t130.5 53q68 0 110.5 -50t42.5 -140q0 -262 -206 -457q-23 -23 -44 -2l-53 41q-18 14 10 47q135 147 140 289q-35 -20 -74 -20q-51 0 -80 31.5t-29 82.5z" />
<glyph unicode="&#x201c;" horiz-adv-x="907" d="M141 983q0 262 207 457q23 23 43 2l53 -41q18 -14 -10 -47q-135 -147 -139 -289q35 20 74 20q51 0 79.5 -31.5t28.5 -82.5q0 -72 -52 -125t-130 -53q-68 0 -111 50t-43 140zM559 983q0 262 207 457q23 23 43 2l53 -41q18 -14 -10 -47q-135 -147 -139 -289q35 20 73 20 q51 0 80 -31.5t29 -82.5q0 -72 -52 -125t-130 -53q-68 0 -111 50t-43 140z" />
<glyph unicode="&#x201d;" horiz-adv-x="901" d="M160 1276q0 72 52 125t130 53q68 0 111 -50t43 -140q0 -262 -207 -457q-23 -23 -43 -2l-53 41q-18 14 10 47q135 147 139 289q-35 -20 -74 -21q-51 0 -79.5 32t-28.5 83zM578 1276q0 72 52 125t130 53q68 0 110.5 -50t42.5 -140q0 -262 -206 -457q-23 -23 -43 -2l-54 41 q-18 14 11 47q135 147 139 289q-35 -20 -74 -21q-51 0 -79.5 32t-28.5 83z" />
<glyph unicode="&#x201e;" horiz-adv-x="921" d="M20 139q0 72 52.5 125t130.5 53q68 0 110.5 -50t42.5 -140q0 -262 -206 -457q-23 -23 -44 -2l-53 41q-18 14 10 47q135 147 140 289q-35 -20 -74 -20q-51 0 -80 31.5t-29 82.5zM436 139q0 72 52.5 125t129.5 53q68 0 111 -50t43 -140q0 -262 -207 -457q-23 -23 -43 -2 l-53 41q-18 14 10 47q135 147 139 289q-35 -20 -73 -20q-51 0 -80 31.5t-29 82.5z" />
<glyph unicode="&#x2022;" horiz-adv-x="763" d="M117 489q0 121 89 212.5t202 91.5q96 0 158.5 -70t62.5 -170q0 -121 -90 -209t-207 -88q-92 0 -153.5 68.5t-61.5 164.5z" />
<glyph unicode="&#x2026;" horiz-adv-x="1259" d="M18 109q0 68 48.5 116.5t113.5 48.5q51 0 86 -37.5t35 -91.5q0 -68 -49 -116.5t-115 -48.5q-51 0 -85 38t-34 91zM430 109q0 68 49 116.5t113 48.5q53 0 88 -36.5t35 -92.5q0 -68 -50.5 -116.5t-113.5 -48.5q-53 0 -87 38t-34 91zM831 109q0 68 49.5 116.5t114.5 48.5 q51 0 86 -37.5t35 -91.5q0 -68 -49 -116.5t-115 -48.5q-51 0 -86 38t-35 91z" />
<glyph unicode="&#x202f;" horiz-adv-x="401" />
<glyph unicode="&#x2039;" horiz-adv-x="567" d="M66 459q-12 27 6 49l233 303q20 25 43 25h131q25 0 30 -19.5t-9 -44.5l-164 -305l65 -281q6 -25 -4 -43t-32 -18h-127q-17 0 -25 16z" />
<glyph unicode="&#x203a;" horiz-adv-x="567" d="M29.5 144.5q-4.5 19.5 9.5 43.5l164 306l-66 280q-6 25 4.5 43.5t32.5 18.5h127q16 0 25 -17l147 -317q12 -27 -6 -49l-234 -303q-20 -25 -43 -25h-131q-25 0 -29.5 19.5z" />
<glyph unicode="&#x205f;" horiz-adv-x="501" />
<glyph unicode="&#x20ac;" d="M68 551l4 27q8 39 43 38h78q0 61 14 140h-74q-14 0 -23.5 11t-7.5 28l4 28q2 14 14.5 26.5t29.5 12.5h79q68 260 233 426t400 166q238 0 389 -170q25 -29 -4 -61l-114 -136q-29 -31 -56 0q-90 111 -225 111q-106 0 -196.5 -92t-133.5 -244h406q37 0 33 -39l-5 -30 q-4 -37 -45 -37h-415q-14 -86 -15 -140h330q37 0 33 -38l-4 -29q-4 -37 -43 -37h-312q10 -123 69.5 -193.5t164.5 -70.5q23 0 42 3t38.5 10t32 12.5t33 18.5t27.5 18t27.5 21.5t24.5 18.5q33 25 49 -4l92 -153q16 -31 -12 -56q-188 -160 -385 -160q-223 0 -354 146.5 t-141 388.5h-93q-16 0 -25 12.5t-7 26.5z" />
<glyph unicode="&#x2122;" horiz-adv-x="1458" d="M238 1321l10 74q2 14 14 26.5t27 12.5h383q14 0 23.5 -11.5t6.5 -27.5l-10 -74q-6 -39 -41 -39h-114l-64 -455q-2 -14 -14.5 -26.5t-26.5 -12.5h-86q-14 0 -23.5 11.5t-5.5 27.5l64 455h-115q-14 0 -22 11.5t-6 27.5zM686 836l176 577q8 31 41 31h6q20 0 29 -23l111 -379 l221 379q14 23 35 23h6q12 0 21 -9.5t9 -21.5l17 -579q0 -18 -12.5 -32t-28.5 -14h-82q-29 0 -29 35v256l-151 -278q-10 -18 -33 -19h-10q-23 0 -29 21l-76 276l-71 -258q-8 -33 -41 -33h-80q-18 0 -26.5 14.5t-2.5 33.5z" />
<glyph unicode="&#x25fc;" horiz-adv-x="942" d="M0 0v942h942v-942h-942z" />
<glyph unicode="&#xfb03;" horiz-adv-x="1789" d="M61 -440l164 1157h-100q-18 0 -28.5 13t-8.5 32l18 139q2 20 15.5 32.5t30.5 12.5h102l4 27q25 209 141.5 335t309.5 126q162 0 292 -109q70 70 138.5 99.5t173.5 29.5q176 0 321 -106q10 -8 12.5 -25.5t-8.5 -34.5l-75 -108q-31 -43 -62 -23q-94 59 -194 60 q-156 0 -185 -226l-6 -45h561q37 0 31 -45l-119 -856q-4 -18 -16 -31.5t-29 -13.5h-180q-18 0 -28.5 13.5t-6.5 31.5l96 672h-340l-159 -1157q-6 -47 -56 -47h-176q-16 0 -26.5 14t-8.5 33l164 1157h-340l-161 -1157q-2 -18 -16.5 -32.5t-31.5 -14.5h-178q-16 0 -27.5 14 t-7.5 33zM518 946h338l4 35q8 74 27 129q-63 94 -187 94q-84 0 -122.5 -57t-55.5 -168z" />
<glyph unicode="&#xfb04;" horiz-adv-x="1851" d="M61 -440l164 1157h-100q-18 0 -28.5 13t-8.5 32l18 139q2 20 15.5 32.5t30.5 12.5h102l4 27q25 209 141.5 335t309.5 126q157 0 288 -109h4q129 129 330 129q84 0 162 -32.5t113 -65.5l36 -31l37 66q25 43 58 43h63q14 0 24.5 -13.5t8.5 -31.5l-188 -1344 q-2 -18 -16.5 -31.5t-29.5 -13.5h-182q-16 0 -26.5 13.5t-8.5 31.5l146 1073q-14 27 -65.5 63t-121.5 36q-86 0 -145 -58.5t-74 -177.5l-4 -35h174q16 0 26.5 -12t8.5 -33l-20 -141q-4 -16 -17.5 -29.5t-29.5 -13.5h-175l-159 -1157q-4 -18 -17.5 -32.5t-29.5 -14.5h-183 q-16 0 -26.5 14t-7.5 33l163 1157h-342l-161 -1157q-2 -18 -16.5 -32.5t-31.5 -14.5h-178q-16 0 -27.5 14t-7.5 33zM518 946h338l4 35q9 63 29 129q-63 94 -189 94q-84 0 -122.5 -57t-55.5 -168z" />
</font>
</defs>
</svg>
