<svg width="17" height="17" viewBox="0 0 17 17" fill="none" xmlns="http://www.w3.org/2000/svg">
<path d="M13.1667 5.83341L10.5001 8.50008H12.5001C12.5001 9.56095 12.0787 10.5784 11.3285 11.3285C10.5784 12.0787 9.56095 12.5001 8.50008 12.5001C7.83341 12.5001 7.18675 12.3334 6.63341 12.0334L5.66008 13.0067C6.50881 13.5469 7.49404 13.8337 8.50008 13.8334C9.91457 13.8334 11.2711 13.2715 12.2713 12.2713C13.2715 11.2711 13.8334 9.91457 13.8334 8.50008H15.8334L13.1667 5.83341ZM4.50008 8.50008C4.50008 7.43922 4.92151 6.4218 5.67165 5.67165C6.4218 4.92151 7.43922 4.50008 8.50008 4.50008C9.16675 4.50008 9.81341 4.66675 10.3667 4.96675L11.3401 3.99341C10.4914 3.45325 9.50612 3.16647 8.50008 3.16675C7.08559 3.16675 5.72904 3.72865 4.72885 4.72885C3.72865 5.72904 3.16675 7.08559 3.16675 8.50008H1.16675L3.83341 11.1667L6.50008 8.50008" fill="#141B38"/>
</svg>
