<svg width="16" height="17" viewBox="0 0 16 17" fill="none" xmlns="http://www.w3.org/2000/svg">
<g clip-path="url(#clip0_6104_8371)">
<path d="M2.36675 12.86L3.30675 13.8L4.50675 12.6066L3.56008 11.66L2.36675 12.86ZM7.33341 15.4666H8.66675V13.5H7.33341V15.4666ZM8.00008 4.16664C6.93921 4.16664 5.9218 4.58806 5.17165 5.33821C4.42151 6.08836 4.00008 7.10577 4.00008 8.16664C4.00008 9.2275 4.42151 10.2449 5.17165 10.9951C5.9218 11.7452 6.93921 12.1666 8.00008 12.1666C9.06095 12.1666 10.0784 11.7452 10.8285 10.9951C11.5787 10.2449 12.0001 9.2275 12.0001 8.16664C12.0001 5.9533 10.2067 4.16664 8.00008 4.16664ZM13.3334 8.8333H15.3334V7.49997H13.3334V8.8333ZM11.4934 12.6066L12.6934 13.8L13.6334 12.86L12.4401 11.66L11.4934 12.6066ZM13.6334 3.4733L12.6934 2.5333L11.4934 3.72664L12.4401 4.6733L13.6334 3.4733ZM8.66675 0.866638H7.33341V2.8333H8.66675V0.866638ZM2.66675 7.49997H0.666748V8.8333H2.66675V7.49997ZM4.50675 3.72664L3.30675 2.5333L2.36675 3.4733L3.56008 4.6733L4.50675 3.72664Z" fill="#141B38"/>
</g>
<defs>
<clipPath id="clip0_6104_8371">
<rect width="16" height="16" fill="white" transform="translate(0 0.5)"/>
</clipPath>
</defs>
</svg>
