<svg width="16" height="17" viewBox="0 0 16 17" fill="none" xmlns="http://www.w3.org/2000/svg">
<path d="M8.00014 10.8333C7.3813 10.8333 6.78781 10.5875 6.35022 10.1499C5.91264 9.71234 5.6668 9.11885 5.6668 8.50001C5.6668 7.88117 5.91264 7.28768 6.35022 6.8501C6.78781 6.41251 7.3813 6.16668 8.00014 6.16668C8.61898 6.16668 9.21247 6.41251 9.65005 6.8501C10.0876 7.28768 10.3335 7.88117 10.3335 8.50001C10.3335 9.11885 10.0876 9.71234 9.65005 10.1499C9.21247 10.5875 8.61898 10.8333 8.00014 10.8333ZM12.9535 9.14668C12.9801 8.93335 13.0001 8.72001 13.0001 8.50001C13.0001 8.28001 12.9801 8.06001 12.9535 7.83334L14.3601 6.74668C14.4868 6.64668 14.5201 6.46668 14.4401 6.32001L13.1068 4.01334C13.0268 3.86668 12.8468 3.80668 12.7001 3.86668L11.0401 4.53334C10.6935 4.27334 10.3335 4.04668 9.91347 3.88001L9.6668 2.11334C9.65326 2.03482 9.61236 1.96363 9.55135 1.91238C9.49034 1.86113 9.41315 1.83313 9.33347 1.83334H6.6668C6.50014 1.83334 6.36014 1.95334 6.33347 2.11334L6.0868 3.88001C5.6668 4.04668 5.3068 4.27334 4.96014 4.53334L3.30014 3.86668C3.15347 3.80668 2.97347 3.86668 2.89347 4.01334L1.56014 6.32001C1.47347 6.46668 1.51347 6.64668 1.64014 6.74668L3.0468 7.83334C3.02014 8.06001 3.00014 8.28001 3.00014 8.50001C3.00014 8.72001 3.02014 8.93335 3.0468 9.14668L1.64014 10.2533C1.51347 10.3533 1.47347 10.5333 1.56014 10.68L2.89347 12.9867C2.97347 13.1333 3.15347 13.1867 3.30014 13.1333L4.96014 12.46C5.3068 12.7267 5.6668 12.9533 6.0868 13.12L6.33347 14.8867C6.36014 15.0467 6.50014 15.1667 6.6668 15.1667H9.33347C9.50014 15.1667 9.64014 15.0467 9.6668 14.8867L9.91347 13.12C10.3335 12.9467 10.6935 12.7267 11.0401 12.46L12.7001 13.1333C12.8468 13.1867 13.0268 13.1333 13.1068 12.9867L14.4401 10.68C14.5201 10.5333 14.4868 10.3533 14.3601 10.2533L12.9535 9.14668Z" fill="#434960"/>
</svg>
