<svg width="16" height="16" viewBox="0 0 16 16" fill="none" xmlns="http://www.w3.org/2000/svg">
	<path d="M14 10.6667H1.99996V2.66666H14V10.6667ZM14 1.33333H1.99996C1.25996 1.33333 0.666626 1.92666 0.666626 2.66666V10.6667C0.666626 11.0203 0.807102 11.3594 1.05715 11.6095C1.3072 11.8595 1.64634 12 1.99996 12H6.66663V13.3333H5.33329V14.6667H10.6666V13.3333H9.33329V12H14C14.3536 12 14.6927 11.8595 14.9428 11.6095C15.1928 11.3594 15.3333 11.0203 15.3333 10.6667V2.66666C15.3333 2.31304 15.1928 1.9739 14.9428 1.72385C14.6927 1.4738 14.3536 1.33333 14 1.33333Z" fill="#141B38"/>
</svg>
