<svg width="24" height="24" viewBox="0 0 24 24" fill="none" xmlns="http://www.w3.org/2000/svg">
	<path d="M20 18.5H4C3.46957 18.5 2.96086 18.2893 2.58579 17.9142C2.21071 17.5391 2 17.0304 2 16.5V7.5C2 6.96957 2.21071 6.46086 2.58579 6.08579C2.96086 5.71071 3.46957 5.5 4 5.5H20C20.5304 5.5 21.0391 5.71071 21.4142 6.08579C21.7893 6.46086 22 6.96957 22 7.5V16.5C22 17.0304 21.7893 17.5391 21.4142 17.9142C21.0391 18.2893 20.5304 18.5 20 18.5ZM4 7.5V16.5H20V7.5H4Z" fill="#141B38"/>
	<circle cx="7.5" cy="12" r="1.5" fill="#141B38"/>
	<circle cx="12" cy="12" r="1.5" fill="#141B38"/>
	<circle cx="16.5" cy="12" r="1.5" fill="#141B38"/>
</svg>
